<?xml version="1.0" encoding="UTF-8"?>
<svg version="1.1" xmlns="http://www.w3.org/2000/svg" width="860" height="639">
<path d="M0 0 C2.52915519 -0.00463476 5.05830968 -0.0096603 7.58746338 -0.01504517 C14.425923 -0.02809952 21.26437143 -0.03463688 28.10284138 -0.03905582 C32.37833338 -0.04183058 36.65382316 -0.04606976 40.92931366 -0.05056 C52.78682945 -0.062734 64.64434349 -0.07304121 76.50186539 -0.07643509 C77.25828846 -0.07665466 78.01471153 -0.07687422 78.79405652 -0.07710044 C79.93122474 -0.07742786 79.93122474 -0.07742786 81.09136605 -0.07776189 C82.62731695 -0.07820534 84.16326785 -0.0786519 85.69921875 -0.07910156 C86.8420182 -0.07943371 86.8420182 -0.07943371 88.0079045 -0.07977256 C100.37149019 -0.08372646 112.73501717 -0.10120686 125.09858015 -0.12446108 C137.81732707 -0.14818916 150.5360445 -0.16063738 163.25481391 -0.16180301 C170.38611804 -0.16271824 177.51734533 -0.16843363 184.64862823 -0.18662262 C191.34969136 -0.20365593 198.05058377 -0.20526561 204.75167084 -0.19648361 C207.20866791 -0.19571274 209.66567281 -0.20006245 212.12265015 -0.20994186 C215.47991015 -0.22264903 218.83665216 -0.21679101 222.19390869 -0.20635986 C223.16269022 -0.21441627 224.13147175 -0.22247267 225.1296103 -0.23077321 C234.93485654 -0.1596597 242.76692609 2.41662384 249.98339844 9.16113281 C256.24927775 16.00823622 259.66338255 23.09461079 259.25146484 32.4699707 C258.37816993 41.23711995 254.30370179 49.40947782 250.73339844 57.34863281 C250.00141235 58.99412109 250.00141235 58.99412109 249.25463867 60.67285156 C246.05105983 67.85140774 242.7773347 74.99431706 239.42089844 82.10253906 C237.54444787 86.09509557 235.75527728 90.12124905 233.98339844 94.16113281 C235.22089844 94.22300781 236.45839844 94.28488281 237.73339844 94.34863281 C250.63963123 95.83000859 261.24911018 103.21054061 269.41699219 112.98925781 C277.55040873 124.26651367 279.38716461 136.62111771 277.98339844 150.16113281 C276.54904343 157.77299405 273.19965905 164.82831288 269.89355469 171.77832031 C265.24469647 181.63867997 260.87630894 191.6223798 256.48339844 201.59863281 C255.65931994 203.46653324 254.83510179 205.33437206 254.01074219 207.20214844 C250.46049031 215.24943328 246.91866342 223.30031187 243.39746094 231.36035156 C239.92057379 239.31755294 236.41507922 247.26194696 232.89404297 255.19970703 C232.19904547 256.76762925 231.50504768 258.33599494 230.81201172 259.90478516 C215.68979365 294.13322167 215.68979365 294.13322167 197.83105469 302.85644531 C185.80373753 307.37196439 172.3779958 306.58677638 159.73339844 306.78613281 C157.71645592 306.8243902 155.69952839 306.8634462 153.68261719 306.90332031 C148.7830018 306.99846696 143.8833103 307.08280045 138.98339844 307.16113281 C138.53536865 308.14807129 138.08733887 309.13500977 137.62573242 310.15185547 C135.93047541 313.88435101 134.23170736 317.61524037 132.53198242 321.34570312 C131.80286378 322.94716872 131.07464339 324.54904365 130.34741211 326.15136719 C126.71971322 334.14281982 123.07184334 342.12305069 119.19433594 349.99707031 C118.66501465 351.07263184 118.13569336 352.14819336 117.59033203 353.25634766 C111.73856387 363.83433879 102.55339148 370.03890218 91.18652344 373.61816406 C86.49448302 374.77453572 81.97152843 375.28666331 77.14398193 375.29484558 C76.00059357 375.29911057 74.8572052 375.30337555 73.6791687 375.30776978 C72.43861725 375.30731659 71.1980658 375.3068634 69.91992188 375.30639648 C68.60196625 375.3097551 67.28401062 375.31311371 65.92611694 375.3165741 C62.31793604 375.32538892 58.70977888 375.32775138 55.10158825 375.32838988 C52.83902684 375.32910274 50.57647137 375.33124171 48.31391144 375.3338871 C40.39579387 375.34313792 32.4776931 375.34722303 24.55957031 375.34643555 C17.22186736 375.34583744 9.88423856 375.35633713 2.54655433 375.37217921 C-3.78246152 375.38534794 -10.11145345 375.39061545 -16.44048285 375.38998014 C-20.20695334 375.38972752 -23.97335813 375.39244471 -27.73981476 375.40315819 C-65.32401583 375.50265844 -65.32401583 375.50265844 -83.39160156 371.03613281 C-84.2568042 370.8244043 -85.12200684 370.61267578 -86.01342773 370.39453125 C-101.7159379 366.34832858 -116.27891042 359.71267765 -130.01660156 351.16113281 C-131.12261719 350.47535156 -132.22863281 349.78957031 -133.36816406 349.08300781 C-142.49509565 343.08721334 -150.23852697 335.78199792 -158.01660156 328.16113281 C-158.90484619 327.30684692 -158.90484619 327.30684692 -159.81103516 326.43530273 C-186.56280824 300.35360554 -200.64043247 262.49049351 -201.29785156 225.67260742 C-201.54655346 195.23965549 -193.66666276 170.62707354 -181.01660156 143.16113281 C-180.05777586 141.06370158 -179.0994376 138.96604743 -178.14160156 136.86816406 C-176.29038281 132.81940252 -174.43102337 128.77450163 -172.56738281 124.73144531 C-170.66278221 120.58916834 -168.79795141 116.43190339 -166.96484375 112.25756836 C-157.61740897 90.97554834 -148.37951002 70.85256573 -133.01660156 53.16113281 C-132.29730469 52.319375 -131.57800781 51.47761719 -130.83691406 50.61035156 C-105.35879199 21.46011581 -67.84764555 3.18391326 -29.25696564 0.3657608 C-19.52281583 -0.17766778 -9.74530544 0.00417367 0 0 Z M-100.01660156 146.16113281 C-100.96664062 146.70511719 -101.91667969 147.24910156 -102.89550781 147.80957031 C-106.4078096 150.06315988 -108.63499009 151.62319258 -109.66503906 155.77441406 C-110.45239111 178.63790626 -98.70623354 200.48683232 -84.01660156 217.16113281 C-68.89514172 233.10520008 -45.97742428 244.58446545 -23.80566406 245.25878906 C-22.76152344 245.2471875 -21.71738281 245.23558594 -20.64160156 245.22363281 C-18.76660156 245.20279948 -16.89160156 245.18196615 -15.01660156 245.16113281 C-10.88879319 237.07637805 -7.04299918 228.90841117 -3.39160156 220.59863281 C-2.88306641 219.45056152 -2.37453125 218.30249023 -1.85058594 217.11962891 C0.60409492 211.57551383 3.04526 206.02587637 5.46542358 200.46662903 C6.27806823 198.60208632 7.09382517 196.73893789 7.91064453 194.8762207 C8.93823746 192.5305588 9.9596717 190.18218662 10.97412109 187.83081055 C11.44124512 186.76677002 11.90836914 185.70272949 12.38964844 184.60644531 C12.79505859 183.6733252 13.20046875 182.74020508 13.61816406 181.77880859 C15.10556239 178.92689786 16.97276845 176.66053178 18.98339844 174.16113281 C18.98339844 173.50113281 18.98339844 172.84113281 18.98339844 172.16113281 C19.54027344 171.88398438 20.09714844 171.60683594 20.67089844 171.32128906 C22.25840017 170.5248566 23.84153884 169.71968559 25.42089844 168.90722656 C26.26652344 168.47539062 27.11214844 168.04355469 27.98339844 167.59863281 C28.82902344 167.16421875 29.67464844 166.72980469 30.54589844 166.28222656 C34.57894673 164.42728288 38.05953092 164.02688298 42.48632812 163.95581055 C43.58716736 163.93586533 44.68800659 163.9159201 45.82220459 163.89537048 C47.59582367 163.87030174 47.59582367 163.87030174 49.40527344 163.84472656 C51.22795746 163.81355492 51.22795746 163.81355492 53.08746338 163.78175354 C56.96938417 163.71636453 60.85137264 163.6574223 64.73339844 163.59863281 C67.36491586 163.55543749 69.99642643 163.51182287 72.62792969 163.46777344 C79.07968104 163.36069398 85.53149973 163.25890767 91.98339844 163.16113281 C95.96441233 155.29451366 99.88039274 147.42607395 103.42089844 139.34863281 C103.94586914 138.16817383 103.94586914 138.16817383 104.48144531 136.96386719 C106.20969197 133.67617026 106.20969197 133.67617026 106.98339844 130.16113281 C86.15484866 130.09082467 65.32631866 130.03803835 44.49767399 130.0056963 C34.82498757 129.99027531 25.1523752 129.96927779 15.47973633 129.93481445 C7.0419042 129.90476522 -1.39587426 129.88552323 -9.83375841 129.87886733 C-14.29505697 129.87498117 -18.75620208 129.86594955 -23.2174511 129.84394264 C-27.43060265 129.82333119 -31.64353995 129.81734787 -35.85673714 129.82180977 C-37.38960059 129.82099544 -38.92247245 129.81517842 -40.45529175 129.80351639 C-62.28810711 129.6457864 -81.4425586 134.49888523 -100.01660156 146.16113281 Z " fill="#CA3927" transform="translate(396.0166015625,40.8388671875)"/>
<path d="M0 0 C2.5866469 -0.00763012 5.17329155 -0.01605907 7.75993347 -0.02522278 C14.75547931 -0.04793178 21.75099455 -0.05597649 28.74657226 -0.06104922 C33.12057106 -0.06431952 37.49456119 -0.07084949 41.86855507 -0.07805061 C53.99971702 -0.09758977 66.13087098 -0.11401245 78.26204967 -0.11692715 C79.42301544 -0.1172085 79.42301544 -0.1172085 80.60743507 -0.11749554 C82.17612 -0.11786177 83.74480494 -0.11822546 85.31348988 -0.11858665 C86.09207923 -0.11876946 86.87066859 -0.11895227 87.67285156 -0.11914062 C88.45239924 -0.11932117 89.23194691 -0.11950172 90.03511725 -0.11968774 C102.68260362 -0.12323384 115.32992024 -0.15029532 127.97734769 -0.18763851 C140.9887794 -0.22574709 154.00012683 -0.24508476 167.01161557 -0.24538666 C174.30676578 -0.24597027 181.60171279 -0.25440157 188.89681053 -0.28338432 C195.75307958 -0.31050121 202.60894012 -0.31178174 209.46524239 -0.29572868 C211.97826388 -0.293913 214.49130844 -0.30061556 217.00428009 -0.31654739 C220.44031538 -0.3370009 223.87494098 -0.32645875 227.31095886 -0.30833435 C228.30017324 -0.32153432 229.28938762 -0.33473429 230.30857819 -0.34833425 C237.24703592 -0.26499439 242.68435657 1.35707522 248.44848633 5.30639648 C253.974615 11.11106526 255.80790489 15.99428617 255.65161133 23.93920898 C255.02662715 31.22267849 252.09439619 35.21278621 246.58129883 39.86108398 C240.80785797 43.77348896 235.49996394 43.5910342 228.73587036 43.56468201 C227.64370614 43.56835771 226.55154192 43.57203342 225.42628181 43.57582051 C221.75931966 43.58581615 218.0925087 43.58164643 214.42553711 43.57763672 C211.79892312 43.58202305 209.17231052 43.58732487 206.54570007 43.59347534 C200.88399865 43.60551903 195.22232536 43.61062825 189.56061172 43.61135674 C181.35840269 43.61268383 173.15626174 43.62780966 164.95407675 43.6468519 C151.62474775 43.67769903 138.29541702 43.70185862 124.96606445 43.71972656 C124.16835124 43.72079924 123.37063803 43.72187192 122.5487517 43.72297711 C113.66090026 43.73478205 104.77304814 43.74498849 95.88519287 43.75341797 C92.66833494 43.75649157 89.45147703 43.75958043 86.23461914 43.76269531 C85.440912 43.76346065 84.64720485 43.76422599 83.82944597 43.76501452 C70.5617112 43.7781283 57.29402545 43.80281567 44.02632701 43.83643872 C35.85345546 43.85665735 27.68068903 43.86702799 19.50779228 43.86444951 C13.89641338 43.86340883 8.28511718 43.87314071 2.67376716 43.89108854 C-0.55646878 43.90106343 -3.78648649 43.90467603 -7.01673698 43.89832115 C-35.59852198 43.84801312 -61.06162805 48.88775894 -82.55151367 69.30639648 C-103.58923877 91.07503953 -112.14467617 119.91451077 -111.85229492 149.60717773 C-111.67474101 155.00891419 -110.81412906 160.06113143 -109.55151367 165.30639648 C-109.39593994 165.98855225 -109.24036621 166.67070801 -109.08007812 167.37353516 C-105.09399707 184.13846171 -97.36454462 199.69319588 -85.55151367 212.30639648 C-84.87991211 213.06823242 -84.20831055 213.83006836 -83.51635742 214.61499023 C-70.46990803 228.68564687 -51.27340819 238.68019718 -32.55151367 242.30639648 C-31.68995667 242.48385406 -30.82839966 242.66131165 -29.94073486 242.84414673 C-22.1386749 244.31623845 -14.47972322 244.58835144 -6.56356049 244.58079147 C-4.29189596 244.57980957 -2.02068347 244.59295692 0.25091553 244.60977173 C6.69955147 244.65557432 13.14813015 244.68066266 19.59692383 244.68725586 C23.56616388 244.69228818 27.5349159 244.71660565 31.50399017 244.75258255 C33.00453504 244.76232249 34.50514742 244.76474447 36.00571442 244.75941086 C45.09288641 244.72858659 52.27869142 244.84520281 59.47192383 251.05249023 C64.12245452 256.87237402 65.93335362 261.19684194 65.76489258 268.74389648 C64.95470299 275.3054319 61.40077439 280.0788335 56.44848633 284.30639648 C50.97466491 288.04461599 46.51433678 288.45588485 39.99633789 288.45166016 C39.25092239 288.45501877 38.5055069 288.45837738 37.73750305 288.46183777 C35.27135548 288.47133799 32.80527607 288.4732914 30.33911133 288.47436523 C28.61195854 288.47758196 26.88480603 288.48094634 25.15765381 288.48445129 C21.52949392 288.49044272 17.90135784 288.49229153 14.27319336 288.49169922 C9.66749849 288.4915984 5.06196058 288.50516707 0.45630264 288.52247143 C-3.11808951 288.53370794 -6.69244535 288.53561478 -10.26685333 288.53508949 C-11.96177962 288.53625537 -13.65670728 288.54059699 -15.35161591 288.54842186 C-29.23735704 288.60645153 -43.13323896 288.06995986 -56.55151367 284.11889648 C-57.66695557 283.79634888 -57.66695557 283.79634888 -58.80493164 283.46728516 C-91.47067976 273.64260916 -119.75208812 250.69155463 -136.26293945 220.8581543 C-140.33460384 213.24108344 -143.73404859 205.47928131 -146.55151367 197.30639648 C-146.83510742 196.4981543 -147.11870117 195.68991211 -147.41088867 194.85717773 C-148.15486769 192.68217784 -148.85817112 190.49799652 -149.55151367 188.30639648 C-149.79643555 187.57678711 -150.04135742 186.84717773 -150.29370117 186.09545898 C-154.35551088 173.49128658 -156.04714702 160.99988347 -155.88769531 147.82421875 C-155.86397399 145.74041096 -155.86718851 143.65788505 -155.8737793 141.57397461 C-155.849365 128.97684357 -154.7296166 116.57041632 -150.92651367 104.49389648 C-150.66708984 103.65697266 -150.40766602 102.82004883 -150.14038086 101.95776367 C-143.53499588 81.34989397 -133.24776088 63.1884394 -118.55151367 47.30639648 C-118.03105469 46.73679199 -117.5105957 46.1671875 -116.97436523 45.58032227 C-99.12865923 26.24658518 -76.1004033 11.87531231 -50.55151367 5.30639648 C-49.49706055 5.0137793 -48.44260742 4.72116211 -47.35620117 4.41967773 C-44.43298716 3.63735545 -41.5063526 2.95838713 -38.55151367 2.30639648 C-37.3075383 2.03171996 -37.3075383 2.03171996 -36.03843212 1.75149441 C-24.13745355 -0.44427262 -12.05520161 0.00225638 0 0 Z " fill="#FDD000" transform="translate(390.551513671875,49.693603515625)"/>
<path d="M0 0 C0.9795314 -0.00671722 1.95906281 -0.01343445 2.96827698 -0.02035522 C6.20457037 -0.03934217 9.44065633 -0.04326018 12.67700195 -0.04541016 C14.93276555 -0.05183894 17.18852831 -0.05856736 19.44429016 -0.06558228 C24.1744683 -0.07755776 28.9045734 -0.08126295 33.63476562 -0.08007812 C39.67939971 -0.07987523 45.72356206 -0.10714576 51.76808453 -0.14162254 C56.4291242 -0.16392587 61.09005112 -0.16791456 65.75113869 -0.16685867 C67.97855055 -0.16921067 70.20596572 -0.17801143 72.43332481 -0.19352341 C75.55874408 -0.21324683 78.68315625 -0.20731939 81.80859375 -0.1953125 C82.7185611 -0.20655151 83.62852844 -0.21779053 84.56607056 -0.22937012 C93.54828713 -0.14223471 101.05345406 2.90978049 108.2277832 8.29052734 C109.2177832 8.99177734 110.2077832 9.69302734 111.2277832 10.41552734 C117.76753321 15.97431485 121.88026589 24.85713054 122.73950195 33.29443359 C123.45003236 45.78400991 120.27835385 54.7003722 114.89331055 65.79931641 C112.92632159 69.92243896 111.04994689 74.08150641 109.18481445 78.25146484 C108.64170876 79.46545204 108.64170876 79.46545204 108.08763123 80.70396423 C107.33269483 82.39196163 106.57791156 84.08002752 105.82327271 85.76815796 C104.27179684 89.23136938 102.70946847 92.6896354 101.14707947 96.14793396 C97.63173208 103.92986419 94.13885276 111.72119286 90.6809082 119.52880859 C90.31840469 120.34698563 89.95590118 121.16516266 89.58241272 122.00813293 C87.86565186 125.88470146 86.1520638 129.76263818 84.44238281 133.64233398 C73.56186098 158.28417292 73.56186098 158.28417292 64.84106445 162.42333984 C58.9807834 164.3680071 52.49577649 164.23539146 46.8527832 161.66552734 C41.14833764 158.32918495 37.76141451 153.54729454 35.73950195 147.34130859 C32.29332466 133.53029272 43.32128399 117.2101244 48.9152832 104.91552734 C50.52428527 101.36575384 52.13039697 97.81467838 53.7355957 94.26318359 C54.12628738 93.39932541 54.51697906 92.53546722 54.91950989 91.64543152 C58.53284018 83.64271999 62.04898826 75.60038494 65.49804688 67.52539062 C65.85358643 66.6963623 66.20912598 65.86733398 66.57543945 65.01318359 C66.87458252 64.30943604 67.17372559 63.60568848 67.48193359 62.88061523 C68.2277832 61.29052734 68.2277832 61.29052734 69.2277832 60.29052734 C69.42768083 58.29062218 69.42768083 58.29062218 69.4152832 55.97802734 C69.42946289 55.19814453 69.44364258 54.41826172 69.45825195 53.61474609 C69.19389815 50.94880525 68.74612284 49.50192292 67.2277832 47.29052734 C63.17047243 44.26678374 60.18185652 43.91776157 55.17773438 43.92163086 C54.4875975 43.91786438 53.79746063 43.9140979 53.08641052 43.91021729 C51.59413699 43.90380312 50.10182257 43.90409765 48.60954857 43.9104023 C46.24172747 43.91954567 43.87469278 43.90925142 41.50691223 43.89378357 C34.77740656 43.85377996 28.04796422 43.85247574 21.31835938 43.85473633 C17.19513064 43.85478762 13.07232548 43.83552208 8.94921303 43.80540276 C6.62700456 43.79463644 4.30562535 43.80667346 1.98344421 43.81922913 C-6.58756125 43.79774603 -13.39831659 43.61376462 -19.7956543 37.29052734 C-20.24166992 36.63052734 -20.68768555 35.97052734 -21.1472168 35.29052734 C-21.60870117 34.63052734 -22.07018555 33.97052734 -22.5456543 33.29052734 C-26.06999082 27.54383849 -26.50894884 23.01437296 -25.7722168 16.29052734 C-24.00908081 10.11427255 -20.09734554 5.76680681 -14.7722168 2.29052734 C-9.96727008 -0.2440456 -5.29620412 -0.00521725 0 0 Z " fill="#FDD000" transform="translate(542.772216796875,143.70947265625)"/>
<path d="M0 0 C0.96163055 -0.00511093 1.92326111 -0.01022186 2.91403198 -0.01548767 C6.09021242 -0.0293768 9.26617562 -0.02842696 12.44238281 -0.02612305 C14.6557015 -0.03001119 16.86901945 -0.03434611 19.08233643 -0.03910828 C23.72255877 -0.04656966 28.36270503 -0.04628039 33.00292969 -0.04101562 C38.93548921 -0.03523024 44.86773559 -0.05213008 50.80024338 -0.0753603 C55.37288215 -0.09012957 59.94544615 -0.09096482 64.51810455 -0.08785057 C66.70446644 -0.08836247 68.89083265 -0.09357554 71.07717133 -0.10366249 C74.14279688 -0.11606721 77.2078208 -0.10921012 80.2734375 -0.09765625 C81.16829865 -0.10529999 82.06315979 -0.11294373 82.98513794 -0.12081909 C93.62914426 -0.03262658 103.62225443 3.85396991 111.44238281 11.1965332 C119.6523603 20.24855966 123.10548599 29.89233114 122.75854492 42.15698242 C121.53948205 52.6260025 115.93376166 62.9051292 111.58300781 72.3996582 C110.72758107 74.28416406 109.87428317 76.16962542 109.02102661 78.05511475 C108.42014704 79.38258555 107.81863685 80.70977107 107.21652222 82.03668213 C103.90722202 89.33393416 100.6595335 96.6583062 97.41217041 103.98327637 C96.39773463 106.26963933 95.38113891 108.55502893 94.36376953 110.84008789 C91.4173372 117.45916335 88.47531211 124.07971313 85.57449341 130.71893311 C84.40090163 133.40195744 83.21997244 136.08171505 82.0378418 138.76098633 C81.23279836 140.59323582 80.43800901 142.42998004 79.64355469 144.2668457 C76.18705356 152.08392619 72.97575783 158.92045507 64.83300781 162.57543945 C59.01353538 164.24480735 52.70774834 164.42651108 46.95800781 162.42700195 C40.95081164 159.07070864 37.53653573 153.69774196 35.39550781 147.2746582 C33.64265988 132.90130516 42.05320796 119.34599928 47.83966064 106.62298584 C49.04032746 103.98104718 50.23513299 101.33653051 51.42822266 98.69116211 C54.66912489 91.50624749 57.91546155 84.32391459 61.1847229 77.15185547 C62.47164419 74.32154024 63.74501832 71.48513943 65.02050781 68.6496582 C65.47506348 67.66320312 65.92961914 66.67674805 66.39794922 65.66040039 C69.29761329 59.23969232 69.29761329 59.23969232 69.39550781 52.2746582 C67.69739334 49.00421551 66.48933962 46.84735802 63.18586731 45.11775208 C59.82008651 44.10079739 56.9547671 44.03011454 53.43725586 44.03515625 C52.75687256 44.03314209 52.07648926 44.03112793 51.37548828 44.02905273 C49.90448601 44.02551959 48.43346852 44.02625903 46.9624691 44.03082848 C44.62835205 44.03644645 42.29472739 44.02722221 39.96064758 44.0136261 C33.32668852 43.97660565 26.6928975 43.95793445 20.05883789 43.96923828 C15.99386539 43.97511331 11.92958665 43.95671424 7.86475563 43.92334938 C6.32233431 43.91543243 4.77983664 43.91662184 3.23743248 43.92737389 C-12.45631752 44.03205335 -12.45631752 44.03205335 -18.60449219 38.2746582 C-23.61521726 33.22893187 -25.89560459 29.10099286 -25.97949219 21.9621582 C-25.84904664 15.10225714 -24.83807936 11.5695456 -19.95605469 6.5949707 C-13.63894939 0.82957766 -8.3464834 -0.02289998 0 0 Z " fill="#FDD000" transform="translate(441.6044921875,212.725341796875)"/>
<path d="M0 0 C5.98406833 4.25533748 7.85347684 12.52065458 10.125 19.25 C10.72639595 21.00005724 11.32796395 22.75005537 11.9296875 24.5 C12.38939941 25.84578125 12.38939941 25.84578125 12.85839844 27.21875 C14.46565362 31.9039729 16.10964908 36.57628503 17.75 41.25 C18.34261441 42.94265005 18.93507804 44.63535291 19.52734375 46.328125 C19.95144531 47.53984375 20.37554688 48.7515625 20.8125 50 C25.39289147 46.22514593 29.54940323 42.30007742 33.5 37.875 C37.59590488 33.35666215 41.78232055 28.96917906 46.125 24.6875 C49.36523799 21.4891082 52.53408574 18.27045533 55.5 14.8125 C68.29856144 -0.03631643 68.29856144 -0.03631643 77.9140625 -1.26953125 C82.39706295 -1.49619981 85.30752406 -0.78336325 88.8125 2 C91.21504399 5.60381598 91.34898 7.84718141 90.8125 12 C89.78761265 16.47196045 88.49589509 20.85379249 87.1875 25.25 C86.85621094 26.3946875 86.52492188 27.539375 86.18359375 28.71875 C84.18854931 35.55460038 82.07499275 42.34546727 79.91015625 49.12890625 C77.77251631 55.82988136 75.76658665 62.55751019 73.84765625 69.32421875 C73.10531438 71.91103363 72.36150743 74.49742363 71.61743164 77.08374023 C71.11741474 78.83733454 70.62438085 80.59293329 70.13793945 82.3503418 C64.72045403 101.85579992 64.72045403 101.85579992 57.8125 107 C53.74333499 109.29596405 50.76343274 110.01584888 46.0625 109.9375 C42.28105451 108.84669842 40.87081854 108.37564241 38.8125 105 C37.23807168 95.91060312 40.88885974 87.02401992 43.625 78.5 C44.08269107 77.04077509 44.53908001 75.58114111 44.99414062 74.12109375 C45.86670262 71.32775677 46.74413237 68.53605096 47.62744141 65.74609375 C49.14336414 60.95469599 49.14336414 60.95469599 50.63671875 56.15625 C50.86834717 55.41181641 51.09997559 54.66738281 51.33862305 53.90039062 C51.93347449 51.84128587 51.93347449 51.84128587 51.8125 49 C44.79456217 55.07165489 44.79456217 55.07165489 38.4375 61.8125 C35.36423268 65.43196412 32.13585379 68.86141191 28.8125 72.25 C28.32604004 72.75764893 27.83958008 73.26529785 27.33837891 73.78833008 C23.3904807 77.77377086 19.14169859 81.21665915 13.5546875 82.53125 C8.55510328 82.44757495 6.34795874 81.43494115 2.8125 78 C1.23510742 75.02319336 1.23510742 75.02319336 -0.08203125 71.58984375 C-0.31911301 70.9811293 -0.55619476 70.37241486 -0.80046082 69.74525452 C-1.29544625 68.46624053 -1.78333234 67.18445842 -2.2644043 65.90014648 C-3.0012151 63.93425799 -3.75927022 61.97764609 -4.52148438 60.02148438 C-8.1875 50.48855923 -8.1875 50.48855923 -8.1875 47 C-8.8475 47 -9.5075 47 -10.1875 47 C-10.28111816 47.54350098 -10.37473633 48.08700195 -10.47119141 48.64697266 C-11.83491026 56.01285873 -13.85090411 63.16061077 -15.96386719 70.33984375 C-16.55901886 72.36316526 -17.14720176 74.388413 -17.734375 76.4140625 C-25.21392986 102.10179638 -25.21392986 102.10179638 -32.5 107.8125 C-37.45782514 110.00316692 -41.42375986 110.65323709 -46.5625 108.75 C-49.1875 107 -49.1875 107 -51.1875 104 C-51.52486608 99.18736229 -50.92727968 95.29669277 -49.4921875 90.71484375 C-49.11271973 89.4839502 -48.73325195 88.25305664 -48.34228516 86.98486328 C-47.91581819 85.63570169 -47.48921895 84.28658191 -47.0625 82.9375 C-46.62055878 81.51577991 -46.17967033 80.09373222 -45.73974609 78.67138672 C-45.02334027 76.35646672 -44.30587712 74.04190794 -43.58474731 71.72845459 C-41.53690833 65.15632017 -39.53608105 58.57056242 -37.546875 51.98046875 C-36.92207744 49.91348084 -36.29724019 47.84650493 -35.67236328 45.77954102 C-34.74838234 42.7228484 -33.8248653 39.66602163 -32.90325928 36.60861206 C-23.49257543 5.41813514 -23.49257543 5.41813514 -16.1875 1 C-10.71960553 -1.5061183 -5.74778752 -1.80322746 0 0 Z " fill="#CB3D2D" transform="translate(739.1875,489)"/>
<path d="M0 0 C1.04531387 -0.00953201 2.09062775 -0.01906403 3.1676178 -0.02888489 C4.85666481 -0.02751778 4.85666481 -0.02751778 6.57983398 -0.02612305 C7.74667221 -0.03040817 8.91351044 -0.0346933 10.1157074 -0.03910828 C12.58787386 -0.04485302 15.06005723 -0.04535079 17.53222656 -0.04101562 C21.28732817 -0.03787409 25.04162771 -0.06124992 28.79663086 -0.08666992 C31.20353091 -0.08894494 33.61043307 -0.08964547 36.01733398 -0.08862305 C37.12919571 -0.09783279 38.24105743 -0.10704254 39.38661194 -0.11653137 C50.07406942 -0.05416371 59.92271003 1.49159283 67.76342773 9.2746582 C71.82863678 14.61024508 71.46243236 20.85356917 70.76342773 27.2746582 C68.79736106 36.16127957 63.00220503 43.56545092 55.62280273 48.7902832 C53.70092773 49.8996582 53.70092773 49.8996582 50.76342773 51.2746582 C52.6596319 53.27620704 54.56489071 54.89245258 56.76342773 56.5871582 C60.33274415 59.57934634 62.38930342 62.57264925 63.04467773 67.3059082 C63.51625382 78.46654227 58.98055794 87.00007302 51.76342773 95.2746582 C38.59456176 106.9256841 21.77363798 109.4116522 4.88061523 109.4777832 C3.18196823 109.48633331 3.18196823 109.48633331 1.44900513 109.49505615 C-0.93624954 109.50447112 -3.321517 109.51102614 -5.70678711 109.51489258 C-9.35626627 109.52464403 -13.0051927 109.55571948 -16.65454102 109.5871582 C-18.97615227 109.59368459 -21.29776753 109.59893649 -23.61938477 109.6027832 C-24.70905548 109.61513 -25.7987262 109.62747681 -26.92141724 109.64019775 C-36.30386956 109.61254089 -36.30386956 109.61254089 -40.23657227 106.2746582 C-42.17407227 104.2121582 -42.17407227 104.2121582 -43.23657227 101.2746582 C-42.48810355 94.39975366 -40.29592752 87.6667699 -38.29516602 81.0715332 C-38.0114061 80.12272781 -37.72764618 79.17392242 -37.43528748 78.19636536 C-36.51938982 75.13775576 -35.59702787 72.0811447 -34.67407227 69.0246582 C-34.03914268 66.91269585 -33.40454184 64.80063464 -32.77026367 62.68847656 C-31.82006061 59.52503902 -30.86935885 56.36175806 -29.91662598 53.19908142 C-28.07129456 47.07086664 -26.24842796 40.93673259 -24.45141602 34.79418945 C-24.04546192 33.4135925 -23.63930209 32.03305602 -23.23291016 30.65258789 C-22.50916639 28.18999971 -21.79052773 25.7259027 -21.078125 23.26000977 C-18.35760635 14.06300711 -16.04670285 6.31239754 -7.40760803 1.19026184 C-4.79848598 0.0899015 -2.82898615 0.01421024 0 0 Z M4.76342773 22.2746582 C3.75896669 25.5649805 2.76062017 28.85712642 1.76342773 32.1496582 C1.33416992 33.55538086 1.33416992 33.55538086 0.89624023 34.98950195 C0.49018555 36.33334961 0.49018555 36.33334961 0.07592773 37.7043457 C-0.17543945 38.5317627 -0.42680664 39.35917969 -0.68579102 40.21166992 C-1.3225547 42.24083666 -1.3225547 42.24083666 -1.23657227 44.2746582 C2.90920048 44.33329714 7.05486478 44.36846805 11.20092773 44.3996582 C12.3655957 44.41641602 13.53026367 44.43317383 14.73022461 44.45043945 C25.29621952 44.50996618 33.61515932 44.01304206 41.63842773 36.5246582 C43.42740865 32.94669637 43.14284403 30.25852927 42.76342773 26.2746582 C40.95179506 23.60034331 39.88581697 23.31545461 36.76342773 22.2746582 C34.32235014 22.19011951 31.9108356 22.15860034 29.47045898 22.17700195 C28.76443039 22.1784169 28.05840179 22.17983185 27.33097839 22.18128967 C25.07925148 22.18688056 22.82762453 22.19943133 20.57592773 22.2121582 C19.04793438 22.21717438 17.51993947 22.22173709 15.99194336 22.22583008 C12.24906639 22.236847 8.506264 22.25410533 4.76342773 22.2746582 Z M-7.23657227 64.2746582 C-8.40556036 67.91975139 -9.57137386 71.565852 -10.73657227 75.2121582 C-11.07043945 76.25307617 -11.40430664 77.29399414 -11.74829102 78.36645508 C-12.06411133 79.35581055 -12.37993164 80.34516602 -12.70532227 81.36450195 C-12.99858398 82.28094482 -13.2918457 83.1973877 -13.59399414 84.14160156 C-14.2846462 86.06295058 -14.2846462 86.06295058 -14.23657227 87.2746582 C-9.54094961 87.32443242 -4.84548363 87.36055341 -0.1496582 87.38452148 C1.44477009 87.39452296 3.0391803 87.40812851 4.63354492 87.42553711 C6.9373015 87.45004516 9.24081368 87.46119996 11.54467773 87.4699707 C12.59830505 87.48545456 12.59830505 87.48545456 13.67321777 87.50125122 C20.31507663 87.50272649 27.51777577 86.64603484 32.76342773 82.2746582 C35.33971558 78.5743212 36.76342773 75.50481775 36.76342773 70.9621582 C35.57383768 67.76513494 34.78429885 66.82591634 31.76342773 65.2746582 C27.1505544 64.28824429 22.65529892 64.1419152 17.95874023 64.17700195 C16.87277054 64.17912437 16.87277054 64.17912437 15.76486206 64.18128967 C13.47267367 64.18684745 11.18058616 64.19939187 8.88842773 64.2121582 C7.32592915 64.21717867 5.76342903 64.22174062 4.20092773 64.22583008 C0.38838939 64.23680301 -3.42407439 64.2540381 -7.23657227 64.2746582 Z " fill="#CB3D2C" transform="translate(73.236572265625,488.725341796875)"/>
<path d="M0 0 C3.03984663 2.81185813 4.12332523 5.04653397 5 9 C5.70125 8.52949219 6.4025 8.05898438 7.125 7.57421875 C16.03464482 1.72726434 21.98818073 -1.22252914 32.625 -1.375 C33.35412598 -1.38909912 34.08325195 -1.40319824 34.83447266 -1.41772461 C41.0270383 -1.36196752 45.09354844 0.26686222 49.75 4.5 C52 7 52 7 54 10 C54.83402344 9.45730469 55.66804688 8.91460938 56.52734375 8.35546875 C69.01798575 0.34534813 79.09923585 -2.58396771 94 -1 C98.86983672 0.17027084 101.9123838 1.9123838 105.4375 5.4375 C109.27251608 11.72692637 109.97750118 17.16863271 108.51538086 24.39526367 C106.19300317 33.49760774 103.66660302 42.53946254 101.03125 51.55566406 C100.50905075 53.35659874 99.99541214 55.16003705 99.49023438 56.96582031 C93.75936206 77.42370171 93.75936206 77.42370171 85.29614258 83.15356445 C80.63267198 85.59858643 76.91662165 85.20900532 72 84 C69.5 82.5 69.5 82.5 68 80 C66.98354661 70.91113034 70.23878426 62.61438153 72.9375 54.0625 C78.50918237 39.21193683 78.50918237 39.21193683 78 24 C74.46009608 21.30967302 70.24330212 21.49143945 66 22 C59.77809603 24.00366399 55.74120614 26.89712185 52.51928711 32.63867188 C50.76672067 36.51611599 49.58596933 40.37926248 48.44140625 44.46875 C47.9683429 46.10814333 47.49502793 47.74746407 47.02148438 49.38671875 C46.28935206 51.94635745 45.56056017 54.5068654 44.83666992 57.06884766 C44.13062287 59.55900751 43.41176018 62.04519729 42.69140625 64.53125 C42.37557335 65.67055969 42.37557335 65.67055969 42.05335999 66.83288574 C40.08725767 73.57488427 37.12194657 79.1907888 31 83 C26.95880156 84.42803733 23.42691089 85.28538218 19.1875 84.4375 C16.28405645 82.52952281 14.72332834 81.04896553 13 78 C13.36644216 71.3217786 15.29088911 65.28030416 17.3125 58.9375 C17.94556676 56.89501299 18.5770763 54.85204267 19.20703125 52.80859375 C19.51334473 51.81843262 19.8196582 50.82827148 20.13525391 49.80810547 C21.29308508 46.04825958 22.43008192 42.28582611 23.5 38.5 C23.97953125 36.84484375 23.97953125 36.84484375 24.46875 35.15625 C25.08775575 31.47862762 24.81585682 28.62946032 24 25 C21.07395192 22.25128816 19.1269885 22.01228921 15.125 21.625 C9.66259473 21.87188837 5.56014984 23.51019508 1.57421875 27.31640625 C-2.25612511 32.09838386 -3.69014502 38.05340185 -5.5 43.8125 C-5.8909082 45.01414795 -6.28181641 46.2157959 -6.68457031 47.45385742 C-8.38616701 52.72590754 -10.0303008 58.00651264 -11.515625 63.34375 C-11.73025391 64.11227295 -11.94488281 64.8807959 -12.16601562 65.67260742 C-12.70787509 67.65814178 -13.22230271 69.65110698 -13.734375 71.64453125 C-15.63382176 76.68041016 -18.29349586 79.94705064 -22.9375 82.8125 C-27.8819221 84.72972489 -30.6097814 85.4634062 -35.75 83.75 C-39 82 -39 82 -41 79 C-41.68531936 72.5694287 -39.78150293 67.00952144 -37.89453125 60.90625 C-37.57344894 59.84192749 -37.25236664 58.77760498 -36.92155457 57.68103027 C-35.89420215 54.28454775 -34.85332079 50.89237628 -33.8125 47.5 C-33.1313232 45.25025364 -32.45097657 43.00025574 -31.77148438 40.75 C-29.87614086 34.49103018 -27.94425759 28.24391938 -26 22 C-25.74498718 21.17142487 -25.48997437 20.34284973 -25.22723389 19.48916626 C-24.57279786 17.37055442 -23.90486142 15.2568597 -23.23046875 13.14453125 C-22.87750732 12.02667236 -22.5245459 10.90881348 -22.16088867 9.75708008 C-20.39710441 5.56813882 -17.90995145 3.2004843 -14 1 C-13.21625 0.525625 -12.4325 0.05125 -11.625 -0.4375 C-7.61175993 -1.29748002 -3.94800318 -1.15119345 0 0 Z " fill="#CB3E2D" transform="translate(374,514)"/>
<path d="M0 0 C2.56004236 2.44556892 3.45303348 3.72818293 4.75 7.125 C4.2101589 13.27918856 1.22933344 17.09928399 -3.3125 21.125 C-7.47100861 23.12428299 -10.93109241 24.15446837 -15.5625 23.6875 C-18.79337956 22.36159465 -21.61512209 20.54445605 -24.5625 18.6875 C-34.12261107 13.92664148 -44.36508775 13.15494781 -54.625 16.1875 C-66.75465003 20.70638923 -76.98027806 29.72185086 -82.5 41.4375 C-85.92013748 49.36758148 -87.07940376 58.08424326 -84.796875 66.515625 C-82.20005389 72.62364084 -79.00279349 75.23338217 -72.96484375 77.84765625 C-60.56799394 82.18151432 -47.70472112 78.44580654 -35.5625 74.6875 C-35.376875 73.1715625 -35.376875 73.1715625 -35.1875 71.625 C-34.58798926 67.84808236 -33.64406898 64.34988602 -32.5625 60.6875 C-33.87605469 60.66171875 -35.18960938 60.6359375 -36.54296875 60.609375 C-38.2786785 60.55308171 -40.0143543 60.49573465 -41.75 60.4375 C-42.61431641 60.42332031 -43.47863281 60.40914062 -44.36914062 60.39453125 C-48.50323658 60.23613677 -51.01073366 60.01252266 -54.6328125 57.87890625 C-56.5625 55.6875 -56.5625 55.6875 -57.25 51.875 C-56.96339747 47.72313639 -55.30911337 45.33284508 -52.65625 42.23046875 C-45.46860882 36.93360631 -37.60914791 37.21830282 -29.04394531 37.29638672 C-26.93489434 37.31251993 -24.827744 37.29645406 -22.71875 37.27734375 C-21.36197499 37.2793255 -20.00520115 37.28316775 -18.6484375 37.2890625 C-17.4320459 37.29244629 -16.2156543 37.29583008 -14.96240234 37.29931641 C-10.26681008 37.8354353 -6.9070601 39.3429399 -3.5625 42.6875 C-2.20827919 46.88756048 -2.86543001 49.80231848 -4.07421875 53.984375 C-4.42033203 55.1909375 -4.76644531 56.3975 -5.12304688 57.640625 C-5.49494141 58.89359375 -5.86683594 60.1465625 -6.25 61.4375 C-6.60255859 62.675 -6.95511719 63.9125 -7.31835938 65.1875 C-13.2999304 85.74573313 -13.2999304 85.74573313 -22.5625 91.6875 C-42.12010004 102.06992965 -66.16259065 107.12739148 -87.9375 101.125 C-98.50159284 97.07282442 -106.78157576 91.48108256 -111.7734375 81.19140625 C-117.56379747 67.04403739 -115.71585752 53.41108353 -110.3125 39.4375 C-101.2133091 19.01848232 -83.18573594 3.29424448 -62.5625 -4.625 C-43.40201906 -11.6162301 -16.87744133 -13.34634545 0 0 Z " fill="#CB3D2D" transform="translate(682.5625,496.3125)"/>
<path d="M0 0 C3.04484621 1.8849048 3.70382137 3.06958026 4.7734375 6.4296875 C5.11352657 11.78902221 3.52264353 16.39280794 2 21.5 C1.68474365 22.5926416 1.3694873 23.6852832 1.04467773 24.81103516 C-1.43375921 33.31712403 -4.08462867 41.76957661 -6.86523438 50.18164062 C-7.14560547 51.03693359 -7.42597656 51.89222656 -7.71484375 52.7734375 C-7.96355225 53.52028809 -8.21226074 54.26713867 -8.46850586 55.03662109 C-9.13064949 57.14362131 -9.13064949 57.14362131 -9 60 C-7.67162109 59.01773438 -7.67162109 59.01773438 -6.31640625 58.015625 C2.73816814 51.33731945 11.84678246 44.74042728 21.09179688 38.32763672 C22.80322808 37.13690452 24.50390967 35.93075691 26.203125 34.72265625 C31.56169189 31.06296461 36.3216294 28.26242895 43 29 C46.05147152 30.33501879 47.51186717 31.02373434 49 34 C49.0546875 35.953125 49.0546875 35.953125 48.875 38.25 C48.83117187 38.99765625 48.78734375 39.7453125 48.7421875 40.515625 C46.31700342 48.6336096 38.08548269 52.52272811 31.375 56.75 C30.32570313 57.42160156 29.27640625 58.09320312 28.1953125 58.78515625 C26.25726659 60.0250087 24.31662671 61.26082271 22.37255859 62.49121094 C20.56765665 63.63900822 18.77971447 64.81352369 17 66 C18.94548955 72.80921343 21.8131125 78.87817914 25.04296875 85.15039062 C31.83921001 98.36530419 31.83921001 98.36530419 31 104 C28.51625301 108.77643651 25.74961586 111.48549749 21 114 C16.29103937 115.28426199 13.15142483 115.15502815 8.68334961 113.12182617 C5.63461878 111.09007589 4.40475034 107.93560176 3 104.6875 C2.33378761 103.25369508 1.66711096 101.82010581 1 100.38671875 C0.50693359 99.29689697 0.50693359 99.29689697 0.00390625 98.18505859 C-1.57625676 94.74574466 -3.29014928 91.37616358 -5 88 C-6 86 -7 84 -8 82 C-13.44394987 84.57135182 -17.57910569 87.36966746 -19.859375 93.07421875 C-20.65219068 95.32377842 -21.36121879 97.57720259 -22.02197266 99.86889648 C-23.61764514 105.39653978 -25.5888148 109.12463373 -30.25 112.75 C-34.76685461 114.80311573 -38.96446144 115.49757609 -43.8125 114.3125 C-46.45393715 112.72763771 -47.61294357 111.77411287 -49 109 C-49.47131195 102.40117381 -48.13909119 97.06264277 -46.17578125 90.79296875 C-45.87806824 89.81010895 -45.58035522 88.82724915 -45.27362061 87.81460571 C-44.2977137 84.60204898 -43.30596544 81.39466659 -42.3125 78.1875 C-41.28034448 74.82658391 -40.25051863 71.46496006 -39.22093201 68.10325623 C-38.51872041 65.81160797 -37.8150648 63.52040173 -37.11000061 61.22962952 C-34.78048538 53.63813782 -32.55668258 46.02236073 -30.390625 38.3828125 C-29.54964786 35.45745084 -28.70613126 32.53283634 -27.86141968 29.60855103 C-27.33302877 27.75929384 -26.81384184 25.90737951 -26.30435181 24.05282593 C-21.54571281 6.7689694 -21.54571281 6.7689694 -14.73217773 1.9675293 C-9.96934293 -0.69281099 -5.38465843 -0.56554844 0 0 Z " fill="#CB3E2D" transform="translate(288,484)"/>
<path d="M0 0 C4.49937697 4.46588285 6.00918362 9.5099922 6.12890625 15.7578125 C6.05280509 21.9090411 4.5543648 27.48829042 2.875 33.375 C2.56175781 34.49358398 2.24851562 35.61216797 1.92578125 36.76464844 C0.93059374 40.26648907 -0.09276793 43.75891324 -1.125 47.25 C-1.45628906 48.38727539 -1.78757812 49.52455078 -2.12890625 50.69628906 C-3.09674385 53.9746017 -4.10260421 57.23833516 -5.125 60.5 C-5.42019531 61.49273926 -5.71539062 62.48547852 -6.01953125 63.50830078 C-8.0683815 69.80197642 -10.4921535 73.65350592 -16.125 77.25 C-20.76050712 79.47118049 -24.15158769 79.53940319 -29.125 78.25 C-31.76611385 76.10855634 -33.23212245 74.08931633 -35.125 71.25 C-36.57132813 71.99056641 -36.57132813 71.99056641 -38.046875 72.74609375 C-39.32280852 73.39344237 -40.59885621 74.04056599 -41.875 74.6875 C-42.82632813 75.17573242 -42.82632813 75.17573242 -43.796875 75.67382812 C-52.85148211 80.24829109 -63.37400539 80.70854822 -73.2890625 78.56640625 C-78.76778738 76.57188556 -82.10558693 74.2509029 -85.125 69.25 C-88.22151198 62.03914109 -86.88210003 55.39695079 -84.125 48.25 C-79.42000172 39.57422292 -71.15282051 32.25725107 -61.86328125 28.9921875 C-47.51497299 25.10320238 -35.37537379 26.31249963 -21.125 29.25 C-21.05917763 22.69452574 -21.05917763 22.69452574 -24 17.1875 C-32.51771187 14.63218644 -40.19618485 15.38142847 -48.8828125 16.75 C-58.63441715 18.25386192 -58.63441715 18.25386192 -63.1875 15.1875 C-65.125 12.25 -65.125 12.25 -65.25 8.8125 C-63.89992813 4.53727241 -62.36352936 2.34772373 -59.125 -0.75 C-42.93239545 -8.78618122 -15.04649839 -11.47295502 0 0 Z M-57.75 47.5 C-59.80958418 50.25389159 -60.15325313 51.43835422 -60.6875 55 C-60.38399568 58.18854861 -60.38399568 58.18854861 -58.75 60.125 C-54.25280673 63.23844149 -49.41553266 62.74214257 -44.125 62.25 C-37.98843027 60.6596777 -33.06683384 58.35119674 -29.125 53.25 C-27.65234317 50.64004383 -26.34120693 47.98816421 -25.125 45.25 C-28.82003121 41.55496879 -34.43649008 41.12636982 -39.5 40.9375 C-46.36618343 41.15095648 -52.86511247 42.38523541 -57.75 47.5 Z " fill="#CC3E2E" transform="translate(228.125,519.75)"/>
<path d="M0 0 C2.1875 1.625 2.1875 1.625 3.1875 3.625 C3.84248186 10.64958327 2.67834827 16.71704521 0.5546875 23.375 C0.28036896 24.27259033 0.00605042 25.17018066 -0.27658081 26.0949707 C-1.15055734 28.9425173 -2.0438316 31.78358036 -2.9375 34.625 C-3.514255 36.49831839 -4.08978476 38.37201446 -4.6640625 40.24609375 C-6.07496309 44.83375233 -7.52014643 49.40969738 -8.9786377 53.98242188 C-9.79552222 56.57119601 -10.58483809 59.1671151 -11.37011719 61.765625 C-11.86840318 63.3648133 -12.3673905 64.96378329 -12.8671875 66.5625 C-13.07650909 67.27752686 -13.28583069 67.99255371 -13.50149536 68.72924805 C-15.3474913 74.50789814 -18.44449352 79.70975891 -23.84494019 82.78076172 C-28.34898267 84.77675421 -32.00840068 85.01079788 -36.8125 83.625 C-39.63184465 81.62178144 -40.60700919 80.34573923 -41.55444336 77.02270508 C-41.89135299 72.58678136 -40.86414229 69.16305068 -39.56640625 64.94921875 C-39.19729378 63.69711861 -39.19729378 63.69711861 -38.82072449 62.41972351 C-38.01884065 59.71311675 -37.19818257 57.01269875 -36.375 54.3125 C-35.81555819 52.45474712 -35.25664091 50.59683621 -34.69824219 48.73876953 C-33.58970425 45.05870876 -32.47244188 41.38143761 -31.35009766 37.70556641 C-30.0246411 33.3510754 -28.75849369 28.98309722 -27.51171875 24.60546875 C-26.86326094 22.403268 -26.2136402 20.20140912 -25.5625 18 C-25.2951001 17.02635498 -25.0277002 16.05270996 -24.75219727 15.04956055 C-22.41071517 7.39723079 -18.17889995 3.01612378 -11.1875 -0.8125 C-6.93287479 -1.82017439 -3.97595226 -1.94379888 0 0 Z " fill="#CC3F2F" transform="translate(528.8125,514.375)"/>
<path d="M0 0 C2.19140625 1.6015625 2.19140625 1.6015625 3.19140625 3.6015625 C3.58707771 7.71654567 3.45928736 10.07610339 1.56640625 13.7890625 C-1.74801053 17.71402974 -5.56565676 20.98474638 -10.80859375 21.6015625 C-16.45237916 21.96567769 -19.90799486 21.7519475 -24.80859375 18.6015625 C-27.06262185 15.22052034 -27.03335755 13.60617304 -26.41015625 9.6640625 C-25.08117255 5.10754697 -21.95968235 2.44382245 -18.24609375 -0.2734375 C-12.36092477 -2.1994928 -5.65100773 -2.81371456 0 0 Z " fill="#CC4232" transform="translate(539.80859375,485.3984375)"/>
<path d="M0 0 C0.66 0.33 1.32 0.66 2 1 C-4.93 7.93 -11.86 14.86 -19 22 C-19.66 21.67 -20.32 21.34 -21 21 C-14.35150847 13.52992682 -7.59684563 6.52570688 0 0 Z " fill="#D56F64" transform="translate(283,74)"/>
<path d="M0 0 C0.66 0.33 1.32 0.66 2 1 C-0.64 3.64 -3.28 6.28 -6 9 C-6.33 8.34 -6.66 7.68 -7 7 C-2.25 1.125 -2.25 1.125 0 0 Z " fill="#D5695D" transform="translate(171,518)"/>
<path d="M0 0 C0.66 0.33 1.32 0.66 2 1 C0.88121617 2.17262904 -0.24523051 3.33795138 -1.375 4.5 C-2.00148438 5.1496875 -2.62796875 5.799375 -3.2734375 6.46875 C-5 8 -5 8 -7 8 C-5.50902342 4.2047869 -3.24299151 2.38957269 0 0 Z " fill="#D76E62" transform="translate(360,515)"/>
<path d="M0 0 C0.66 0.33 1.32 0.66 2 1 C-0.64 3.64 -3.28 6.28 -6 9 C-6.33 8.34 -6.66 7.68 -7 7 C-2.25 1.125 -2.25 1.125 0 0 Z " fill="#D76F64" transform="translate(64,491)"/>
<path d="M0 0 C0.66 0.33 1.32 0.66 2 1 C0.88121617 2.17262904 -0.24523051 3.33795138 -1.375 4.5 C-2.00148438 5.1496875 -2.62796875 5.799375 -3.2734375 6.46875 C-5 8 -5 8 -7 8 C-5.50902342 4.2047869 -3.24299151 2.38957269 0 0 Z " fill="#D66F63" transform="translate(522,485)"/>
</svg>
