<svg width="23" height="21" viewBox="0 0 23 21" fill="none" xmlns="http://www.w3.org/2000/svg">
<path fill-rule="evenodd" clip-rule="evenodd" d="M23 19.7598C22.6989 20.3699 22.6061 20.6991 21.8994 20.9337C21.5528 21.0487 19.3375 20.9913 18.8438 20.9913H12.4268L4.6123 20.9922H2.03418C1.56597 20.9922 1.08832 20.997 0.621094 20.9864C0.321608 20.9796 0.0620531 20.954 -0.203125 20.8106C-0.528529 20.6346 -0.729714 20.3758 -0.885742 20.045C-0.916955 19.9787 -0.966885 19.83 -1 19.7833V11.9795L7.44043 11.9835L9.82715 11.9815C10.1002 11.9814 10.8094 11.9668 11.0566 12.003C11.2253 12.193 11.3786 12.4237 11.5342 12.628C11.7395 12.8952 11.9588 13.1518 12.1914 13.3956C13.0796 14.3364 14.1503 15.1249 15.2461 15.8067C15.5177 15.9757 15.888 16.205 16.1777 16.3194C16.4035 16.4071 16.642 16.4582 16.8838 16.4727C17.583 16.5149 18.0631 16.2173 18.6338 15.8692C20.0019 15.0348 21.2869 14.0571 22.3135 12.8174C22.5437 12.5399 22.7542 12.2024 23 11.9473V19.7598ZM2.85254 14.9932C2.5984 15.0087 2.38134 15.0239 2.19531 15.2315C2.06323 15.3812 1.99531 15.5771 2.00586 15.7764C2.05662 16.6651 3.20961 16.4852 3.83398 16.4835L5.69629 16.4805C6.85916 16.3726 6.58132 15.0587 5.90234 15.0225C5.033 14.9767 3.7212 14.9682 2.85254 14.9932ZM15.7949 0.426814C17.0803 -0.12748 16.8412 -0.149476 18.1338 0.40533L19.9395 1.18072L21.626 1.90045C21.9383 2.03203 22.2608 2.15854 22.5635 2.31158C22.7974 2.42994 22.8807 2.58456 23 2.80377V6.96392C22.9595 7.08192 22.9104 7.50775 22.8926 7.65533C22.8434 8.05937 22.7888 8.39427 22.6953 8.78619C22.018 11.6246 19.9393 13.375 17.5254 14.7989C17.3228 14.9184 17.0748 15.034 16.835 14.96C16.5102 14.8598 16.1182 14.5861 15.8301 14.4034C14.3619 13.4723 13.026 12.3805 12.1377 10.8682C10.9727 8.88487 10.9724 6.80156 11.002 4.57818C11.0092 4.02954 10.9516 3.29877 11.0488 2.7608C11.0855 2.55934 11.2616 2.39317 11.4404 2.30377C11.7322 2.15787 12.0666 2.02343 12.3711 1.89361L14.126 1.14556L15.7949 0.426814ZM19.0596 4.51666C18.6679 4.63266 18.1898 5.35861 17.916 5.69342C17.3705 6.36045 16.8471 7.04955 16.2969 7.71392C16.0863 7.38709 15.8345 7.03523 15.6396 6.71588C15.334 6.21505 14.94 5.73833 14.3076 6.13678C13.5311 6.6265 14.4923 7.70554 14.8213 8.19049C14.9847 8.43869 15.1473 8.68897 15.3125 8.9356C15.5191 9.24405 15.7149 9.62776 16.1104 9.71099C16.4177 9.77548 16.6839 9.62488 16.8721 9.39068C17.8665 8.15297 18.8706 6.91951 19.8447 5.66607C20.0294 5.42822 20.0404 5.07035 19.8711 4.82232C19.6814 4.54454 19.3745 4.47815 19.0596 4.51666ZM3.50293 4.4815C5.46218 4.48148 7.55173 4.44511 9.50195 4.48931C9.49457 5.74088 9.47309 7.78112 9.82324 8.98638L2.39746 8.99127L0.104492 8.99322C-0.11444 8.99381 -0.806484 9.0113 -1 8.98931V5.68267L-0.991211 5.669C-0.945954 5.5933 -0.882545 5.43592 -0.84668 5.34869C-0.713999 5.02622 -0.335249 4.64404 0.0117188 4.5606C0.467956 4.45096 1.15321 4.48164 1.64648 4.4815H3.50293Z" fill="url(#paint0_linear_65_434)"/>
<defs>
<linearGradient id="paint0_linear_65_434" x1="11" y1="0" x2="11" y2="21.0056" gradientUnits="userSpaceOnUse">
<stop stop-color="#4A750C"/>
<stop offset="1" stop-color="#8BDB16"/>
</linearGradient>
</defs>
</svg>
