<svg width="26" height="26" viewBox="0 0 26 26" fill="none" xmlns="http://www.w3.org/2000/svg">
<path d="M10.4738 4.93433C10.5202 4.95344 10.842 5.30915 10.9025 5.37295C11.5401 6.04306 12.1712 6.71945 12.7957 7.40203L19.5589 14.6014L21.2714 16.4381C21.4168 16.5911 21.7345 16.8433 21.8311 17.0039C21.8496 17.0346 21.8692 17.1087 21.8727 17.1444C21.8967 17.395 17.3632 21.4443 16.8956 22.0121C16.6175 21.922 15.1538 20.2689 14.8534 19.9435L11.8057 16.6888L7.39423 11.9989C6.87828 11.4451 5.79126 10.3469 5.35352 9.79096C7.01342 8.16076 8.79688 6.56279 10.4738 4.93433ZM18.7895 17.7227C19.0262 17.6179 19.6527 17.1271 19.4247 16.8033C19.1851 16.4632 18.7722 16.0661 18.4778 15.7506C17.5993 14.8059 16.7149 13.8667 15.8247 12.9332C15.4088 12.4949 12.9244 9.72128 12.6308 9.66303C12.5791 9.65277 12.5267 9.64714 12.474 9.64621C12.2605 9.78533 11.674 10.2897 11.8565 10.541C12.2345 11.0613 12.8067 11.6141 13.2407 12.078L15.779 14.7827C16.6447 15.6905 17.4727 16.6386 18.3575 17.5283C18.4728 17.6443 18.6265 17.7125 18.7895 17.7227ZM10.6299 9.04051C11.046 8.83135 11.1723 8.73637 11.4123 8.32031C11.2124 8.00644 10.6775 7.34768 10.3412 7.22924C9.90428 7.48969 9.43786 7.83237 9.76746 8.39168C9.92301 8.65563 10.3147 9.01842 10.6299 9.04051Z" fill="url(#paint0_linear_64_291)"/>
<path d="M5.96069 12.5828C6.23852 12.6692 8.54513 15.362 9.07349 15.779L8.82264 16.1392L8.44299 16.2702C7.93574 16.0623 6.80059 14.8346 6.45245 14.3816C6.38422 14.4343 5.99376 14.7271 6.06699 14.8249C6.52973 15.443 7.09356 15.8895 7.59428 16.4941C8.06142 17.0581 7.48534 17.6719 6.89316 17.3988C6.30863 16.8748 5.69863 16.1899 5.135 15.6176C5.00672 15.7269 4.8436 15.9028 4.72172 16.0268C5.1276 16.5631 7.49695 18.3242 5.98928 18.7155C5.51846 18.8377 4.26259 17.1984 3.85992 16.845C3.68679 16.9873 3.60739 17.0845 3.46369 17.252C3.46946 17.2609 3.47527 17.2699 3.48103 17.2788C3.9251 17.9339 4.83411 18.5593 5.19054 19.2347C5.2108 19.3721 5.21316 19.5956 5.12435 19.7061C4.27569 20.7615 3.1383 18.0806 2.45403 18.22C2.42288 18.25 2.39757 18.2806 2.37691 18.3191C2.27285 18.513 2.28975 18.9346 2.35738 19.141C2.45867 19.4502 5.71589 22.7876 6.14119 23.1791C6.25846 23.2871 6.37754 23.3728 6.51936 23.4452C6.76227 23.4917 6.98429 23.5215 7.19938 23.3937C7.9359 22.9563 11.5436 19.0459 11.9442 18.981C12.2425 19.0982 12.6611 19.7362 13.0115 19.9924L13.0261 20.0029L9.10376 23.8142C8.72114 24.1876 7.6256 25.3096 7.24018 25.6007C7.10605 25.7022 6.94545 25.7624 6.77793 25.7738C6.53685 25.7881 6.37854 25.6786 6.20769 25.5172C5.78952 25.1221 5.38225 24.6871 4.98121 24.273C4.1082 23.3721 3.24316 22.4635 2.38616 21.5472C1.70338 20.8271 0.951123 20.1139 0.290238 19.3707C0.145177 19.2076 0.0202547 18.938 0.00155641 18.7169C-0.0162209 18.5065 0.121554 18.3236 0.248117 18.1679C0.75341 17.6091 1.32044 17.1004 1.86762 16.5828C2.70628 15.7761 3.54061 14.9649 4.37054 14.1491C4.81521 13.7177 5.56979 13.0315 5.96069 12.5828Z" fill="url(#paint1_linear_64_291)"/>
<path d="M18.5907 0.481806C18.754 0.464869 18.9466 0.477743 19.1129 0.483697C19.5027 0.773111 19.9407 1.26532 20.2873 1.62369L22.4376 3.89065L24.2412 5.74967C24.7124 6.23307 25.4136 6.83845 25.6194 7.47384C25.5835 7.60716 25.4984 7.90909 25.4126 8.00323C25.0883 8.3591 24.7178 8.70105 24.3693 9.03339L22.7318 10.6106C22.2557 11.0673 21.7821 11.5266 21.3112 11.9886C20.9603 12.3353 20.5276 12.7957 20.1405 13.0813C19.9477 13.0417 19.2546 12.2476 19.0195 12.0351C19.4473 11.519 20.0832 10.9972 20.5713 10.519C21.3042 9.87142 21.995 9.05757 22.7262 8.42097C24.0013 7.31075 22.8215 6.54047 21.9598 5.64583C21.5168 5.191 19.3368 2.77125 18.9126 2.73766C18.6611 2.7177 18.4117 2.83928 18.2091 2.97642C17.7649 3.27694 17.3774 3.73105 16.993 4.10688C16.3214 4.76866 15.6433 5.42369 14.9587 6.07187C15.794 7.04998 16.9306 7.99784 17.7361 9.02543C17.7737 9.07338 17.8331 9.2588 17.8547 9.32631C17.7848 9.50348 17.7088 9.72704 17.5555 9.83936C17.462 9.90686 17.3454 9.93358 17.2321 9.91334C17.1841 9.90513 17.1 9.89375 17.0578 9.8717C16.8214 9.74836 13.3834 6.05678 13.1157 5.66712C14.2514 4.62862 15.3642 3.42651 16.5128 2.3943C17.0485 1.91282 18.025 0.783088 18.5907 0.481806Z" fill="url(#paint2_linear_64_291)"/>
<path d="M5.0932 0.0102276C5.98695 -0.110583 6.67438 0.867205 7.20646 1.44825C7.5301 1.80162 7.79143 2.08629 8.16784 2.39522C6.62289 3.90903 5.0558 5.39991 3.46709 6.86733C3.30105 7.01823 3.13381 7.16781 2.96536 7.31597C2.48966 6.71651 1.04129 5.42947 0.859628 4.79976C0.763575 4.46669 0.739912 3.97042 0.918486 3.65952C1.19928 3.17073 3.89639 0.627073 4.42511 0.26794C4.6277 0.130314 4.85989 0.0716184 5.0932 0.0102276ZM2.07485 4.33442C2.28918 4.54707 2.90086 5.22547 3.11155 5.32013C3.30782 5.07328 3.55386 4.84823 3.78616 4.63413C4.59163 3.89165 5.37311 3.10765 6.19115 2.38041C6.05526 2.2213 5.33527 1.43891 5.19446 1.39148C4.2107 2.28016 3.04136 3.40374 2.07485 4.33442Z" fill="url(#paint3_linear_64_291)"/>
<path d="M22.5613 17.9307L22.6356 17.9591C23.3133 19.9784 23.905 22.0694 24.5592 24.1005C24.5943 24.2619 24.6163 24.4842 24.5514 24.6402C24.1253 25.6666 22.7757 24.694 22.0601 24.5005C21.7217 24.409 21.1482 24.1433 20.8274 24.0111C20.4849 23.8883 17.6228 22.8339 17.5171 22.6937L20.749 19.6243C21.3186 19.0866 21.9775 18.4309 22.5613 17.9307ZM19.1281 22.4113L20.4104 22.8735C20.8007 23.0292 21.1919 23.1824 21.5841 23.3329C21.9895 22.9654 22.6019 22.3133 22.9759 22.023C22.8114 21.6458 22.2853 19.7191 22.1544 19.6222C21.7312 19.9366 21.4338 20.2671 21.055 20.6185C20.4329 21.1955 19.7733 21.872 19.1281 22.4113Z" fill="url(#paint4_linear_64_291)"/>
<path d="M8.59989 3.00403C8.78899 3.01517 9.72226 4.13111 9.95337 4.35901C9.71998 4.62883 9.21561 5.07872 8.94703 5.33386L7.09346 7.08805C6.40679 7.72806 5.51408 8.6513 4.82212 9.2257C4.73396 9.19324 3.66772 8.01466 3.47461 7.84034L6.91545 4.57509C7.40656 4.11055 8.09119 3.41602 8.59989 3.00403Z" fill="url(#paint5_linear_64_291)"/>
<path d="M19.0427 4.54536C20.1098 4.36839 21.1175 5.09442 21.293 6.16666C21.4686 7.23891 20.7454 8.25097 19.6781 8.42674C18.6117 8.60234 17.6055 7.87647 17.4301 6.80507C17.2547 5.73371 17.9765 4.72221 19.0427 4.54536ZM18.5747 6.47853C18.5726 6.63784 18.6187 6.79405 18.7067 6.92657C18.8973 7.21337 19.2514 7.34238 19.5807 7.24503C19.9931 7.12309 20.2311 6.69038 20.1144 6.27464C19.9976 5.85891 19.5696 5.61495 19.1546 5.72764C18.816 5.81952 18.5792 6.12611 18.5747 6.47853Z" fill="url(#paint6_linear_64_291)"/>
<defs>
<linearGradient id="paint0_linear_64_291" x1="13.6131" y1="4.93433" x2="13.6131" y2="22.0121" gradientUnits="userSpaceOnUse">
<stop stop-color="#4A750C"/>
<stop offset="1" stop-color="#8BDB16"/>
</linearGradient>
<linearGradient id="paint1_linear_64_291" x1="6.51305" y1="12.5828" x2="6.51305" y2="25.7751" gradientUnits="userSpaceOnUse">
<stop stop-color="#4A750C"/>
<stop offset="1" stop-color="#8BDB16"/>
</linearGradient>
<linearGradient id="paint2_linear_64_291" x1="19.3675" y1="0.473389" x2="19.3675" y2="13.0813" gradientUnits="userSpaceOnUse">
<stop stop-color="#4A750C"/>
<stop offset="1" stop-color="#8BDB16"/>
</linearGradient>
<linearGradient id="paint3_linear_64_291" x1="4.47674" y1="0" x2="4.47674" y2="7.31597" gradientUnits="userSpaceOnUse">
<stop stop-color="#4A750C"/>
<stop offset="1" stop-color="#8BDB16"/>
</linearGradient>
<linearGradient id="paint4_linear_64_291" x1="21.055" y1="17.9307" x2="21.055" y2="25.1032" gradientUnits="userSpaceOnUse">
<stop stop-color="#4A750C"/>
<stop offset="1" stop-color="#8BDB16"/>
</linearGradient>
<linearGradient id="paint5_linear_64_291" x1="6.71399" y1="3.00403" x2="6.71399" y2="9.2257" gradientUnits="userSpaceOnUse">
<stop stop-color="#4A750C"/>
<stop offset="1" stop-color="#8BDB16"/>
</linearGradient>
<linearGradient id="paint6_linear_64_291" x1="19.3615" y1="4.5188" x2="19.3615" y2="8.45293" gradientUnits="userSpaceOnUse">
<stop stop-color="#4A750C"/>
<stop offset="1" stop-color="#8BDB16"/>
</linearGradient>
</defs>
</svg>
