<svg width="11" height="19" viewBox="0 0 11 19" fill="none" xmlns="http://www.w3.org/2000/svg">
<path d="M1.85506 14.075V14.95H3.03006V15.505H1.85506V16.43H3.18006V17H1.15506V13.505H3.18006V14.075H1.85506ZM3.63619 15.605C3.63619 15.325 3.69119 15.0767 3.80119 14.86C3.91452 14.6433 4.06786 14.4767 4.26119 14.36C4.45452 14.2433 4.66952 14.185 4.90619 14.185C5.08619 14.185 5.25786 14.225 5.42119 14.305C5.58452 14.3817 5.71452 14.485 5.81119 14.615V13.3H6.52119V17H5.81119V16.59C5.72452 16.7267 5.60286 16.8367 5.44619 16.92C5.28952 17.0033 5.10786 17.045 4.90119 17.045C4.66786 17.045 4.45452 16.985 4.26119 16.865C4.06786 16.745 3.91452 16.5767 3.80119 16.36C3.69119 16.14 3.63619 15.8883 3.63619 15.605ZM5.81619 15.615C5.81619 15.445 5.78286 15.3 5.71619 15.18C5.64952 15.0567 5.55952 14.9633 5.44619 14.9C5.33286 14.8333 5.21119 14.8 5.08119 14.8C4.95119 14.8 4.83119 14.8317 4.72119 14.895C4.61119 14.9583 4.52119 15.0517 4.45119 15.175C4.38452 15.295 4.35119 15.4383 4.35119 15.605C4.35119 15.7717 4.38452 15.9183 4.45119 16.045C4.52119 16.1683 4.61119 16.2633 4.72119 16.33C4.83452 16.3967 4.95452 16.43 5.08119 16.43C5.21119 16.43 5.33286 16.3983 5.44619 16.335C5.55952 16.2683 5.64952 16.175 5.71619 16.055C5.78286 15.9317 5.81619 15.785 5.81619 15.615ZM7.55986 13.9C7.43653 13.9 7.3332 13.8617 7.24986 13.785C7.16986 13.705 7.12986 13.6067 7.12986 13.49C7.12986 13.3733 7.16986 13.2767 7.24986 13.2C7.3332 13.12 7.43653 13.08 7.55986 13.08C7.6832 13.08 7.78486 13.12 7.86486 13.2C7.9482 13.2767 7.98986 13.3733 7.98986 13.49C7.98986 13.6067 7.9482 13.705 7.86486 13.785C7.78486 13.8617 7.6832 13.9 7.55986 13.9ZM7.90486 14.23V17H7.20486V14.23H7.90486ZM9.41146 14.805V16.145C9.41146 16.2383 9.43313 16.3067 9.47646 16.35C9.52313 16.39 9.5998 16.41 9.70646 16.41H10.0315V17H9.59146C9.00146 17 8.70646 16.7133 8.70646 16.14V14.805H8.37646V14.23H8.70646V13.545H9.41146V14.23H10.0315V14.805H9.41146Z" fill="#3E6D30"/>
<g clip-path="url(#clip0_487_276)">
<path d="M8.19459 1.35205C8.24208 1.3708 9.57417 2.70063 9.65962 2.81604C9.62982 2.87821 9.19293 3.29834 9.12145 3.36979L7.62379 4.86691L6.78458 5.70728C6.65572 5.83679 6.48476 6.017 6.34867 6.13082C6.26857 6.19782 5.9424 6.2367 5.81373 6.26736C5.58038 6.30949 5.34811 6.3603 5.11563 6.40709C5.00067 6.43022 4.87475 6.46702 4.75767 6.46843C4.69872 6.46913 4.6499 6.44749 4.60835 6.40558C4.56689 6.36374 4.55397 6.31895 4.55472 6.26101C4.55623 6.1441 4.84007 4.74858 4.87561 4.6858C4.93483 4.58118 5.10411 4.43909 5.19351 4.34969L5.75325 3.78987L8.19459 1.35205Z" fill="#3E6D30"/>
<path d="M1 2.73584C1.03974 2.6688 1.05824 2.54264 1.09125 2.46222C1.22846 2.12798 1.54431 1.8211 1.90248 1.73385C2.21513 1.6577 2.64073 1.68521 2.97195 1.68514L4.18416 1.68509L5.07941 1.68526C5.25135 1.68531 5.64663 1.6615 5.78744 1.74059C5.88434 1.79467 5.95531 1.88552 5.98433 1.99262C6.0128 2.09988 5.99783 2.21404 5.94267 2.31034C5.76966 2.61087 5.39147 2.51168 5.10199 2.52926C4.9843 2.53641 4.84829 2.5293 4.72785 2.52931L2.81119 2.52915C2.58271 2.52894 2.34271 2.51702 2.11736 2.54591C2.04902 2.55467 1.92749 2.65287 1.89801 2.71179C1.80051 2.9067 1.83039 3.2126 1.83049 3.42699L1.83102 4.25312L1.83132 6.77343L1.83061 8.12316C1.83026 8.35198 1.81482 8.66137 1.85088 8.8849C1.8806 9.06907 2.10886 9.19332 2.28166 9.18518C2.62136 9.18788 2.95893 9.18564 3.29754 9.18541L5.29717 9.18545L7.15036 9.18584L7.7163 9.18589C8.26647 9.18562 8.52229 9.20047 8.50137 8.53679C8.49467 8.32452 8.50004 8.07673 8.50004 7.8614L8.50041 6.06154C8.50039 5.90363 8.48513 5.42215 8.52619 5.29684C8.56735 5.16971 8.66916 5.07145 8.79768 5.03482C8.90813 5.00355 9.02656 5.01872 9.12559 5.07679C9.22155 5.13258 9.29064 5.22507 9.31689 5.33292C9.34313 5.43843 9.33113 5.79182 9.33112 5.92261L9.33138 7.08153L9.3314 8.2771C9.33136 8.45126 9.34028 8.766 9.32213 8.92221C9.30143 9.09828 9.24243 9.26767 9.14931 9.4185C9.02206 9.62542 8.82509 9.80585 8.60121 9.90702C8.54535 9.93221 8.4077 9.97157 8.36464 9.99999H1.96806C1.89991 9.96171 1.79592 9.94012 1.72539 9.90614C1.45193 9.7743 1.23774 9.55743 1.10687 9.28391C1.0624 9.19096 1.04559 9.04439 1 8.96441V2.73584Z" fill="#3E6D30"/>
<path d="M10.1217 2.3749C9.62942 1.90871 9.14604 1.39659 8.66938 0.91421C8.6414 0.88589 8.86775 0.674091 8.89351 0.649244C9.04271 0.505395 9.18236 0.346729 9.34519 0.218198C9.87131 -0.176934 10.6466 0.0398698 10.912 0.63742C10.9482 0.719023 10.971 0.82486 11.0003 0.911732V1.21722C10.9623 1.29393 10.9402 1.44261 10.8902 1.52927C10.7055 1.84924 10.3674 2.09423 10.1217 2.3749Z" fill="#3E6D30"/>
</g>
<defs>
<clipPath id="clip0_487_276">
<rect width="10" height="10" fill="white" transform="translate(1)"/>
</clipPath>
</defs>
</svg>
