<svg width="17" height="17" viewBox="0 0 17 17" fill="none" xmlns="http://www.w3.org/2000/svg">
<path d="M8.04688 0C8.35637 0.005751 8.62367 0.0704403 8.88379 0.246094C9.19094 0.45532 9.40263 0.777599 9.47266 1.14258C9.54711 1.51799 9.4678 1.90755 9.25195 2.22363C9.12337 2.41027 8.81694 2.69864 8.6416 2.87402L7.62988 3.88477L6.07617 5.4375C5.75146 5.76263 5.32454 6.22255 4.95996 6.48145C4.55467 6.7682 4.09234 6.96448 3.60449 7.05664C3.33366 7.10659 2.85685 7.17893 2.63281 7.00488C2.51034 6.90955 2.40858 6.79472 2.38867 6.63672C2.32085 6.09793 2.56406 5.1769 2.87598 4.74121C2.41596 4.7285 1.94892 4.74558 1.48828 4.74121C1.38782 4.74026 1.28976 4.74746 1.18945 4.73535L1.18848 15.4219L8.90527 15.4229L8.90723 7.86035C8.90537 7.63865 8.9079 7.494 9.05078 7.31738C9.30173 7.00503 9.8267 7.06242 10.0166 7.41406C10.1251 7.61558 10.0959 7.87272 10.0957 8.09863L10.0947 8.85742V11.3633L10.0957 14.4844V15.4932C10.0957 15.6649 10.1026 15.8951 10.0908 16.0615C10.0834 16.1799 10.039 16.2931 9.96387 16.3848C9.72415 16.6753 9.39771 16.6144 9.05664 16.6143H1.19141C0.981963 16.6148 0.770653 16.6196 0.5625 16.6104C0.267026 16.5971 0.0101877 16.3455 0.00488281 16.0469C0.000510745 15.8007 0.000957313 15.5558 0.000976562 15.3096V13.915L0.00195312 9.625L0.000976562 5.91113V4.73242C0.000930176 4.53145 -0.00304004 4.32023 0.00488281 4.12012C0.0118543 3.96553 0.057335 3.85531 0.15625 3.74023C0.345062 3.52058 0.612208 3.54776 0.878906 3.54785H1.39941L3.02148 3.54883C3.29278 3.54889 3.63923 3.55787 3.9043 3.54492C4.16879 3.30008 4.47104 2.98111 4.72852 2.72363L6.77539 0.676758C7.18665 0.265029 7.42472 0.0227573 8.04688 0ZM13.6113 10.083C13.8602 10.0715 14.1246 10.2422 14.3447 10.3525L15.1934 10.7783L15.9404 11.1504C16.0597 11.2098 16.2981 11.3212 16.3965 11.3955C16.5188 11.4874 16.5988 11.6255 16.6182 11.7773C16.6347 11.905 16.6271 12.1797 16.627 12.3223V14.335C16.627 14.4851 16.6349 14.7689 16.6182 14.9062C16.6068 15.0072 16.5676 15.103 16.5059 15.1836C16.4605 15.2439 16.4042 15.2954 16.3398 15.335C16.2333 15.4004 16.0523 15.4842 15.9346 15.543L15.2285 15.8965L14.3672 16.3281C14.1897 16.4168 13.8976 16.5849 13.7119 16.6104C13.6416 16.6131 13.5248 16.607 13.4609 16.5781C13.2967 16.5037 13.1292 16.4177 12.9678 16.3369L12.0381 15.8711L11.333 15.5205C11.0272 15.3684 10.7144 15.2606 10.6934 14.8721C10.6851 14.7202 10.6884 14.5669 10.6885 14.415L10.6895 13.4932L10.6885 12.3936C10.6884 12.1784 10.6719 11.8807 10.7168 11.6787C10.7814 11.3888 11.1826 11.2442 11.4189 11.127L12.2031 10.7354L13.0156 10.3291C13.2105 10.2316 13.3954 10.1145 13.6113 10.083ZM11.8838 12.8262C11.8715 12.8963 11.8733 13.3305 11.876 13.4326C11.8847 13.7634 11.8646 14.1363 11.8779 14.4619C12.255 14.657 12.6801 14.8744 13.0635 15.0537L13.0645 13.9844C13.0645 13.8295 13.0719 13.563 13.0596 13.418C12.6857 13.2135 12.2663 13.0203 11.8838 12.8262ZM15.417 12.835C15.0277 13.0227 14.6432 13.2284 14.2568 13.415C14.2461 13.5377 14.2414 15.0021 14.2617 15.0352C14.2649 15.0403 14.2688 15.0433 14.2734 15.0469L14.2842 15.04C14.5241 14.9004 14.8445 14.7712 15.0947 14.6348C15.1873 14.5843 15.2956 14.5411 15.3857 14.4844C15.402 14.4742 15.4274 14.4534 15.4287 14.4365C15.4414 14.2773 15.4487 12.8964 15.4316 12.8408L15.417 12.835ZM6.84863 12.4541H7.41895C7.64345 12.4541 7.88097 12.4313 8.07129 12.5713C8.19895 12.6657 8.28368 12.8077 8.30566 12.9648C8.35436 13.3107 8.11072 13.5969 7.77148 13.6406C7.58342 13.6492 7.37732 13.6454 7.1875 13.6455H6.23633L5.66406 13.6465C5.53128 13.6466 5.38638 13.6539 5.25195 13.6328C4.68397 13.5435 4.56703 12.781 5.0752 12.5186C5.15188 12.479 5.21197 12.4691 5.29785 12.458C5.7787 12.4387 6.36103 12.454 6.84863 12.4541ZM3.51758 11.2705C3.85429 11.257 4.14308 11.491 4.1543 11.834C4.16284 12.1014 3.93376 12.4231 3.8252 12.6631C3.72619 12.882 3.60145 13.1052 3.49609 13.3193C3.40593 13.5025 3.18512 13.6479 2.98047 13.6426C2.76372 13.6434 2.64135 13.5596 2.49316 13.415C2.37217 13.2919 2.25004 13.1699 2.12695 13.0488C2.04793 12.9702 1.9238 12.8526 1.86719 12.7607C1.82393 12.6906 1.79703 12.6112 1.78809 12.5293C1.76956 12.365 1.8116 12.2071 1.91602 12.0781C2.01227 11.9586 2.15284 11.8827 2.30566 11.8682C2.51382 11.8465 2.6532 11.9137 2.80957 12.04C3.00679 11.6697 3.05059 11.339 3.51758 11.2705ZM13.6367 11.3496C13.3149 11.5048 12.927 11.7205 12.6113 11.8594C12.7468 11.9286 13.5943 12.3768 13.6797 12.374C13.9109 12.2565 14.1425 12.1395 14.375 12.0244C14.4548 11.9845 14.6269 11.9056 14.6953 11.8633C14.5736 11.7891 13.7223 11.3502 13.6367 11.3496ZM6.84863 8.8916H7.41895C7.64346 8.8916 7.88097 8.86881 8.07129 9.00879C8.19896 9.10315 8.28368 9.24516 8.30566 9.40234C8.35426 9.74755 8.11112 10.034 7.77246 10.0781C7.58271 10.0867 7.37415 10.0829 7.18262 10.083H6.2334L5.65918 10.084C5.52197 10.0841 5.38856 10.0869 5.25195 10.0703C5.00454 10.0401 4.79198 9.82311 4.75781 9.57617C4.73515 9.41205 4.77879 9.24541 4.87988 9.11426C4.99168 8.97111 5.12369 8.91814 5.29785 8.89551C5.77867 8.87622 6.36106 8.8915 6.84863 8.8916ZM3.5166 7.70801C3.68065 7.7029 3.83865 7.745 3.96191 7.8584C4.08081 7.96707 4.15096 8.11929 4.15527 8.28027C4.16243 8.52695 3.93517 8.86528 3.83105 9.08887C3.7279 9.31041 3.60487 9.539 3.49609 9.75684C3.40473 9.93975 3.1866 10.0854 2.98047 10.0801C2.76403 10.0809 2.64127 9.99706 2.49316 9.85254C2.37209 9.72916 2.25027 9.60651 2.12695 9.48535C2.04804 9.40677 1.92369 9.2899 1.86719 9.19824C1.82394 9.12813 1.79702 9.04872 1.78809 8.9668C1.76957 8.80244 1.81167 8.64458 1.91602 8.51562C2.01228 8.39605 2.15281 8.32026 2.30566 8.30566C2.51387 8.28414 2.65315 8.35118 2.80957 8.47754C3.00457 8.11091 3.05202 7.77653 3.5166 7.70801ZM15.9971 1.17773C16.0809 1.17311 16.1779 1.18753 16.2559 1.21875C16.4023 1.27887 16.5188 1.39459 16.5811 1.54004C16.6406 1.68166 16.6379 1.84854 16.5801 1.99023C16.5305 2.11159 16.4359 2.20488 16.3447 2.2959C16.2153 2.42514 16.0858 2.55449 15.9561 2.68359L15.0615 3.57715L14.0449 4.59473C13.861 4.77896 13.6774 4.96486 13.4912 5.14648C13.1082 5.51996 12.7388 5.23811 12.3545 5.0459L11.3984 4.56738C11.2163 4.47587 10.992 4.35663 10.8066 4.27637C10.6051 4.46119 10.3862 4.69086 10.1904 4.88672L9.11426 5.96387C9.19787 6.00317 9.26093 6.04079 9.32812 6.10645C9.43788 6.21325 9.49935 6.36058 9.49805 6.51367C9.49732 6.91764 9.16051 7.14112 8.79102 7.11426C8.70262 7.10781 8.58105 7.11515 8.49023 7.11523L7.77441 7.11426C7.43509 7.10569 7.15011 6.92117 7.13086 6.55273C7.11727 6.29267 7.12739 6.02165 7.12598 5.76074C7.1251 5.60145 7.11223 5.35025 7.14258 5.20117C7.16254 5.10381 7.20677 5.01293 7.27148 4.9375C7.37267 4.82134 7.51625 4.7501 7.66992 4.73926C7.88184 4.72417 8.06407 4.81648 8.19434 4.98047C8.22957 5.02483 8.24186 5.06958 8.27441 5.09766C8.31218 5.09216 8.34398 5.05322 8.37012 5.02539C8.49459 4.89302 8.62437 4.76606 8.75293 4.6377L9.75586 3.63477C9.90597 3.48436 10.2755 3.08183 10.4463 3.00684C10.5606 2.95636 10.6879 2.94443 10.8096 2.97266C10.9559 3.00628 11.2313 3.15615 11.3779 3.22949L12.3926 3.73633C12.5385 3.80938 12.7966 3.94848 12.9404 4.00488L12.9521 4.00977C13.0986 3.84082 13.3465 3.60661 13.5117 3.44141L14.541 2.41211L15.2686 1.68359C15.3729 1.57909 15.4779 1.47389 15.584 1.37109C15.7189 1.24042 15.811 1.19857 15.9971 1.17773ZM7.99805 1.18457C7.94242 1.20837 7.90904 1.23467 7.86621 1.27637C7.61431 1.52161 7.36465 1.7737 7.11621 2.02246L5.74512 3.39453L4.68848 4.4502C4.51277 4.626 4.25711 4.86739 4.09863 5.05078C3.9465 5.22961 3.82366 5.43187 3.73535 5.64941C3.71371 5.70388 3.6947 5.75964 3.67676 5.81543C3.73022 5.79335 3.87813 5.73692 3.91895 5.71289C4.11335 5.625 4.29335 5.50758 4.45312 5.36621C4.63235 5.20578 4.84092 4.98716 5.01367 4.81445L5.98828 3.83984L7.44336 2.38574C7.69067 2.13847 7.939 1.89067 8.18555 1.64258C8.21681 1.60616 8.27171 1.55535 8.29199 1.51172C8.3172 1.4569 8.32155 1.3799 8.29492 1.3252C8.23635 1.20496 8.12244 1.17082 7.99805 1.18457Z" fill="url(#paint0_linear_69_616)"/>
<defs>
<linearGradient id="paint0_linear_69_616" x1="8.31446" y1="0" x2="8.31446" y2="16.6196" gradientUnits="userSpaceOnUse">
<stop stop-color="#4A750C"/>
<stop offset="1" stop-color="#8BDB16"/>
</linearGradient>
</defs>
</svg>
