<svg width="27" height="27" viewBox="0 0 27 27" fill="none" xmlns="http://www.w3.org/2000/svg">
<path d="M19.1242 5.83058C21.2046 5.76396 22.7342 6.02243 24.6832 6.69687C21.9064 7.95084 19.9921 10.4951 19.0615 13.3468C18.8898 13.8727 18.7957 14.3531 18.6477 14.8746C18.4397 15.5943 18.1415 16.2847 17.7601 16.9295C15.9789 19.9016 12.9405 21.2135 9.81518 19.3337C10.7161 16.376 12.7573 13.4649 14.905 11.2489C15.3463 10.7935 15.8065 10.4677 16.2685 10.0553C15.9441 10.1746 15.3208 10.6153 15.0228 10.8106C13.0058 12.1325 11.5365 13.5857 10.237 15.6245C9.00045 17.6155 8.25268 19.8707 7.56232 22.0966C7.26637 23.0494 6.97651 24.0042 6.69276 24.9607C4.81729 22.8853 2.99969 20.6882 1.11816 18.6291C1.55854 18.3895 2.82917 17.8035 3.29708 17.6212C3.41754 17.8085 4.05673 18.4098 4.23447 18.5936C4.99423 19.3789 5.84465 20.154 6.59157 20.9489C7.08682 19.8595 7.63029 18.5278 8.0851 17.4168C7.41884 14.5076 7.55519 11.7918 9.6984 9.49239C12.0977 6.91824 15.7131 5.97908 19.1242 5.83058Z" fill="url(#paint0_linear_64_72)"/>
<path d="M2.11279 6.97485C2.89441 6.7706 3.69416 7.23903 3.89795 8.02075C4.10165 8.80257 3.63208 9.6018 2.8501 9.80493C2.06892 10.0078 1.27138 9.53907 1.06787 8.75806C0.864558 7.97709 1.332 7.1789 2.11279 6.97485ZM2.11475 7.58911C0.93837 8.1035 1.84739 9.36842 2.854 9.1936C3.96686 8.68494 3.24466 7.47243 2.11475 7.58911Z" fill="url(#paint1_linear_64_72)"/>
<path d="M1.18164 10.3684C1.97183 10.1821 2.7626 10.6754 2.94238 11.467C3.12207 12.2587 2.62221 13.0448 1.8291 13.218C1.04528 13.3892 0.269609 12.8968 0.0917969 12.1145C-0.0858681 11.3322 0.400887 10.5527 1.18164 10.3684ZM1.30566 11.0159C0.0860027 11.3179 0.502304 12.6644 1.74219 12.5569C2.87461 12.3046 2.60456 10.9545 1.30566 11.0159Z" fill="url(#paint2_linear_64_72)"/>
<path d="M12.4092 23.8746C14.177 23.7616 14.5401 26.5309 12.6055 26.8512C10.6978 26.9145 10.5499 24.0706 12.4092 23.8746ZM12.332 24.441C11.4743 24.7593 11.4512 26.3964 12.6816 26.2711C13.5782 25.8555 13.4544 24.3249 12.332 24.441Z" fill="url(#paint3_linear_64_72)"/>
<path d="M15.5596 23.6578C17.1822 23.6353 17.6263 25.9894 16.1328 26.5455C16.0177 26.5885 15.863 26.6147 15.7402 26.6383C13.9757 26.6822 13.54 23.8869 15.5596 23.6578ZM15.4326 24.2233C14.3759 24.6189 14.8949 26.211 15.8096 26.0612C16.667 25.8076 16.5586 24.6899 15.8887 24.2848C15.7626 24.2084 15.58 24.2116 15.4326 24.2233Z" fill="url(#paint4_linear_64_72)"/>
<path d="M16.3984 0.399475C16.7301 0.455243 17.0548 0.599096 17.3701 0.704163C18.6621 1.13447 18.4944 2.98217 17.3135 3.43951C16.8209 3.59357 16.0131 3.35623 15.5762 3.09772C15.3767 2.97819 15.6296 2.33788 15.6992 2.17584C15.8832 1.74722 16.0913 0.723409 16.3984 0.399475ZM16.7207 1.07233C16.5546 1.58278 16.3526 2.2524 16.1523 2.74615C16.4765 2.84763 16.715 2.96962 17.0557 2.8985C17.5061 2.67703 17.776 2.04761 17.5586 1.57721C17.4141 1.26511 17.0218 1.17225 16.7207 1.07233Z" fill="url(#paint5_linear_64_72)"/>
<path d="M4.1665 4.16907C5.06835 4.22895 5.91609 5.01778 5.65283 5.96204C5.52816 6.40904 4.99443 7.05949 4.59131 7.28235C4.48274 7.21406 4.39911 7.14545 4.29932 7.06555C3.96382 6.76118 2.71829 5.77666 2.59131 5.47668C2.58419 5.37353 2.6766 5.21328 2.74463 5.13977C3.23348 4.61141 3.41562 4.25497 4.1665 4.16907ZM3.9624 4.78821C3.68787 4.91288 3.47983 5.13781 3.28857 5.36731C3.70395 5.73006 4.122 6.09037 4.5415 6.44836C4.5643 6.46793 4.59855 6.5106 4.62158 6.49426C5.53523 5.84375 4.9332 4.72452 3.9624 4.78821Z" fill="url(#paint6_linear_64_72)"/>
<path d="M18.3213 22.7339C18.9788 22.6798 19.4864 22.9963 19.7529 23.5894C20.2886 24.7814 19.5316 25.2988 18.6006 25.7261C18.4478 25.7875 18.3283 25.8559 18.1729 25.7964C18.0706 25.6898 17.962 25.4806 17.9004 25.3442C17.6204 24.7247 17.2514 24.1078 17.0381 23.4644C16.9409 23.1709 18.125 22.7749 18.3213 22.7339ZM18.2949 23.3257C18.0876 23.3966 17.9239 23.4569 17.7344 23.5737C17.8243 23.7632 18.4201 25.0868 18.5176 25.1333C18.5897 25.113 18.6016 25.1093 18.667 25.0737C18.7654 25.0251 18.9191 24.9546 19.001 24.8872C19.6458 24.3558 19.1126 23.2365 18.2949 23.3257Z" fill="url(#paint7_linear_64_72)"/>
<path d="M25.1973 12.8685C26.4722 12.8225 26.8561 13.757 26.6914 14.8353C26.6683 14.9866 26.6737 15.2107 26.5479 15.3177C26.3079 15.4089 25.7465 15.3353 25.4736 15.3109C25.1435 15.2846 24.1359 15.2468 23.8936 15.1244C23.8297 15.0559 23.7995 14.9629 23.7998 14.8685C23.8034 13.8221 23.981 12.9638 25.1973 12.8685ZM25.083 13.515C24.4158 13.6161 24.4108 14.073 24.3682 14.6195C24.7629 14.648 25.1613 14.6674 25.5547 14.6986L26.1289 14.7406C26.1895 13.9279 26.0636 13.4171 25.083 13.515Z" fill="url(#paint8_linear_64_72)"/>
<path d="M10.8481 0.256775C11.2769 0.21712 11.6693 0.271584 11.8579 0.705017C12.1079 1.27982 11.8225 1.65218 11.3188 1.87787C11.5727 2.05309 12.5659 2.56613 12.1421 2.92963C11.8706 3.1622 11.3237 2.58372 11.1118 2.40033L10.6294 1.9931C10.7051 2.30059 10.9897 3.13291 10.6099 3.25873C10.4244 3.36952 10.2073 3.07975 10.1899 2.91498C10.1515 2.54527 9.70954 0.746568 9.82861 0.523376C10.0179 0.350376 10.5864 0.296337 10.8481 0.256775ZM10.8433 0.826111C10.7178 0.843503 10.5772 0.866917 10.4526 0.879822C10.4857 1.14682 10.519 1.33923 10.5747 1.60248C10.688 1.58089 10.8153 1.55886 10.9263 1.53314C11.5007 1.39372 11.3937 0.761888 10.8433 0.826111Z" fill="url(#paint9_linear_64_72)"/>
<path d="M23.0098 18.1638C23.3614 18.1254 23.7068 18.1907 23.9307 18.4988C24.1255 18.7665 24.0687 19.0318 24.0146 19.3347C24.2833 19.2539 24.5647 19.1955 24.835 19.1345C25.4095 18.9956 25.5354 19.6346 24.9404 19.7302C24.51 19.7994 24.0848 19.8865 23.6465 19.9226C23.8285 20.0468 24.1773 20.2331 24.3809 20.3513C24.4268 20.3791 24.4734 20.409 24.5117 20.447C24.5763 20.5112 24.5934 20.605 24.5869 20.6931C24.5806 20.7773 24.5501 20.8598 24.4795 20.9109C24.4183 20.955 24.32 20.9649 24.248 20.946C24 20.8803 22.0978 19.7711 22.0166 19.5974C21.9894 19.5376 22.0042 19.4466 22.0254 19.3875C22.0662 19.274 22.1463 19.1725 22.2061 19.0681C22.4186 18.697 22.6024 18.3486 23.0098 18.1638ZM23.126 18.7761C22.8928 18.9501 22.8181 19.1127 22.666 19.3601C22.8591 19.464 23.0501 19.572 23.2383 19.6843L23.2988 19.6931C23.4364 19.5855 23.5552 19.2365 23.5957 19.0662C23.4593 18.9015 23.3586 18.7864 23.126 18.7761Z" fill="url(#paint10_linear_64_72)"/>
<path d="M7.94407 1.17958C8.16055 1.14133 8.56208 1.15006 8.63142 1.40885C8.74818 1.82771 8.08926 1.73359 7.83475 1.7862C6.8401 1.99181 7.10895 3.18254 7.8188 3.55608C8.24961 3.78275 9.00768 3.28334 8.80107 2.7505C8.60595 2.60705 7.87536 3.17425 7.98627 2.48809C8.0097 2.3432 8.70711 2.04136 8.87703 1.96115C9.58805 1.89622 9.80706 3.86421 8.30584 4.15045C7.93841 4.22364 7.55702 4.14483 7.24873 3.93199C6.88812 3.68059 6.6533 3.27073 6.58375 2.83998C6.52189 2.4673 6.61408 2.0855 6.83917 1.7821C7.1149 1.40924 7.50005 1.24894 7.94407 1.17958Z" fill="url(#paint11_linear_64_72)"/>
<path d="M21.5507 20.229C22.0755 20.1711 22.3514 20.5212 21.8111 20.7706C21.5148 20.9074 21.0938 21.072 21.009 21.4356C20.8971 21.9161 21.4167 22.4733 21.8581 22.5834C22.0505 22.6334 22.2552 22.6005 22.4226 22.4929C22.8469 22.2257 22.8387 21.815 22.5832 21.4291C22.4028 21.6199 22.2258 21.8534 21.9353 21.8281C21.489 21.5745 22.3432 20.8178 22.5976 20.7126C22.6245 20.7205 22.6514 20.7293 22.6783 20.7388C22.9278 20.8285 23.0988 21.0828 23.2102 21.3125C23.5467 22.0077 23.2143 22.7739 22.512 23.084C22.1715 23.2332 21.785 23.2384 21.4406 23.0984C21.1558 22.9848 20.8468 22.747 20.6797 22.4904C20.0532 21.5288 20.5859 20.6154 21.5507 20.229Z" fill="url(#paint12_linear_64_72)"/>
<path d="M13.8965 0.000488281C14.085 -0.0059783 14.1607 0.0502686 14.3125 0.148926C14.4548 0.419146 15.0919 2.61085 15.0596 2.85693C15.0109 2.95049 14.9478 2.99073 14.8477 3.02197C14.5074 3.12792 14.4462 2.62513 14.4062 2.41162L13.9092 2.37256C13.7027 2.37062 13.4411 2.34104 13.2314 2.32275C13.0526 3.23071 12.3584 2.87093 12.5596 2.4292C12.8964 1.68955 13.233 0.881424 13.6416 0.17627C13.6863 0.0991092 13.8164 0.0388374 13.8965 0.000488281ZM13.9316 0.693848C13.7848 1.03094 13.6094 1.44997 13.4824 1.79443C13.549 1.79701 13.7271 1.79967 13.7852 1.80713C13.9423 1.81778 14.1004 1.83045 14.2578 1.8335C14.2114 1.65224 14.0185 0.771813 13.9316 0.693848Z" fill="url(#paint13_linear_64_72)"/>
<path d="M25.8403 16.1571C26.0689 16.1413 26.6686 16.1483 26.354 16.6005C26.2458 16.7559 25.8971 16.7368 25.7114 16.7303C25.6559 17.0051 25.4799 17.5432 25.394 17.8329L25.4263 17.8505C25.6084 17.9486 25.7802 18.0351 25.8335 18.2538C25.9158 18.5903 25.5846 18.6953 25.3452 18.5165C25.1763 18.3901 25.0122 18.2576 24.8413 18.1327C24.4424 17.8306 24.0285 17.5205 23.6343 17.2167C22.9059 16.6554 23.3238 16.288 24.0542 16.2489C24.644 16.2174 25.2497 16.1866 25.8403 16.1571ZM24.4644 16.7567C24.2522 16.7643 24.0997 16.7651 23.8862 16.7557C24.1849 16.9764 24.4654 17.1837 24.7769 17.3876L24.8638 17.4354C25.012 17.3734 25.0824 16.9125 25.1294 16.744C24.9077 16.7531 24.6858 16.7572 24.4644 16.7567Z" fill="url(#paint14_linear_64_72)"/>
<path d="M19.6658 1.78644C19.8988 1.79269 20.9317 2.40532 20.928 2.59144C20.9136 3.30942 20.1561 2.66165 19.9058 2.47892C19.7791 2.64686 19.678 2.80314 19.5637 2.97904C19.8077 3.11317 20.3769 3.42539 20.27 3.75996C20.0333 4.04254 19.4592 3.57317 19.2609 3.43064C19.2074 3.53278 19.1511 3.61806 19.0887 3.71474L18.9266 3.97897C19.1064 4.06695 19.6664 4.38146 19.7002 4.56087C19.7607 4.88149 19.4257 4.98034 19.1713 4.78466C18.9483 4.61316 18.2896 4.30906 18.2173 4.02947C18.2754 3.76499 19.4269 2.00313 19.6658 1.78644Z" fill="url(#paint15_linear_64_72)"/>
<path d="M26.1514 10.4428C26.2569 10.4291 26.5167 10.4105 26.5306 10.579C26.5496 10.815 26.8358 11.9749 26.5143 12.0294C26.0941 12.1007 24.2125 12.4014 23.9138 12.2536C23.7562 12.051 23.7018 11.1188 23.7141 10.8437C24.3223 10.3445 24.3 11.3333 24.3207 11.6722L24.9148 11.6374C24.898 11.4824 24.7909 10.8359 24.9137 10.7357C25.4592 10.2897 25.447 11.273 25.4684 11.5585C25.6859 11.5415 25.8797 11.5291 26.0949 11.4905C26.0501 11.2358 25.9881 10.8921 26.0131 10.6369C26.0248 10.5181 26.0696 10.5023 26.1514 10.4428Z" fill="url(#paint16_linear_64_72)"/>
<path d="M1.26533 13.866C1.38461 13.8599 1.50567 13.8379 1.59835 13.9232C1.76598 14.0776 1.75873 14.5123 1.77637 14.7443C2.09327 14.7165 2.67161 14.5752 2.92328 14.7224C2.96111 14.7658 2.98139 14.7964 2.99411 14.8535C3.0149 14.9471 3.00911 15.0591 2.95128 15.1392C2.81332 15.3305 0.959593 15.4713 0.672558 15.504C0.443089 15.5643 0.150048 15.5332 0.143199 15.273C0.13904 14.9622 -0.260541 13.8718 0.293687 13.8979C0.628665 13.9136 0.609287 14.6035 0.644999 14.8885C0.838974 14.8667 1.03221 14.8389 1.22442 14.805C1.18542 14.5226 1.07143 14.0988 1.26533 13.866Z" fill="url(#paint17_linear_64_72)"/>
<path d="M9.62909 23.3718C9.8937 23.3585 10.8357 23.617 11.0138 23.8385C11.1468 24.0037 10.9105 24.3128 10.6161 24.2019C10.4625 24.144 10.1439 24.0554 9.96977 24.0029C9.90838 24.185 9.85209 24.3916 9.79702 24.5775C9.8532 24.596 10.002 24.6408 10.0699 24.6517C10.3793 24.7011 10.9261 24.9338 10.4654 25.261C10.3782 25.323 10.2862 25.2904 10.181 25.2654L9.62912 25.1026C9.56957 25.4132 9.47678 25.8443 9.28952 26.1038C9.13134 26.3226 8.76567 26.0777 8.80924 25.9041C8.93258 25.4119 9.3192 23.6458 9.62909 23.3718Z" fill="url(#paint18_linear_64_72)"/>
<defs>
<linearGradient id="paint0_linear_64_72" x1="12.9007" y1="5.82043" x2="12.9007" y2="24.9607" gradientUnits="userSpaceOnUse">
<stop stop-color="#4A750C"/>
<stop offset="1" stop-color="#8BDB16"/>
</linearGradient>
<linearGradient id="paint1_linear_64_72" x1="2.48259" y1="6.927" x2="2.48259" y2="9.85214" gradientUnits="userSpaceOnUse">
<stop stop-color="#4A750C"/>
<stop offset="1" stop-color="#8BDB16"/>
</linearGradient>
<linearGradient id="paint2_linear_64_72" x1="1.51758" y1="10.3284" x2="1.51758" y2="13.2524" gradientUnits="userSpaceOnUse">
<stop stop-color="#4A750C"/>
<stop offset="1" stop-color="#8BDB16"/>
</linearGradient>
<linearGradient id="paint3_linear_64_72" x1="12.4977" y1="23.8717" x2="12.4977" y2="26.8527" gradientUnits="userSpaceOnUse">
<stop stop-color="#4A750C"/>
<stop offset="1" stop-color="#8BDB16"/>
</linearGradient>
<linearGradient id="paint4_linear_64_72" x1="15.6336" y1="23.6578" x2="15.6336" y2="26.639" gradientUnits="userSpaceOnUse">
<stop stop-color="#4A750C"/>
<stop offset="1" stop-color="#8BDB16"/>
</linearGradient>
<linearGradient id="paint5_linear_64_72" x1="16.8861" y1="0.399475" x2="16.8861" y2="3.48823" gradientUnits="userSpaceOnUse">
<stop stop-color="#4A750C"/>
<stop offset="1" stop-color="#8BDB16"/>
</linearGradient>
<linearGradient id="paint6_linear_64_72" x1="4.14614" y1="4.16907" x2="4.14614" y2="7.28235" gradientUnits="userSpaceOnUse">
<stop stop-color="#4A750C"/>
<stop offset="1" stop-color="#8BDB16"/>
</linearGradient>
<linearGradient id="paint7_linear_64_72" x1="18.4815" y1="22.728" x2="18.4815" y2="25.8194" gradientUnits="userSpaceOnUse">
<stop stop-color="#4A750C"/>
<stop offset="1" stop-color="#8BDB16"/>
</linearGradient>
<linearGradient id="paint8_linear_64_72" x1="25.2637" y1="12.8666" x2="25.2637" y2="15.3616" gradientUnits="userSpaceOnUse">
<stop stop-color="#4A750C"/>
<stop offset="1" stop-color="#8BDB16"/>
</linearGradient>
<linearGradient id="paint9_linear_64_72" x1="11.027" y1="0.246033" x2="11.027" y2="3.28326" gradientUnits="userSpaceOnUse">
<stop stop-color="#4A750C"/>
<stop offset="1" stop-color="#8BDB16"/>
</linearGradient>
<linearGradient id="paint10_linear_64_72" x1="23.6661" y1="18.1541" x2="23.6661" y2="20.9555" gradientUnits="userSpaceOnUse">
<stop stop-color="#4A750C"/>
<stop offset="1" stop-color="#8BDB16"/>
</linearGradient>
<linearGradient id="paint11_linear_64_72" x1="7.99565" y1="1.16284" x2="7.99565" y2="4.17714" gradientUnits="userSpaceOnUse">
<stop stop-color="#4A750C"/>
<stop offset="1" stop-color="#8BDB16"/>
</linearGradient>
<linearGradient id="paint12_linear_64_72" x1="21.8758" y1="20.2227" x2="21.8758" y2="23.1998" gradientUnits="userSpaceOnUse">
<stop stop-color="#4A750C"/>
<stop offset="1" stop-color="#8BDB16"/>
</linearGradient>
<linearGradient id="paint13_linear_64_72" x1="13.7921" y1="0.000488281" x2="13.7921" y2="3.03695" gradientUnits="userSpaceOnUse">
<stop stop-color="#4A750C"/>
<stop offset="1" stop-color="#8BDB16"/>
</linearGradient>
<linearGradient id="paint14_linear_64_72" x1="24.849" y1="16.1532" x2="24.849" y2="18.6028" gradientUnits="userSpaceOnUse">
<stop stop-color="#4A750C"/>
<stop offset="1" stop-color="#8BDB16"/>
</linearGradient>
<linearGradient id="paint15_linear_64_72" x1="19.5727" y1="1.78644" x2="19.5727" y2="4.88501" gradientUnits="userSpaceOnUse">
<stop stop-color="#4A750C"/>
<stop offset="1" stop-color="#8BDB16"/>
</linearGradient>
<linearGradient id="paint16_linear_64_72" x1="25.1892" y1="10.4343" x2="25.1892" y2="12.2939" gradientUnits="userSpaceOnUse">
<stop stop-color="#4A750C"/>
<stop offset="1" stop-color="#8BDB16"/>
</linearGradient>
<linearGradient id="paint17_linear_64_72" x1="1.50255" y1="13.8589" x2="1.50255" y2="15.5301" gradientUnits="userSpaceOnUse">
<stop stop-color="#4A750C"/>
<stop offset="1" stop-color="#8BDB16"/>
</linearGradient>
<linearGradient id="paint18_linear_64_72" x1="9.92872" y1="23.3713" x2="9.92872" y2="26.1903" gradientUnits="userSpaceOnUse">
<stop stop-color="#4A750C"/>
<stop offset="1" stop-color="#8BDB16"/>
</linearGradient>
</defs>
</svg>
