<svg width="19" height="19" viewBox="0 0 19 19" fill="none" xmlns="http://www.w3.org/2000/svg">
<path fill-rule="evenodd" clip-rule="evenodd" d="M3.17717 12.2812L3.17912 16.9141L3.1801 18.1934C3.18027 18.3936 3.18905 18.8133 3.15471 19H0.0345879C-0.0115075 18.6925 0.00262538 18.3385 0.00333789 18.0234L0.00529101 16.6787C0.00570276 15.2187 -0.00915828 13.7345 0.00919726 12.2764L3.17717 12.2812ZM6.50724 6.97754C7.60325 7.30651 8.22816 8.35043 7.96623 9.47559C7.81902 10.0853 7.59443 10.6875 7.46037 11.2988C7.41289 11.5153 7.56438 11.6062 7.75041 11.6152C8.11532 11.633 8.51482 11.6237 8.87736 11.623L11.1713 11.6221C11.4944 11.6221 11.887 11.5944 12.1889 11.6543C12.9608 11.8078 12.7668 13.0728 12.0336 13.0322C11.6267 13.0096 10.6115 13.1098 10.2914 13.0273C10.2799 13.197 10.2824 13.4019 10.2807 13.5742C10.3526 13.5688 10.4252 13.5687 10.4975 13.5703C11.0112 13.5828 11.5176 13.5582 12.0317 13.5801C12.5461 13.5878 12.8051 14.0834 12.6362 14.5615C12.4007 15.2277 11.2334 14.8964 10.686 14.9854C10.6005 14.999 10.361 14.985 10.2875 14.9746C10.2822 15.1529 10.2824 15.3395 10.2807 15.5186C10.5304 15.517 11.4939 15.5004 11.6977 15.5469C11.8092 15.5724 11.9127 15.6254 11.9985 15.7012C12.4244 16.0851 12.1804 16.8892 11.5893 16.918C11.516 16.9215 11.4429 16.9229 11.3695 16.9238C11.0583 16.9248 10.5817 16.9469 10.2856 16.9199C10.2796 17.0931 10.2838 17.2863 10.2836 17.4609C10.6476 17.4665 10.9955 17.4557 11.3695 17.4756C12.1119 17.469 12.1843 18.6139 11.6117 18.8145C11.348 18.9066 10.3978 18.8682 10.0912 18.8682L7.74455 18.8672L6.13908 18.8682C5.89298 18.8682 5.43605 18.8821 5.21232 18.8477C4.73958 18.4714 4.36219 18.2685 3.73185 18.2461C3.7426 17.9876 3.74154 17.6826 3.73478 17.4238C3.6967 15.9645 3.78805 14.4526 3.7299 12.999C4.03115 12.8848 4.57763 12.7537 4.75724 12.4385C4.88095 12.2211 5.00171 11.7121 5.07658 11.4521L6.01017 8.21094C6.08039 7.9687 6.31077 7.09814 6.39006 6.94141L6.50724 6.97754ZM12.4848 0C12.6285 0.0485378 13.1034 0.0863123 13.2846 0.121094C14.0528 0.270216 14.7885 0.556898 15.4545 0.967773C16.9022 1.86243 17.931 3.30009 18.311 4.95898C18.6839 6.60358 18.391 8.32922 17.4965 9.75879C16.7208 10.9912 15.5445 11.919 14.1654 12.3867C13.8075 12.5079 13.5533 12.5547 13.1918 12.6367C13.2999 12.267 13.1959 11.9627 13.059 11.6211C14.1818 11.4201 15.2102 10.8631 15.9916 10.0322C16.9568 9.02101 17.4836 7.66917 17.4574 6.27148C17.4284 4.83852 16.8275 3.47653 15.7885 2.48926C14.7629 1.52132 13.3944 0.99976 11.9848 1.04004C10.5528 1.07604 9.19455 1.68393 8.2133 2.72754C7.26528 3.74343 6.75202 5.09036 6.78459 6.47949C6.67318 6.44614 6.56148 6.41367 6.44963 6.38184C5.90922 6.22954 5.90078 6.55622 5.78459 6.9873C5.68027 5.75043 5.92988 4.50907 6.50334 3.4082C7.30954 1.87 8.71292 0.730838 10.3842 0.258789C10.7495 0.1568 11.1193 0.08223 11.4965 0.0449219C11.581 0.0365654 11.6508 0.0277217 11.7319 0H12.4848ZM11.8715 1.58496C12.1734 1.57076 12.4762 1.58331 12.7758 1.62305C14.0372 1.79975 15.1774 2.4692 15.9467 3.48438C16.7134 4.50904 17.0411 5.79679 16.8588 7.06348C16.671 8.32582 15.9893 9.46175 14.9633 10.2207C14.3764 10.6568 13.1187 11.2325 12.3901 11.125C11.863 11.0415 11.4482 11.1424 10.9076 11.0049C10.1412 10.8022 9.43552 10.4155 8.85295 9.87793C8.74924 9.78146 8.60133 9.6411 8.52971 9.52051C8.56203 9.25892 8.58589 9.05693 8.56681 8.79004C8.52384 8.16322 8.25693 7.57245 7.81388 7.12695C7.69474 7.00849 7.5644 6.91642 7.43596 6.80957C7.34346 6.74476 7.33247 6.64352 7.32951 6.53223C7.25943 3.88798 9.23987 1.74819 11.8715 1.58496ZM11.8529 2.70508C11.8369 3.05696 11.8414 3.42763 11.8412 3.78125C11.3687 3.8695 10.9682 3.99366 10.7133 4.40625C10.1039 5.39316 10.6198 6.52893 11.8051 6.6084C12.2569 6.6387 12.7098 6.60384 13.0121 6.94434C13.4503 7.39953 13.1693 8.27972 12.5444 8.37402C12.2032 8.42539 11.5769 8.46286 11.2817 8.27637C11.0094 8.09999 11.0129 7.76999 11.0082 7.4834C10.8295 7.48991 10.6409 7.50113 10.4633 7.4873C10.4584 7.92286 10.4817 8.24949 10.809 8.58594C11.098 8.88282 11.4274 8.94501 11.8237 8.94629H11.8412C11.8423 9.3017 11.8488 9.6742 11.8422 10.0283C11.9931 10.0298 12.2508 10.0397 12.3959 10.0332C12.3778 9.70555 12.3913 9.28173 12.393 8.94727C13.2304 8.85573 13.8444 8.25479 13.7631 7.3623C13.7296 6.99506 13.5409 6.64482 13.2494 6.41309C13.089 6.28508 12.9015 6.19469 12.7016 6.14844C12.147 6.02316 11.1404 6.21934 11.0229 5.4043C10.9487 4.88872 11.265 4.36657 11.8256 4.34082C12.5749 4.30638 13.3146 4.24215 13.225 5.26172L13.7817 5.27051C13.7591 4.79345 13.7693 4.47459 13.3832 4.10352C13.1231 3.85356 12.7419 3.78253 12.3881 3.78711C12.399 3.43813 12.3914 3.06562 12.3891 2.71484C12.2182 2.72591 12.0204 2.73841 11.8529 2.70508Z" fill="url(#paint0_linear_69_632)"/>
<defs>
<linearGradient id="paint0_linear_69_632" x1="9.23453" y1="0" x2="9.23453" y2="19" gradientUnits="userSpaceOnUse">
<stop stop-color="#4A750C"/>
<stop offset="1" stop-color="#8BDB16"/>
</linearGradient>
</defs>
</svg>
