<?xml version="1.0" encoding="UTF-8"?>
<svg id="Layer_1" data-name="Layer 1" xmlns="http://www.w3.org/2000/svg" viewBox="0 0 960 960">
  <defs>
    <style>
      .cls-1, .cls-2, .cls-3, .cls-4 {
        stroke-width: 0px;
      }

      .cls-1, .cls-4 {
        fill: #6c1f0d;
      }

      .cls-2 {
        fill: #fff;
      }

      .cls-2, .cls-3, .cls-4 {
        fill-rule: evenodd;
      }

      .cls-3 {
        fill: #f2682a;
      }
    </style>
  </defs>
  <g>
    <path class="cls-2" d="M811.26,354.25c0,88.02-34.95,172.44-97.15,234.69-41.7,41.72-93.35,71.19-149.38,86.08-.42.11-.83.22-1.24.33-27.17,7.11-55.36,10.8-83.93,10.8s-56.49-3.65-83.54-10.7c-.4-.1-.8-.21-1.2-.31-9.54-2.52-18.94-5.46-28.2-8.82-6.7-2.43-13.32-5.07-19.84-7.92-35.64-15.58-68.56-37.43-97.09-64.87-1.57-1.51-3.13-3.04-4.68-4.59-62.2-62.24-97.15-146.66-97.15-234.68s34.95-172.44,97.15-234.69c44.71-44.73,100.87-75.38,161.58-89.08,23.76-5.36,48.22-8.13,72.97-8.13,87.97,0,172.34,34.97,234.55,97.21,62.21,62.24,97.15,146.66,97.15,234.69Z"/>
    <path class="cls-3" d="M479.56,22.35c-.27.02-.53.04-.8.06-1.91.45-3.83.87-5.71,1.37-50.36,14.65-88.18,42.59-99.76,98.26-4.2,20.18-6.2,27.86-6.2,51.69,0,43.55,12.12,80.51,18.56,110.4,11.67,54.19,16.25,82.05,16.25,124.61,0,62.06-18.59,95.4-35.27,139.41-4.55,12.02-7.33,23.88-7.33,42.65,0,23.29,15.35,56.56,35.52,84.33,0,0,.78.21,1.2.32,6.09-22.66,16.42-56.61,23.23-89.84,5.19-25.33,10.4-50.63,15.26-76.01,8.4-43.84,12.23-88.42,14.18-132.98,1.97-39.66,8.27-80.39-1.24-119.48-2.62-9.77-7.9-29.61-7.9-29.61,5.99,11.39,12.37,20.9,22.64,31.17,8.8,8.8,15.12,10.29,17.83,10.29,2.71,0,10.09-2.63,17.69-10.29,10.19-10.27,16.52-19.78,22.46-31.17,0,0-5.23,19.83-7.83,29.61-9.43,39.09-3.19,79.82-1.23,119.48,1.94,44.55,5.74,89.14,14.07,132.98,4.83,25.38,9.66,50.75,15.14,76.01,7.25,33.38,12.99,51.87,23.14,89.74,0,0,.89-.24,1.25-.33,20.26-27.84,35.62-60.83,35.62-84.21,0-18.77-2.78-30.64-7.33-42.65-16.67-44.01-35.42-77.35-35.42-139.41,0-42.56,4.74-70.41,16.41-124.61,6.44-29.89,18.56-66.85,18.56-110.4,0-18.06-1.84-31.51-6.04-51.69-3.5-16.86-9.1-31.85-17.32-43.81-19.26-28.03-47.18-44.23-82.28-54.45-1.9-.51-3.85-.93-5.79-1.39-.53-.01-1.05-.02-1.58-.04h0ZM548.59,29.7c153.13,32.6,262.63,167.9,262.67,324.55-.03,92.17-38.36,180.18-105.82,242.94,18.3-25.71,26.27-57.96,26.27-86.54,0-40.64-9.27-65.43-23.06-87.46-32.56-52.04-58.53-45.07-86.4-113.93-7.36-18.19-13.48-50.56-9.52-75.53,3.45-21.79,5.86-37.77,5.86-62.13,0-52.67-13.49-88.11-33.59-113.23-12.56-15.7-24.63-24.03-36.41-28.67h0ZM406.6,30.48h0c-30.94,14.17-52.87,50.36-62,91.8-2.45,11.14-4.31,26.18-4.31,49.32,0,24.36,2.25,40.33,5.7,62.13,3.96,24.97-1.96,57.49-9.68,75.53-31.99,74.83-51.37,58.95-87.43,115.94-12.25,19.36-21.86,44.81-21.86,85.45,0,27.01,6.74,57.68,22.7,82.89-31.9-30.68-57.17-67.36-74.47-107.43-18.23-42.21-27.23-86.21-27.38-131.86.21-81.53,29.12-156.75,80.18-216.32,45.21-52.75,107.07-91.32,178.55-107.45h0ZM479.96,56.12c4.33,0,7.86,3.51,7.85,7.85,0,2.78-1.49,5.36-3.89,6.76-.15,17.54-.18,37.12,2.39,54.37.89,5.99,2.71,13.14,5.23,18.71,0,0,2.05.15,5.13.74,2.6-1.89,4.97-4.03,6.68-6.39,10.92-15.11,16.39-28.86,20.09-38.77-.98-1.34-1.52-2.96-1.53-4.62,0-4.34,3.51-7.85,7.85-7.85s7.85,3.51,7.85,7.85c0,3.96-2.96,7.29-6.89,7.78-5.3,12.57-10.04,25.03-12.41,38.1-.71,3.95-1.1,9.03-.29,13.27,6.72,5.45,12.07,13.79,12.04,26.56-.08,34.98-41.81,62.87-50.13,68.06-8.32-5.2-50.05-33.08-50.13-68.06-.03-12.77,5.32-21.11,12.04-26.56.81-4.24.42-9.32-.29-13.27-2.36-13.07-7.11-25.52-12.41-38.09-3.93-.48-6.88-3.82-6.89-7.78,0-4.34,3.51-7.85,7.85-7.85,4.34,0,7.85,3.51,7.85,7.85,0,1.66-.54,3.28-1.53,4.61,3.7,9.91,9.16,23.66,20.09,38.77,1.71,2.36,4.08,4.5,6.67,6.39,3.08-.6,5.13-.74,5.13-.74,2.52-5.57,4.34-12.72,5.23-18.71,2.57-17.27,2.54-36.87,2.39-54.42-2.35-1.42-3.8-3.96-3.8-6.71,0-4.33,3.51-7.85,7.85-7.85h0ZM255.83,203.93h0c-18.76,0-33.04,7.83-42.68,24.52-19.25,33.35-21.24,74.09-21.24,89.49,0,24.53,3.49,49.4,12.05,72.19.72,1.92,1.35,1.8,1.35-.25-.04-20.69-.81-42.07,1.65-62.59,1.62-13.48,4.16-27.18,10.55-39.32,10.14-19.26,46.92-18.35,46.07,9.06-.34,10.91-5.43,20.39-10.57,30.14,20.33-11.73,33.8-27.11,42.88-46.45,4.16-8.86,6.5-18.34,6.5-28.55,0-9.52-2.25-27.43-17.06-38.7-8.43-6.42-18.39-9.54-29.51-9.54h0ZM702.71,203.93h0c-11.14,0-21.12,3.14-29.56,9.59-14.83,11.33-17.09,29.32-17.09,38.89,0,10.26,2.35,19.77,6.52,28.68,9.09,19.43,23.44,35.07,44.01,47.05-5.16-9.79-11.3-19.7-11.63-30.66-.81-26.3,35.08-30.23,46.16-9.1,6.4,12.2,8.96,25.96,10.58,39.51,2.46,20.62,1.69,42.1,1.65,62.89,0,2.06.63,2.18,1.35.25,8.57-22.91,12.07-47.89,12.07-72.53,0-15.47-1.84-56.4-21.13-89.91-9.65-16.77-24.12-24.64-42.91-24.64h0ZM363.13,293.36h0c10.63,45.56,14.61,76.28,14.61,114.83,0,58.81-9.69,77.15-29.46,120.88-7.07,15.63-13.2,37.62-13.2,62.44,0,27.64,12.43,54.05,31.55,74.79-6.69-2.26-13.3-5.24-19.83-7.92-30.95-15.78-52.62-39.49-64.62-57.33-17.66-26.25-29.24-60.78-29.24-89.17,0-38.18,6.92-54.56,15.6-70.73,14.65-27.29,39.31-44.54,59.34-66.06,9.58-10.29,17.7-21.56,23.77-35.37,6.53-14.87,9.86-30.48,11.5-46.36h0ZM594.82,293.36h0c1.64,15.88,4.5,31.49,11.03,46.36,6.07,13.81,14.03,25.08,23.61,35.37,20.03,21.52,46.45,41.48,59.65,66.06,7.45,13.88,15.76,32.55,15.76,70.73,0,28.39-11.43,62.92-29.09,89.17-13.28,19.74-33.6,42.81-72.15,60.93-4.57,1.85-9.17,3.6-13.81,5.25,20.48-20.7,32.9-46.34,32.9-75.72,0-24.83-8.73-51.54-13.67-62.44-19.77-43.73-28.99-62.07-28.99-120.88,0-38.55,4.13-69.28,14.76-114.83h0ZM321.11,433.92h0c-6.89.18-13.38,3.3-18.02,8.33-11.7,12.68-16.44,28.19-15.39,49.31.11,2.29,1.21,2.54,2.53.65,2.99-4.29,7.37-9.52,11.16-12.41,7.03-5.36,20.37-3.73,17.94,12.66-1.9,12.8-8.55,24.18-14.42,35.51,6.18-5.18,11.33-11.47,16.45-17.66,9.05-11.35,17.13-24,20.48-38.26,2.12-9,2.56-19.56-1.96-27.92-3.35-6.2-10.38-9.98-17.39-10.2-.46-.02-.92-.02-1.38,0h0ZM635,434.64c-7.05,0-14.1,4-17.47,10.2-4.53,8.37-4.1,18.92-1.97,27.92,3.36,14.26,11.48,26.9,20.56,38.26,5.15,6.19,11.47,13.82,17.68,19.01-5.89-11.33-13.57-24.05-15.48-36.85-2.44-16.39,11.27-17.71,18.33-12.35,3.81,2.89,7.89,7.96,10.9,12.25,1.32,1.88,2.42,1.64,2.54-.65,1.05-21.12-2.64-34.89-15.61-49.46-4.86-5.46-10.89-8.32-19.48-8.32Z"/>
  </g>
  <path class="cls-4" d="M566.75,827.77c-9.28,8.71-23.78,8.06-32.7-1.05-7.15-7.3-16.62-10.77-27.54-10.92-10.95-.15-20.27,3.3-27.9,10.31-7.54,6.92-11.06,15.98-11.06,27.24s2.75,20.45,10.21,27.73c7.35,7.17,16.67,10.79,27.87,10.93,10.54.13,19.87-3.22,27.37-10.52,9.13-8.89,24.42-8.99,33.95-.6,12.2,10.75,10.98,22.14-1.35,34.4-16.05,15.96-35.18,21.6-60.48,21.6-55.09,0-84.22-41.47-84.22-84.13,0-25.28,9.23-46.24,25.99-61.41,16.82-15.21,36.64-20.42,60.31-20.42s44.16,6.16,56.55,18.48c14.77,14.68,12.37,29.59,3.01,38.37h0Z"/>
  <path class="cls-4" d="M641.52,881.43c7.17,6.89,16.12,10.1,26.57,9.96,10.08-.14,18.63-3.83,25.71-10.99,7.22-7.31,10.69-16.32,10.52-27.04-.17-11.15-3.82-20.03-11.02-26.84-7.15-6.76-15.79-10.02-26.12-9.88-10.32.13-19.05,3.71-26.07,10.75-6.96,6.98-10.59,15.99-10.42,26.98.17,11,3.66,20.16,10.84,27.06h0ZM723.91,793.45c15.64,14.81,24.23,34.34,24.57,58.7.33,23.62-7.89,43.23-23.21,58.89-15.19,15.53-33.99,23.49-56.47,23.77-22.31.27-41.5-6.97-57.35-22.01-15.93-15.11-24.01-34.59-24.29-58.44-.28-24.17,7.26-43.77,22.81-59.09,15.44-15.22,34.3-23.03,56.7-23.34,22.61-.32,41.74,6.85,57.23,21.51h0Z"/>
  <path class="cls-4" d="M320.87,888.79c5.09,0,9.38-4.02,9.38-9.09v-52.42c0-4.69-4.55-9.92-9.29-9.92h-23.33c-12.11,0-21.77-9.78-21.77-21.91v-2.83c0-12.06,9.72-21.66,21.81-21.66h57.66c11.77,0,21.29,9.63,21.29,21.45v121.62c0,11.77-9.58,21.37-21.43,21.37h-122.35c-11.97,0-21.7-9.89-21.7-22v-2.78c0-12.06,9.8-21.83,21.87-21.83h87.87Z"/>
  <circle class="cls-1" cx="408.03" cy="928.15" r="9.58"/>
</svg>