<svg width="19" height="19" viewBox="0 0 19 19" fill="none" xmlns="http://www.w3.org/2000/svg">
<path d="M0 7.17029C0.49598 7.2353 1.16868 7.26096 1.67578 7.29431L4.66797 7.48865C7.34861 7.66206 10.0732 7.86565 12.75 8.00623C12.7321 8.35838 12.6554 8.86142 12.6104 9.22302L12.3379 11.4086L11.5381 17.8275C11.5122 18.1842 11.4413 18.6268 11.4053 18.9994C11.0207 18.9971 10.2371 18.8771 9.83398 18.8246L7.02148 18.4574L4.15234 18.1C3.57425 18.0312 2.99548 17.9725 2.41992 17.8783C2.03532 17.8153 1.64033 17.593 1.54004 17.1879C1.44383 16.7987 1.39564 16.3799 1.33496 15.9818L1.00684 13.8314C0.669801 11.6178 0.311763 9.38603 0 7.17029ZM18.4082 7.08044C18.4449 7.08168 18.429 7.08068 18.4678 7.11072C18.4598 7.37368 18.3477 7.99334 18.3037 8.27771L17.96 10.4916L17.3271 14.5033C17.2209 15.1733 17.1198 15.8472 17.0068 16.514C16.915 16.9919 16.8155 17.2257 16.3525 17.4174C15.2737 17.864 14.1728 18.2428 13.0801 18.6527C12.7804 18.7651 12.4757 18.8888 12.1689 18.974L12.1299 18.9476C12.1547 18.6135 12.2319 18.1337 12.2754 17.7845L12.5791 15.3431L13.499 7.98572C15.0775 7.69588 16.844 7.3162 18.4082 7.08044ZM6.4502 0.0218506C8.10624 -0.038599 9.80931 0.0495261 11.4688 0.0111084C12.5388 -0.0135 13.0819 0.377659 13.6475 1.26404C13.3489 3.26025 13.1375 5.3076 12.8516 7.30603C12.3674 7.30501 11.6265 7.23431 11.1279 7.20251L7.81738 6.98181C7.1824 6.97451 6.26874 6.88788 5.61035 6.84607L1.41797 6.57361C1.26455 6.56282 0.301575 6.51911 0.241211 6.47888C0.331686 6.18508 2.41186 3.70656 2.79297 3.22986C3.48718 2.3616 4.44403 1.08045 5.28809 0.328491C5.5163 0.125379 6.11864 0.043681 6.4502 0.0218506ZM14.7568 1.01111C15.2235 1.07227 15.4584 1.45913 15.6133 1.87244C16.0611 1.86857 16.5279 1.8464 16.9717 1.89197C17.4154 1.93776 17.4823 2.4112 17.4834 2.76697C17.4854 3.44709 17.4626 4.12947 17.4795 4.80896C17.7609 5.19407 18.1878 5.92438 18.4561 6.35095C17.9817 6.40442 17.1629 6.58334 16.668 6.67517C16.3606 6.71591 15.89 6.81781 15.5693 6.87732C14.9157 6.99591 14.2623 7.11971 13.6104 7.24744C13.6297 6.52673 13.8111 5.60311 13.9023 4.86462C14.0397 3.75325 14.177 2.5788 14.3877 1.47791C14.4403 1.2031 14.4968 1.10084 14.7568 1.01111ZM1.5625 1.64294C1.82244 1.62596 2.87976 1.54851 2.9707 1.7865C2.90969 2.05808 1.98387 3.14062 1.73828 3.44568C1.54385 3.69286 1.28319 4.0439 1.05371 4.24548C1.09526 3.7512 1.03675 3.21784 1.04004 2.71912C1.04329 2.23031 1.03024 1.8191 1.5625 1.64294ZM7.58691 1.80408C7.12303 1.80881 6.68836 1.74953 6.3291 2.09021C5.75638 2.6334 6.04078 3.66059 6.82227 3.79138C7.27455 3.86337 7.7985 3.83306 8.26855 3.82947C8.9861 3.82278 9.70433 3.82151 10.4219 3.82751C11.1302 3.82667 11.5636 3.87311 11.9746 3.20349C12.0307 2.4484 11.8748 1.83644 10.9727 1.81482C9.84672 1.788 8.71379 1.80305 7.58691 1.80408Z" fill="url(#paint0_linear_65_345)"/>
<defs>
<linearGradient id="paint0_linear_65_345" x1="9.23389" y1="-0.000610352" x2="9.23389" y2="18.9998" gradientUnits="userSpaceOnUse">
<stop offset="0.333259" stop-color="#4A750C"/>
<stop offset="1" stop-color="#8BDB16"/>
</linearGradient>
</defs>
</svg>
