<svg width="18" height="19" viewBox="0 0 18 19" fill="none" xmlns="http://www.w3.org/2000/svg">
<path fill-rule="evenodd" clip-rule="evenodd" d="M17.6221 14.6104L17.585 14.79C17.4494 15.377 17.267 16.0821 17.1572 16.6631C16.2564 16.9839 15.3364 17.2479 14.4023 17.4531C14.1948 17.4989 13.9861 17.5416 13.7773 17.582C10.7079 18.1491 7.56595 18.2116 4.47656 17.7656C3.68104 17.6546 2.69595 17.4854 1.92188 17.2754C1.94583 17.1299 1.9696 16.9705 2 16.8271V16.7764C2.04538 16.5961 2.06706 16.3539 2.10547 16.1611C2.1342 15.9735 2.16457 15.7858 2.19727 15.5986C2.20455 15.5151 2.23267 15.3682 2.24609 15.2803C2.27015 15.1472 2.2918 15.0135 2.31152 14.8799C2.50501 14.9512 2.73924 15.0309 2.92676 15.1084C2.8883 15.7108 2.84342 16.3423 2.81738 16.9434C3.70833 17.0538 4.56719 17.1667 5.46582 17.2363C8.62763 17.4815 12.2115 17.4059 15.3105 16.6328C15.725 16.5469 16.3125 16.3605 16.7119 16.2217C16.7984 16.183 16.9391 15.8037 16.9863 15.6953L17.4424 14.6475L17.501 14.5146L17.8145 13.7988C17.7515 14.0572 17.6898 14.3577 17.6221 14.6104ZM1.92188 8.56543C2.13177 8.82013 2.51016 9.20038 2.74512 9.45312C2.62871 9.70947 2.45457 10.0328 2.32422 10.291L1.50586 11.9092C2.10658 12.5139 3.06465 13.1504 3.79785 13.5781C3.83021 13.5957 3.94074 13.6518 3.96387 13.6699C7.27609 15.4198 11.1771 15.8489 14.8643 15.4492C15.2913 14.8389 15.711 14.2109 16.1309 13.5947L17.8027 11.1416C17.6926 11.3873 17.5374 11.6739 17.4131 11.916L16.7744 13.1631L16.0488 14.5811C15.9406 14.7924 15.8051 15.0787 15.6904 15.2803C15.5834 15.4958 15.474 15.7102 15.3633 15.9238C15.2743 15.9372 15.1797 15.9527 15.0908 15.9629C11.2643 16.5649 7.34591 16.0833 3.7793 14.5723C3.7393 14.5571 3.68179 14.5277 3.6416 14.5088C2.5681 14.0567 0.848633 13.0436 0 12.2471C0.218365 11.8605 0.451723 11.386 0.660156 10.9863L1.92188 8.56543ZM5.86328 0C7.17254 2.44736 9.03914 4.55268 11.3115 6.14648C11.3428 6.16642 11.4947 6.26042 11.5107 6.27832C11.8473 6.47569 12.1384 6.67168 12.4922 6.86328C13.8349 7.5905 15.6152 8.24471 17.1543 8.32422L13.6768 14.4248C13.3465 14.3943 13.0502 14.379 12.7158 14.3369C11.8379 14.2255 10.9751 14.0178 10.1426 13.7178C7.33024 12.7025 5.02453 10.6989 3.28027 8.30566C2.64323 7.44082 2.09069 6.51668 1.62891 5.54688L5.86328 0Z" fill="url(#paint0_linear_69_657)"/>
<defs>
<linearGradient id="paint0_linear_69_657" x1="8.90723" y1="0" x2="8.90723" y2="18.0593" gradientUnits="userSpaceOnUse">
<stop stop-color="#4A750C"/>
<stop offset="1" stop-color="#8BDB16"/>
</linearGradient>
</defs>
</svg>
