<svg width="20" height="17" viewBox="0 0 20 17" fill="none" xmlns="http://www.w3.org/2000/svg">
<path fill-rule="evenodd" clip-rule="evenodd" d="M9.5407 0.0072917C10.5996 -0.034541 11.5642 0.101636 12.5632 0.467253C14.143 1.05129 15.4882 2.1359 16.3952 3.55514C16.6265 3.91723 16.7804 4.2206 16.9587 4.60495C17.1883 4.61704 17.3943 4.63508 17.6198 4.68698C18.3642 4.85939 19.0094 5.32183 19.4108 5.97214C19.5928 6.26716 19.7197 6.5934 19.7839 6.93405C19.8763 7.42147 19.8266 7.94699 19.8229 8.43991C19.8194 8.90893 19.8635 9.25465 19.7516 9.72507C19.5716 10.4648 19.1059 11.1033 18.4557 11.4995C17.8585 11.8657 17.0583 12.0177 16.3727 11.852C16.2863 11.9666 16.2056 12.0903 16.1208 12.2065C15.9788 12.4009 15.8272 12.5879 15.6677 12.768C14.6941 13.8648 13.4294 14.663 12.0202 15.0688C11.7393 15.1504 11.4638 15.2055 11.1774 15.2622C11.1357 15.335 11.093 15.4382 11.0514 15.5171C10.9381 15.7288 10.778 15.9125 10.5846 16.0551C10.2336 16.3205 9.79051 16.4339 9.35515 16.3696C8.91034 16.3038 8.51101 16.0616 8.24675 15.6977C7.9843 15.3358 7.87872 14.8833 7.95476 14.4428C8.02794 14.0066 8.27193 13.617 8.6325 13.3608C8.99335 13.1092 9.43905 13.0089 9.87273 13.0825C10.2943 13.1546 10.672 13.3869 10.9274 13.7299C10.9687 13.7854 11.0045 13.8424 11.0407 13.9008C11.0629 13.9316 11.0923 14.0374 11.1403 14.0346C11.2897 14.0243 11.4529 13.9777 11.5973 13.9389C12.531 13.6901 13.3972 13.2348 14.1315 12.6069C15.4309 11.5009 16.2388 9.9248 16.3776 8.22409C16.3964 7.95037 16.4067 7.69456 16.3942 7.4194C16.3228 5.69235 15.5648 4.06487 14.2887 2.89889C11.645 0.497167 7.53713 0.659551 5.1325 3.31491C3.57653 5.01927 3.0452 7.4231 3.73796 9.62448C3.81176 9.85736 3.89833 10.0864 3.99675 10.31C4.1049 10.5577 4.30885 10.8544 4.32976 11.1137C4.38055 11.747 3.43763 11.8999 2.97625 11.9135C2.2053 11.9429 1.45465 11.6596 0.895191 11.1284C0.348515 10.6094 0.0301011 9.89459 0.00944929 9.14108C0.00734766 9.0515 0.00830868 8.95089 0.012379 8.86081C0.0374816 8.30525 -0.033268 7.72484 0.021168 7.17233C0.0878886 6.5337 0.366844 5.93574 0.814137 5.47507C1.36615 4.90117 2.08683 4.62723 2.87468 4.61081C2.97128 4.43539 3.06295 4.21644 3.16668 4.02487C3.462 3.47973 3.82149 2.97145 4.23797 2.51217C5.60367 1.00752 7.5111 0.106648 9.5407 0.0072917ZM9.82 2.64792C10.1844 2.64085 10.5486 2.67318 10.9059 2.7446C12.2178 3.00921 13.3709 3.78405 14.111 4.89889C14.8501 6.01019 15.116 7.37052 14.8493 8.67819C14.5827 9.98656 13.8081 11.1361 12.695 11.8735C11.7517 12.5022 10.6224 12.7918 9.49285 12.6948C9.18898 12.6684 8.92475 12.611 8.62664 12.5503C8.58281 12.5682 8.53135 12.5987 8.48894 12.6215C8.06518 12.8803 7.60942 13.1239 7.18035 13.3794C6.96625 13.5068 6.70313 13.6613 6.47918 13.769C6.40955 13.8025 6.24042 13.801 6.15984 13.7837C6.00333 13.7497 5.86694 13.6538 5.78191 13.518C5.71738 13.4137 5.68642 13.2918 5.69402 13.1694C5.70327 13.0086 5.80375 12.7136 5.84441 12.5454C5.95816 12.0749 6.12305 11.5728 6.22722 11.104C6.19796 11.0582 6.07454 10.9221 6.03289 10.8725C5.9378 10.759 5.84878 10.6399 5.76629 10.5171C5.22916 9.72977 4.92603 8.80643 4.89226 7.85397C4.84565 6.48902 5.35448 5.16334 6.30242 4.18014C7.2266 3.22511 8.49128 2.67432 9.82 2.64792ZM7.80925 7.09323C7.4857 7.15456 7.27266 7.46688 7.33367 7.79049C7.39478 8.11393 7.70641 8.32666 8.02996 8.26608C8.35409 8.20539 8.56762 7.89289 8.50652 7.56882C8.44529 7.24501 8.13307 7.03199 7.80925 7.09323ZM11.8073 7.09323C11.4838 7.15462 11.2707 7.46691 11.3317 7.79049C11.3928 8.11404 11.7053 8.32686 12.029 8.26608C12.3528 8.20515 12.5656 7.89276 12.5046 7.56882C12.4433 7.24499 12.1312 7.03191 11.8073 7.09323ZM9.81218 7.09225C9.4881 7.15125 9.27309 7.46152 9.33171 7.78561C9.39058 8.10978 9.70087 8.32551 10.0251 8.26706C10.3495 8.20827 10.5654 7.89714 10.5065 7.57272C10.4476 7.24833 10.1366 7.03327 9.81218 7.09225Z" fill="url(#paint0_linear_69_623)"/>
<defs>
<linearGradient id="paint0_linear_69_623" x1="9.91979" y1="0" x2="9.91979" y2="16.3872" gradientUnits="userSpaceOnUse">
<stop stop-color="#4A750C"/>
<stop offset="1" stop-color="#8BDB16"/>
</linearGradient>
</defs>
</svg>
