<svg width="19" height="11" viewBox="0 0 19 11" fill="none" xmlns="http://www.w3.org/2000/svg">
<path d="M8.81561 6.19944C8.66831 0.0933207 14.2435 -0.188478 19 0.0579095C18.1727 2.20587 17.8979 4.95024 15.7612 6.31545C13.8515 7.53551 12.184 7.06997 10.1687 6.67276C9.80017 7.35546 8.14464 10.9923 7.66184 11C7.15764 10.5771 6.51571 8.2647 6.12476 7.41412C4.63967 7.35776 3.40006 7.61172 2.05841 6.66897C0.481573 5.56102 0.272898 3.19571 0 1.40366C0.313267 1.39897 0.626635 1.40296 0.939596 1.41553C4.52947 1.56396 7.69711 2.98154 7.4393 7.02369L7.27864 7.09012C7.21982 7.4207 7.27517 7.48484 6.92347 7.61183C7.19413 8.32306 7.51066 9.01554 7.81934 9.7119C8.15065 7.77372 10.1031 5.08152 11.765 3.95841C12.3181 3.58454 12.8408 3.23591 13.3414 2.78972L13.2875 2.75311C11.142 3.72299 10.3908 4.48939 8.81561 6.19944Z" fill="#5E9434"/>
</svg>
