<svg xmlns="http://www.w3.org/2000/svg" viewBox="0 0 320 80" fill="none">
  <!-- Icon: Leaf/Package shape -->
  <g transform="translate(0, 4)">
    <!-- Main leaf body -->
    <path d="M36 4 C20 4, 4 18, 4 38 C4 55, 16 68, 36 68 C56 68, 68 55, 68 38 C68 18, 52 4, 36 4Z" fill="#3f6d35"/>
    <!-- Stem -->
    <line x1="36" y1="62" x2="36" y2="72" stroke="#3f6d35" stroke-width="3" stroke-linecap="round"/>
    <!-- Center vein -->
    <line x1="36" y1="14" x2="36" y2="62" stroke="white" stroke-width="1.8" stroke-linecap="round" opacity="0.6"/>
    <!-- Left veins -->
    <path d="M36 26 Q26 24 20 30" stroke="white" stroke-width="1.4" stroke-linecap="round" fill="none" opacity="0.5"/>
    <path d="M36 36 Q24 34 17 41" stroke="white" stroke-width="1.4" stroke-linecap="round" fill="none" opacity="0.5"/>
    <path d="M36 47 Q26 45 20 52" stroke="white" stroke-width="1.4" stroke-linecap="round" fill="none" opacity="0.5"/>
    <!-- Right veins -->
    <path d="M36 26 Q46 24 52 30" stroke="white" stroke-width="1.4" stroke-linecap="round" fill="none" opacity="0.5"/>
    <path d="M36 36 Q48 34 55 41" stroke="white" stroke-width="1.4" stroke-linecap="round" fill="none" opacity="0.5"/>
    <path d="M36 47 Q46 45 52 52" stroke="white" stroke-width="1.4" stroke-linecap="round" fill="none" opacity="0.5"/>
  </g>

  <!-- Text: IMPEPAC -->
  <text x="82" y="46" font-family="Arial Black, Arial, sans-serif" font-weight="900" font-size="30" fill="#3f6d35" letter-spacing="0.5">IMPEPAC</text>
  <!-- Text: IMPERIAL INDOPACK -->
  <text x="83" y="62" font-family="Arial, sans-serif" font-weight="700" font-size="9.5" fill="#3f6d35" letter-spacing="3.5">IMPERIAL INDOPACK</text>
</svg>
