<svg width="11" height="11" viewBox="0 0 11 11" fill="none" xmlns="http://www.w3.org/2000/svg">
<g clip-path="url(#clip0_37_191)">
<path d="M5.41465 0H5.57943C5.61225 0.0171539 5.65012 0.0276848 5.68481 0.0414317C5.75249 0.0688827 5.82 0.0967098 5.88736 0.124912L6.6225 0.430156L8.9311 1.38858L9.59271 1.66323C9.67 1.69531 9.87464 1.7754 9.93904 1.8152C10.0223 1.86691 10.085 1.94603 10.1163 2.03895C10.1531 2.14848 10.1409 2.42895 10.1407 2.55558V3.07063L10.1407 3.93787C10.1407 4.24398 10.1414 4.52099 10.1206 4.82775C10.0509 5.78606 9.78978 6.72063 9.35268 7.57625C8.72496 8.80548 7.75725 9.82835 6.56476 10.5233C6.35427 10.6458 6.13781 10.7577 5.91615 10.8586C5.84466 10.8908 5.77263 10.9219 5.70012 10.9519C5.67713 10.9612 5.59281 10.9912 5.57911 11H5.42029C5.40477 10.9909 5.32736 10.9621 5.30463 10.9528C5.2276 10.9217 5.15115 10.8891 5.07532 10.8551C4.85477 10.7543 4.63931 10.6427 4.42974 10.5207C3.20127 9.80456 2.21258 8.74038 1.58853 7.46265C1.15891 6.58276 0.913516 5.62439 0.867394 4.64628C0.856432 4.42861 0.859359 4.20055 0.859332 3.98206L0.859413 3.04175L0.859407 2.55082C0.858671 2.10756 0.801775 1.8706 1.27729 1.71676C1.31024 1.7061 1.35943 1.68268 1.39294 1.66878L2.06835 1.38857L4.34927 0.441623C4.62023 0.329173 4.89249 0.217504 5.16248 0.103068C5.22427 0.0768738 5.35364 0.0306713 5.40546 0.00467954L5.41465 0ZM1.72144 2.46561C1.71358 2.58608 1.71866 2.762 1.71873 2.88597L1.71871 3.63293C1.7187 4.04745 1.70784 4.47288 1.74564 4.88488C1.86859 6.22676 2.41675 7.49439 3.31027 8.50309C3.84129 9.10309 4.48113 9.59707 5.19598 9.95897C5.25152 9.98707 5.45998 10.0959 5.51262 10.0977C5.81619 9.95521 6.07159 9.82497 6.35679 9.64208C7.52699 8.89362 8.41892 7.78137 8.89528 6.47652C9.12677 5.84219 9.25579 5.17504 9.27738 4.50014C9.28995 4.17289 9.28135 3.79398 9.28135 3.46402V2.81981C9.28135 2.7152 9.28613 2.56713 9.27899 2.4669C9.1417 2.40172 8.9607 2.33206 8.81804 2.27289L7.97983 1.92503L6.27977 1.21901C6.16359 1.17073 5.56042 0.905566 5.48769 0.902602C5.3202 0.966394 5.14165 1.04436 4.9753 1.11348L4.07019 1.48953L1.72144 2.46561Z" fill="#4D7B2E"/>
<path d="M7.1226 3.7829C7.13308 3.78213 7.14361 3.78158 7.15408 3.78126C7.2752 3.77664 7.38278 3.81459 7.47173 3.89803C7.55519 3.97656 7.60326 4.08558 7.60493 4.20017C7.60718 4.32715 7.55643 4.43663 7.46743 4.52471C7.30769 4.68278 7.14925 4.84234 6.99037 5.00122L5.98678 6.00458L5.52943 6.46268C5.46777 6.5244 5.34018 6.65878 5.275 6.70712C5.20337 6.76094 5.11608 6.78984 5.02649 6.78935C4.94064 6.78962 4.85667 6.76421 4.78541 6.71636C4.72582 6.67586 4.54648 6.48776 4.4859 6.42713L3.86669 5.80821C3.78672 5.7255 3.70034 5.64483 3.61986 5.56233C3.56511 5.5062 3.5012 5.45066 3.45902 5.38454C3.42762 5.33518 3.40727 5.27962 3.39936 5.22167C3.38286 5.10535 3.41381 4.98729 3.48525 4.89402C3.56014 4.79785 3.64947 4.74937 3.76817 4.73319C4.00421 4.70101 4.1306 4.85404 4.27975 5.00604C4.31374 5.04067 4.35073 5.07709 4.38587 5.11227L4.82977 5.55679C4.88461 5.61169 4.94612 5.67367 5.00315 5.7269C5.01819 5.73726 5.03009 5.74215 5.04492 5.72915C5.08564 5.69349 5.12405 5.65256 5.16214 5.61405L5.39392 5.381L6.44907 4.32606L6.73454 4.04026C6.86855 3.90618 6.92758 3.81528 7.1226 3.7829Z" fill="#4D7B2E"/>
</g>
<defs>
<clipPath id="clip0_37_191">
<rect width="11" height="11" fill="white"/>
</clipPath>
</defs>
</svg>
