<?xml version="1.0" encoding="UTF-8"?>
<svg id="Layer_1" data-name="Layer 1" xmlns="http://www.w3.org/2000/svg" viewBox="0 0 950 950">
  <defs>
    <style>
      .cls-1 {
        fill: #fff;
      }

      .cls-1, .cls-2, .cls-3 {
        fill-rule: evenodd;
      }

      .cls-4, .cls-3 {
        fill: #e50013;
      }

      .cls-2 {
        fill: #ebe700;
      }
    </style>
  </defs>
  <rect class="cls-4" width="950" height="475"/>
  <g>
    <g>
      <path class="cls-1" d="m82.08,117.11c-14.98,5.16-25.61,12.75-35.05,19.38v-53.32c78.76-9.55,137.25-6.42,144.17,27.65,4.85,23.9-9.94,42.13-37.03,61.72-3.01,72.25,63.67,105.45,114.24,73.94,7.9,9.22,19.19,19.17,27.09,28.39-49.76,21.22-101,25.11-137.87-8.02-20.39-18.32-33.28-44.31-41.23-79.74-7.54,21.08-16.96,42.61-29.01,62.27-12.84-7.9-26.91-15.98-39.75-23.88,19.48-30.06,32.78-60.84,42.83-95.91,3.35-11.71-.52-15.18-8.39-12.47h0Zm72.59,6.61c.96-10.35-13.84-13.36-29.62-13.45-.44,16.3-1.21,33.29-2.96,48.6,18.46-11.31,31.5-23.45,32.59-35.15Z"/>
      <path class="cls-1" d="m187.98,236.47c10.4-30.37,15.77-61.01,14.32-94.66,13.25-4.77,25.75-9.17,39-13.95-6.6,36.65-11.97,74.87-21.85,108.61h-31.47Zm17.04-111.2c6.37,7.53,21.04,2.06,31.35-8.15,10.47-10.36,11.13-21.31,4.57-26.72-8.4-6.92-19.85-3.84-28.17,5.37-12.48,13.8-11.23,25.38-7.74,29.5Z"/>
      <path class="cls-1" d="m285.85,164.55c9.37-4.22,16.74.62,20.49,10.37,10.37-9.55,20.74-19.09,31.1-28.64-8.81-14.42-21.92-22.28-40.86-20.06-19.33,2.27-49.93,26.28-57.49,59.12-7.17,31.15,8.15,51.21,36.26,51.56,18.42.23,32.44-7.38,44.55-16.07-3.79-6.17-6.82-11.12-10.6-17.29-17.68,14.56-48.48,7.42-44.19-12.1,2.26-10.3,8.91-21.58,20.74-26.91Z"/>
      <path class="cls-1" d="m387.04,236.27c12.87-35.3,16.48-70.24,7.38-73.92-6.65-2.69-23.22,6.21-24.97,13.69-4.73,20.2-8.49,40.51-14.34,60.23h-28.61c13.1-46.33,16.01-88.89,19.13-133.05,14.65-4.77,28.18-9.17,42.82-13.94-1.87,19.07-6.7,35.45-11.05,53.75,19.63-16.53,39.85-14.93,47.09-2.04,8.14,14.5,12.83,38.47-9.88,95.29h-27.58Z"/>
      <path class="cls-1" d="m463.68,211.06l64.93-45.55c-11.93-19.55-36.06-38.89-63.19-24.94-22.23,11.43-40.42,41.74-29.75,70.97,7.13,19.53,28.63,33.14,58.75,20.61,13.4-5.58,23.8-18.76,31.1-34.44l-15.48-10.86c-3.83,15.12-32.73,43.07-46.36,24.2h0Zm3.52-47c15.54-9.49,25.54-1.44,28.37,1.08l-39.53,27.09c-2.64-7.02,2.46-22.86,11.16-28.17Z"/>
      <path class="cls-1" d="m561.39,211.06l64.93-45.55c-11.93-19.55-36.06-38.89-63.19-24.94-22.23,11.43-40.42,41.74-29.75,70.97,7.13,19.53,28.63,33.14,58.75,20.61,13.4-5.58,23.8-18.76,31.1-34.44l-15.48-10.86c-3.83,15.12-32.73,43.07-46.36,24.2h0Zm3.52-47c15.54-9.49,25.54-1.44,28.37,1.08l-39.53,27.09c-2.64-7.02,2.46-22.86,11.16-28.17Z"/>
      <path class="cls-1" d="m737.16,211.06l64.93-45.55c-11.93-19.55-36.06-38.89-63.19-24.94-22.23,11.43-40.42,41.74-29.75,70.97,7.13,19.53,28.63,33.14,58.75,20.61,13.4-5.58,23.8-18.76,31.1-34.44l-15.48-10.86c-3.83,15.12-32.73,43.07-46.36,24.2h0Zm3.52-47c15.54-9.49,25.54-1.44,28.37,1.08l-39.53,27.09c-2.64-7.02,2.46-22.86,11.16-28.17Z"/>
      <path class="cls-1" d="m655.31,155.14c8.14-9.99,29,5.76,38.29,26.1,6.05-10.9,12.81-20.63,18.86-31.53-11.49-8.96-26.4-13.09-42.95-11.85-14.38,1.08-36.95,10.58-38.89,26.78-2.08,17.33,12.54,25.8,18.89,29.65,9.39,5.7,26.52,16.75,21.88,22.46-8.38,10.3-31.83-6.04-40.02-16.99-3.95,9.38-7,16.25-10.95,25.63,13.55,7.24,25.98,11.88,39.1,10.83,25.52-2.05,36.71-9.51,42.37-21.72,4.47-9.66-4.11-22.07-14.58-29.67-14.19-10.29-39.79-20.11-31.98-29.7Z"/>
      <path class="cls-1" d="m773.79,255.07c-68.26,3.98-341.54,8.39-445.08,35.61l-30.59-33.57c140.64-8.48,481.69-13.31,490.55-4.41l-14.87,2.38Z"/>
    </g>
    <g>
      <g>
        <path class="cls-2" d="m584.81,288.4c-23.41.86-45.85,1.69-69.26,2.55-.41-1.36-1.07-3.61-2.22-3.27-10.29,3.06-14.82,22.3.06,25.06-1.66,6.56-7.92,16.64-13.16,23.88-7.86.97-17.08,1-20.1,9.38-1.41,3.92,1.2,6.39,3.67,6.23l5.22.35c-1.47,8.56-14.41,28.5-13.01,32.77.75,2.29-1.48,6.75,1.29,7.37,6.44,1.08,7.09,5.62,12.15,8.27,4.48,2.35,7.23-3.14,8.15-7.79.57-2.86-.32-6.22-.73-9.02,3.58-13.02,11.79-20.46,14.18-31.34,8.76-.37,15.36-.55,24.12-.92,12.52-.95,7.59-11.11,14.94-17.17-8.72-.08-16.58-.16-25.3-.24,4.6-6.86,8.05-18.32,7.22-22.83,15.85-1.77,27.01-2.2,41.29-5.49,8.9-1.3,10.63-11.44,11.49-17.8Z"/>
        <path class="cls-1" d="m583.27,289.58c-20.83-.19-41.15.93-61.28,2.78,1.38.65,38.18.93,57.27,1.39,3.3-.9,4.01-2.45,4.01-4.17Z"/>
      </g>
      <g>
        <path class="cls-2" d="m605.1,335.76c-1.92,2.56-3.15,4.47-7.22,5.55-2.37-15.86-15.48-17.17-29.59-9.38-16.42,9.06-25.7,20.95-33.17,36.97-3.44,7.38-5.79,19.88-1.31,22.49,4.44,2.58,6.55,4.1,10.18,9.04,1.91,2.6,9.75-1.09,13.15-3.34,6.83-4.53,14.72-16.61,18.59-16.15,1.43.59-1.13,9.63-.87,11.9.57,4.89,6.98,4.67,8.73,8.33,2.91,6.08,14.97-7.51,14.97-10.58,0-2.59-6.8,6.08-9.44,4.75-2.98-1.5-.53-7.56,2.53-12.62,8.66-14.34,15.79-27.43,23.58-42.16,3.32-6.28-8.71-6.7-10.13-4.81h0Zm-52.79,50.43c-5.96,4.58-8.56-.16-5.18-6.91,6.66-13.35,21.33-26.53,34.54-35.51,8.42-5.72,15.45-.11,9.37,8.32-8.92,12.36-23.5,22.41-38.73,34.1Z"/>
        <path class="cls-1" d="m583.53,330.26c5.16-.03,6.95,5.26,10.24,6.85,6.39,3.09-.86-8.3-8.98-9.01-13.71-1.19-32.9,15.93-34.59,18.82.85,1.11,21.9-16.59,33.33-16.66Z"/>
      </g>
      <g>
        <path class="cls-2" d="m666.42,348.2c-1.62,4.08-5.07,8.24-10.95,13.12-2.3.17-7.36.47-7.96-.71-1.05-1.6.28-3.32,1.76-4.66,3.45-3.24,6.47-6.19,8.39-10.55,1.9-5.58-2.64-7.41-6.76-4.94-7.82,4.69-24.77,19.3-30.54,38.02-1.99,6.47-.19,9.98,5.92,9.63,9.28-.53,16.9-6.14,26.07-12.67,4.14-2.96,7.13,4.81,2.07,11.38-7.81,10.14-17.51,14.09-31.91,11.33-6.42-1.23-17.36-6.46-16.66-20.03.74-14.4,6.65-26.26,17.28-36.04,14.82-13.64,28.24-17.38,38.2-9.87,5.41,4.08,7.54,9.03,5.09,16.02Z"/>
        <path class="cls-1" d="m648.84,332.61c5.16-.06,6.72,1.24,10.16,2.48,6.68,2.41,1.43-6.38-9.62-6.18-13.76.26-31.07,19.27-32.45,22.32.96,1.02,18.58-18.46,31.91-18.62Z"/>
      </g>
      <g>
        <path class="cls-2" d="m773.53,350.2c.25-3.15-3.46-8.3-7.28-10.74-.09-2.08,1.34-4.3.25-6.03-4.72-7.47-13.54-8.66-24.44-4.34-21.4,8.49-37.44,36.22-36.3,47.4.83,8.12,4.33,15.87,8.66,16.56,2.6.42,5.39-1.01,7.87,1.36.68.64,5.39,3.83,9.07,4.07,10.37.67,27.37-14.37,31.69-20.89,5.85-8.83,9.83-19.03,10.49-27.4h0Zm-16.93-3.29c3.87.21-.02,8.51-3.35,13.59-6.26,9.57-14.49,20.48-24.41,26.35-5.23,3.1-7.96.15-7.28-7.41.72-7.99,11.94-27.25,27.59-36.01,3.27-1.83,6.61-2.13,5.86.22-.45,1.42-6.34,4.85-3.71,4.58,2.5-.26,2.65-1.47,5.3-1.32Z"/>
        <path class="cls-1" d="m750.46,331.02c5.16-.06,6.72,1.24,10.16,2.48,6.68,2.41,1.43-6.38-9.62-6.18-13.76.26-31.07,19.27-32.45,22.32.96,1.02,18.58-18.46,31.91-18.62Z"/>
      </g>
      <g>
        <path class="cls-2" d="m673.55,345.82c-4.86-2.37-3.99-9.52,1.3-15.37,2.51-2.85,2.31,1.44,3.7,2.35,3.83.08,9.41.01,13.24.09,7.16-11.18,14.4-21.52,22.5-32.31,6.86-9.14,10.37.82,9.75,4.94-1.4,9.37-8.31,17.71-12.47,26.23,4.36,0,7.83-.28,12.22-.68,2.44-.17-.94,9.1-6.29,11.23-4.11.41-8.2.61-12.78,1.2-7.41,13.37-14.23,25.93-21.12,38.93-3.9,7.36,2.26,11.51,3.54,5.45l5.72-.05c4,.47-7.49,9.51-11.26,9.66-6.44.26-7.59-7.35-12.26-9.62-3.55-1.73-.46-8.24.68-11.89,2.62-8.35,7.83-19.66,12.52-27.5-2.27-3.66-5.35-1.7-9-2.68Z"/>
        <path class="cls-1" d="m712.8,308.57c1.29-1.87,1.08-3.76.56-5.31-8.06,10.51-15.43,20.81-21.3,30.45-4.32-.61-8.58-.1-12.9-.3.57,1.25,2.02,1.93,3.83,2.68,3.18.41,5.92.36,9.01.4,1.59-.36,2.85-.98,3.7-2.25,5.72-8.85,11.38-16.83,17.1-25.67Z"/>
      </g>
      <g>
        <path class="cls-2" d="m781.02,333.97c-2.85.66-6.79,4.08-8.66,2.62-1.33-1.04,10.07-10.3,15.66-10.57,6.24-.21,11.29,7.6,11.52,10.64.4,5.27-1.11,10.03-3.06,15.02-1.51,3.86.66,5.67,3.1,1.9,5.45-8.41,11.37-15.31,17.76-21.71,4.23-4.14,7.74-4.61,10.49-1.17,1.07,2.43,4.79,2.34,5.43,4.69,2.3,8.44-6.97,21.26-10.86,36.04-.57,2.17-4.56.28-7.99.8-1.67.26-4.32-1.97-3.86-5.25.96-6.82.55-10.35-2.41-7.04-9.14,13.1-16.92,23.95-27.09,37.09-1.85,3-5.17,3.89-7.16.28-1.45-2.63-3.38-3.8-5.55-4.17-2.66-.45-5.3-4.03-4.13-6.85,6.68-15.98,14.38-31,19.93-47.46,1.42-4.23.29-5.67-3.12-4.88Z"/>
        <g>
          <path class="cls-1" d="m788.23,338.38c2.46-5.53-3.45-7.65-2.47-3.86-.42,8.37-8.47,23.74-13.7,35.95,6.39-9.45,11.75-20.18,16.17-32.09Z"/>
          <path class="cls-1" d="m821.01,333.47c.64-1.77.04-3.85-2.01-2.62-6.98,7.02-15.35,16.84-18.05,21.76,6.32-6.8,12.74-13.49,20.06-19.13Z"/>
        </g>
      </g>
      <g>
        <path class="cls-2" d="m867.77,335.19c2.8-3.34-2.1-2.79-3.49-4.46-2.79-3.34-5.82-4.62-8.65-2.59-15.2,11.02-25.77,28.77-29.89,48.79-1.07,5.19-.45,9.08,2.68,12.44,1.86,1.99,4.64.69,6.26,2.19,2.34,2.16,3.13,3.66,5.68,4.94,3.62,1.81,5.86-.81,7.93-2.01,11.03-6.36,17.99-17.03,20.09-15.55,2.73,1.74-14.25,30.67-29.44,44.84-2.51,2.34-6.83,3.79-7.13-2.59-.09-2.05.7-6.37-2.99-5.31-2.97.85-3.26,9.62-1.48,15.8.91,2.61,7.67,6.71,13.82,6.82,7.71-.28,12.1-4.59,17-10.4,20.49-24.32,31.78-48.89,43.85-80.54,2.44-6.41-.28-8.52-2.84-11.17-4.18-4.33-7.45-4.47-10.21-.9-11.64,15.02-24.54,28.02-38.17,41.41-3.98,3.46-8.97,2.54-7.16-2.25,5.35-14.2,15.64-26.29,24.13-39.45Z"/>
        <path class="cls-1" d="m855.57,333.59c4.35-3.07,2.67-6.96-.75-4.33-12.59,9.65-22.57,26.55-24,34.31,7.25-11.13,14.6-22.59,24.74-29.97Z"/>
        <path class="cls-1" d="m890.14,339.68c2.15-2.85,1.86-6.66-.83-3.95-9.24,12.64-20.29,23.24-31.44,34.81.96.6,22.21-19.19,32.28-30.86Z"/>
      </g>
    </g>
  </g>
  <g>
    <g>
      <path class="cls-3" d="m82.08,564.55c-14.98,5.16-25.61,12.75-35.05,19.38v-53.32c78.76-9.55,137.25-6.42,144.17,27.65,4.85,23.9-9.94,42.13-37.03,61.72-3.01,72.25,63.67,105.45,114.24,73.94,7.9,9.22,19.19,19.17,27.09,28.39-49.76,21.22-101,25.11-137.87-8.02-20.39-18.32-33.28-44.31-41.23-79.74-7.54,21.08-16.96,42.61-29.01,62.27-12.84-7.9-26.91-15.98-39.75-23.88,19.48-30.06,32.78-60.84,42.83-95.91,3.35-11.71-.52-15.18-8.39-12.47h0Zm72.59,6.61c.96-10.35-13.84-13.36-29.62-13.45-.44,16.3-1.21,33.29-2.96,48.6,18.46-11.31,31.5-23.45,32.59-35.15Z"/>
      <path class="cls-3" d="m187.98,683.91c10.4-30.37,15.77-61.01,14.32-94.66,13.25-4.77,25.75-9.17,39-13.95-6.6,36.65-11.97,74.87-21.85,108.61h-31.47Zm17.04-111.2c6.37,7.53,21.04,2.06,31.35-8.15,10.47-10.36,11.13-21.31,4.57-26.72-8.4-6.92-19.85-3.84-28.17,5.37-12.48,13.8-11.23,25.38-7.74,29.5Z"/>
      <path class="cls-3" d="m285.85,612c9.37-4.22,16.74.62,20.49,10.37,10.37-9.55,20.74-19.09,31.1-28.64-8.81-14.42-21.92-22.28-40.86-20.06-19.33,2.27-49.93,26.28-57.49,59.12-7.17,31.15,8.15,51.21,36.26,51.56,18.42.23,32.44-7.38,44.55-16.07-3.79-6.17-6.82-11.12-10.6-17.29-17.68,14.56-48.48,7.42-44.19-12.1,2.26-10.3,8.91-21.58,20.74-26.91Z"/>
      <path class="cls-3" d="m387.04,683.72c12.87-35.3,16.48-70.24,7.38-73.92-6.65-2.69-23.22,6.21-24.97,13.69-4.73,20.2-8.49,40.51-14.34,60.23h-28.61c13.1-46.33,16.01-88.89,19.13-133.05,14.65-4.77,28.18-9.17,42.82-13.94-1.87,19.07-6.7,35.45-11.05,53.75,19.63-16.53,39.85-14.93,47.09-2.04,8.14,14.5,12.83,38.47-9.88,95.29h-27.58Z"/>
      <path class="cls-3" d="m463.68,658.5l64.93-45.55c-11.93-19.55-36.06-38.89-63.19-24.94-22.23,11.43-40.42,41.74-29.75,70.97,7.13,19.53,28.63,33.14,58.75,20.61,13.4-5.58,23.8-18.76,31.1-34.44l-15.48-10.86c-3.83,15.12-32.73,43.07-46.36,24.2h0Zm3.52-47c15.54-9.49,25.54-1.44,28.37,1.08l-39.53,27.09c-2.64-7.02,2.46-22.86,11.16-28.17Z"/>
      <path class="cls-3" d="m561.39,658.5l64.93-45.55c-11.93-19.55-36.06-38.89-63.19-24.94-22.23,11.43-40.42,41.74-29.75,70.97,7.13,19.53,28.63,33.14,58.75,20.61,13.4-5.58,23.8-18.76,31.1-34.44l-15.48-10.86c-3.83,15.12-32.73,43.07-46.36,24.2h0Zm3.52-47c15.54-9.49,25.54-1.44,28.37,1.08l-39.53,27.09c-2.64-7.02,2.46-22.86,11.16-28.17Z"/>
      <path class="cls-3" d="m737.16,658.5l64.93-45.55c-11.93-19.55-36.06-38.89-63.19-24.94-22.23,11.43-40.42,41.74-29.75,70.97,7.13,19.53,28.63,33.14,58.75,20.61,13.4-5.58,23.8-18.76,31.1-34.44l-15.48-10.86c-3.83,15.12-32.73,43.07-46.36,24.2h0Zm3.52-47c15.54-9.49,25.54-1.44,28.37,1.08l-39.53,27.09c-2.64-7.02,2.46-22.86,11.16-28.17Z"/>
      <path class="cls-3" d="m655.31,602.59c8.14-9.99,29,5.76,38.29,26.1,6.05-10.9,12.81-20.63,18.86-31.53-11.49-8.96-26.4-13.09-42.95-11.85-14.38,1.08-36.95,10.58-38.89,26.78-2.08,17.33,12.54,25.8,18.89,29.65,9.39,5.7,26.52,16.75,21.88,22.46-8.38,10.3-31.83-6.04-40.02-16.99-3.95,9.38-7,16.25-10.95,25.63,13.55,7.24,25.98,11.88,39.1,10.83,25.52-2.05,36.71-9.51,42.37-21.72,4.47-9.66-4.11-22.07-14.58-29.67-14.19-10.29-39.79-20.11-31.98-29.7Z"/>
      <path class="cls-3" d="m773.79,702.52c-68.26,3.98-341.54,8.39-445.08,35.61l-30.59-33.57c140.64-8.48,481.69-13.31,490.55-4.41l-14.87,2.38Z"/>
    </g>
    <g>
      <g>
        <path class="cls-2" d="m584.81,735.85c-23.41.86-45.85,1.69-69.26,2.55-.41-1.36-1.07-3.61-2.22-3.27-10.29,3.06-14.82,22.3.06,25.06-1.66,6.56-7.92,16.64-13.16,23.88-7.86.97-17.08,1-20.1,9.38-1.41,3.92,1.2,6.39,3.67,6.23l5.22.35c-1.47,8.56-14.41,28.5-13.01,32.77.75,2.29-1.48,6.75,1.29,7.37,6.44,1.08,7.09,5.62,12.15,8.27,4.48,2.35,7.23-3.14,8.15-7.79.57-2.86-.32-6.22-.73-9.02,3.58-13.02,11.79-20.46,14.18-31.34,8.76-.37,15.36-.55,24.12-.92,12.52-.95,7.59-11.11,14.94-17.17-8.72-.08-16.58-.16-25.3-.24,4.6-6.86,8.05-18.32,7.22-22.83,15.85-1.77,27.01-2.2,41.29-5.49,8.9-1.3,10.63-11.44,11.49-17.8Z"/>
        <path class="cls-1" d="m583.27,737.03c-20.83-.19-41.15.93-61.28,2.78,1.38.65,38.18.93,57.27,1.39,3.3-.9,4.01-2.45,4.01-4.17Z"/>
      </g>
      <g>
        <path class="cls-2" d="m605.1,783.21c-1.92,2.56-3.15,4.47-7.22,5.55-2.37-15.86-15.48-17.17-29.59-9.38-16.42,9.06-25.7,20.95-33.17,36.97-3.44,7.38-5.79,19.88-1.31,22.49,4.44,2.58,6.55,4.1,10.18,9.04,1.91,2.6,9.75-1.09,13.15-3.34,6.83-4.53,14.72-16.61,18.59-16.15,1.43.59-1.13,9.63-.87,11.9.57,4.89,6.98,4.67,8.73,8.33,2.91,6.08,14.97-7.51,14.97-10.58,0-2.59-6.8,6.08-9.44,4.75-2.98-1.5-.53-7.56,2.53-12.62,8.66-14.34,15.79-27.43,23.58-42.16,3.32-6.28-8.71-6.7-10.13-4.81h0Zm-52.79,50.43c-5.96,4.58-8.56-.16-5.18-6.91,6.66-13.35,21.33-26.53,34.54-35.51,8.42-5.72,15.45-.11,9.37,8.32-8.92,12.36-23.5,22.41-38.73,34.1Z"/>
        <path class="cls-1" d="m583.53,777.7c5.16-.03,6.95,5.26,10.24,6.85,6.39,3.09-.86-8.3-8.98-9.01-13.71-1.19-32.9,15.93-34.59,18.82.85,1.11,21.9-16.59,33.33-16.66Z"/>
      </g>
      <g>
        <path class="cls-2" d="m666.42,795.64c-1.62,4.08-5.07,8.24-10.95,13.12-2.3.17-7.36.47-7.96-.71-1.05-1.6.28-3.32,1.76-4.66,3.45-3.24,6.47-6.19,8.39-10.55,1.9-5.58-2.64-7.41-6.76-4.94-7.82,4.69-24.77,19.3-30.54,38.02-1.99,6.47-.19,9.98,5.92,9.63,9.28-.53,16.9-6.14,26.07-12.67,4.14-2.96,7.13,4.81,2.07,11.38-7.81,10.14-17.51,14.09-31.91,11.33-6.42-1.23-17.36-6.46-16.66-20.03.74-14.4,6.65-26.26,17.28-36.04,14.82-13.64,28.24-17.38,38.2-9.87,5.41,4.08,7.54,9.03,5.09,16.02Z"/>
        <path class="cls-1" d="m648.84,780.06c5.16-.06,6.72,1.24,10.16,2.48,6.68,2.41,1.43-6.38-9.62-6.18-13.76.26-31.07,19.27-32.45,22.32.96,1.02,18.58-18.46,31.91-18.62Z"/>
      </g>
      <g>
        <path class="cls-2" d="m773.53,797.65c.25-3.15-3.46-8.3-7.28-10.74-.09-2.08,1.34-4.3.25-6.03-4.72-7.47-13.54-8.66-24.44-4.34-21.4,8.49-37.44,36.22-36.3,47.4.83,8.12,4.33,15.87,8.66,16.56,2.6.42,5.39-1.01,7.87,1.36.68.64,5.39,3.83,9.07,4.07,10.37.67,27.37-14.37,31.69-20.89,5.85-8.83,9.83-19.03,10.49-27.4h0Zm-16.93-3.29c3.87.21-.02,8.51-3.35,13.59-6.26,9.57-14.49,20.48-24.41,26.35-5.23,3.1-7.96.15-7.28-7.41.72-7.99,11.94-27.25,27.59-36.01,3.27-1.83,6.61-2.13,5.86.22-.45,1.42-6.34,4.85-3.71,4.58,2.5-.26,2.65-1.47,5.3-1.32Z"/>
        <path class="cls-1" d="m750.46,778.47c5.16-.06,6.72,1.24,10.16,2.48,6.68,2.41,1.43-6.38-9.62-6.18-13.76.26-31.07,19.27-32.45,22.32.96,1.02,18.58-18.46,31.91-18.62Z"/>
      </g>
      <g>
        <path class="cls-2" d="m673.55,793.27c-4.86-2.37-3.99-9.52,1.3-15.37,2.51-2.85,2.31,1.44,3.7,2.35,3.83.08,9.41.01,13.24.09,7.16-11.18,14.4-21.52,22.5-32.31,6.86-9.14,10.37.82,9.75,4.94-1.4,9.37-8.31,17.71-12.47,26.23,4.36,0,7.83-.28,12.22-.68,2.44-.17-.94,9.1-6.29,11.23-4.11.41-8.2.61-12.78,1.2-7.41,13.37-14.23,25.93-21.12,38.93-3.9,7.36,2.26,11.51,3.54,5.45l5.72-.05c4,.47-7.49,9.51-11.26,9.66-6.44.26-7.59-7.35-12.26-9.62-3.55-1.73-.46-8.24.68-11.89,2.62-8.35,7.83-19.66,12.52-27.5-2.27-3.66-5.35-1.7-9-2.68Z"/>
        <path class="cls-1" d="m712.8,756.01c1.29-1.87,1.08-3.76.56-5.31-8.06,10.51-15.43,20.81-21.3,30.45-4.32-.61-8.58-.1-12.9-.3.57,1.25,2.02,1.93,3.83,2.68,3.18.41,5.92.36,9.01.4,1.59-.36,2.85-.98,3.7-2.25,5.72-8.85,11.38-16.83,17.1-25.67Z"/>
      </g>
      <g>
        <path class="cls-2" d="m781.02,781.42c-2.85.66-6.79,4.08-8.66,2.62-1.33-1.04,10.07-10.3,15.66-10.57,6.24-.21,11.29,7.6,11.52,10.64.4,5.27-1.11,10.03-3.06,15.02-1.51,3.86.66,5.67,3.1,1.9,5.45-8.41,11.37-15.31,17.76-21.71,4.23-4.14,7.74-4.61,10.49-1.17,1.07,2.43,4.79,2.34,5.43,4.69,2.3,8.44-6.97,21.26-10.86,36.04-.57,2.17-4.56.28-7.99.8-1.67.26-4.32-1.97-3.86-5.25.96-6.82.55-10.35-2.41-7.04-9.14,13.1-16.92,23.95-27.09,37.09-1.85,3-5.17,3.89-7.16.28-1.45-2.63-3.38-3.8-5.55-4.17-2.66-.45-5.3-4.03-4.13-6.85,6.68-15.98,14.38-31,19.93-47.46,1.42-4.23.29-5.67-3.12-4.88Z"/>
        <g>
          <path class="cls-1" d="m788.23,785.82c2.46-5.53-3.45-7.65-2.47-3.86-.42,8.37-8.47,23.74-13.7,35.95,6.39-9.45,11.75-20.18,16.17-32.09Z"/>
          <path class="cls-1" d="m821.01,780.92c.64-1.77.04-3.85-2.01-2.62-6.98,7.02-15.35,16.84-18.05,21.76,6.32-6.8,12.74-13.49,20.06-19.13Z"/>
        </g>
      </g>
      <g>
        <path class="cls-2" d="m867.77,782.64c2.8-3.34-2.1-2.79-3.49-4.46-2.79-3.34-5.82-4.62-8.65-2.59-15.2,11.02-25.77,28.77-29.89,48.79-1.07,5.19-.45,9.08,2.68,12.44,1.86,1.99,4.64.69,6.26,2.19,2.34,2.16,3.13,3.66,5.68,4.94,3.62,1.81,5.86-.81,7.93-2.01,11.03-6.36,17.99-17.03,20.09-15.55,2.73,1.74-14.25,30.67-29.44,44.84-2.51,2.34-6.83,3.79-7.13-2.59-.09-2.05.7-6.37-2.99-5.31-2.97.85-3.26,9.62-1.48,15.8.91,2.61,7.67,6.71,13.82,6.82,7.71-.28,12.1-4.59,17-10.4,20.49-24.32,31.78-48.89,43.85-80.54,2.44-6.41-.28-8.52-2.84-11.17-4.18-4.33-7.45-4.47-10.21-.9-11.64,15.02-24.54,28.02-38.17,41.41-3.98,3.46-8.97,2.54-7.16-2.25,5.35-14.2,15.64-26.29,24.13-39.45Z"/>
        <path class="cls-1" d="m855.57,781.03c4.35-3.07,2.67-6.96-.75-4.33-12.59,9.65-22.57,26.55-24,34.31,7.25-11.13,14.6-22.59,24.74-29.97Z"/>
        <path class="cls-1" d="m890.14,787.12c2.15-2.85,1.86-6.66-.83-3.95-9.24,12.64-20.29,23.24-31.44,34.81.96.6,22.21-19.19,32.28-30.86Z"/>
      </g>
    </g>
  </g>
</svg>