<svg width="26" height="26" viewBox="0 0 26 26" fill="none" xmlns="http://www.w3.org/2000/svg">
<g clip-path="url(#clip0_65_347)">
<path d="M7.34998 25.9338C7.08605 25.9441 6.89067 25.8267 6.71255 25.6428C6.55487 25.4801 6.39123 25.3186 6.23102 25.1582L4.8471 23.7741L2.08663 21.0135L1.20342 20.1316C0.974016 19.903 0.595188 19.5934 0.513304 19.2833C0.379368 18.7757 0.760099 18.4944 1.07609 18.1781L2.02646 17.2277L5.74364 13.5105L14.2874 4.9669L17.1175 2.13673C17.5892 1.66498 18.0614 1.19017 18.5352 0.72019C18.6797 0.57686 18.8113 0.521255 19.0072 0.480631C19.4154 0.45981 19.5935 0.658237 19.8578 0.927885C19.9992 1.0721 20.1471 1.21874 20.2899 1.36194L21.7403 2.81174L24.3791 5.45097L25.2233 6.29394C25.4571 6.52703 25.8092 6.80467 25.885 7.12917C26.0058 7.64688 25.5985 7.93837 25.2757 8.26146L24.2721 9.26515L20.3739 13.1632L11.9948 21.5421L9.23904 24.298L8.32778 25.2096C8.1602 25.3772 7.99401 25.5462 7.82314 25.7104C7.67194 25.8556 7.54904 25.8956 7.34998 25.9338ZM9.19575 22.1211L8.16972 21.1169C8.02131 20.9717 7.87277 20.8257 7.72449 20.6803C7.54892 20.508 7.4499 20.3291 7.44812 20.0776C7.44533 19.8689 7.52695 19.668 7.67447 19.5204C7.94209 19.2545 8.31076 19.1848 8.63894 19.3863C8.7876 19.4775 8.91379 19.625 9.03846 19.7463C9.46527 20.1617 9.87572 20.5998 10.3046 21.0124L11.2883 20.0285L9.15132 17.9145L8.60022 17.3684C8.47441 17.2447 8.32282 17.1204 8.22228 16.9736C7.85043 16.4305 8.28994 15.7723 8.9096 15.7677C9.24336 15.7652 9.49346 16.0469 9.71131 16.2626L10.2473 16.7943L11.627 18.1588C11.8743 18.4042 12.144 18.6843 12.3959 18.9207L13.3506 17.9664L12.3014 16.9178C12.0121 16.6286 11.6145 16.3411 11.614 15.903C11.6138 15.6883 11.7005 15.4828 11.8544 15.3331C12.0061 15.1843 12.1984 15.1037 12.4114 15.1027C12.8264 15.1007 13.1005 15.4682 13.3763 15.7382L14.4897 16.8268L15.4447 15.8722L14.3745 14.8037C14.0876 14.5169 13.7107 14.2478 13.7078 13.8131C13.7064 13.5997 13.7908 13.3948 13.9421 13.2444C14.0903 13.0952 14.2917 13.0112 14.5019 13.0107C14.911 13.0138 15.1039 13.2944 15.375 13.5516C15.4351 13.6085 15.4933 13.6683 15.5523 13.7265L16.5806 14.7357L17.5356 13.782L15.4043 11.6257L14.8423 11.0589C14.7283 10.9441 14.5864 10.8226 14.4949 10.687C14.1389 10.1588 14.5573 9.51195 15.1583 9.48986C15.523 9.47653 15.789 9.7849 16.0234 10.0229L16.559 10.5653C17.2429 11.2588 17.9508 11.9927 18.6444 12.6727L19.6291 11.6881L18.2405 10.2992C18.0942 10.1583 17.9415 10.0322 17.8666 9.83797C17.7659 9.57708 17.8084 9.25741 18.0101 9.05492C18.1566 8.90778 18.4073 8.78083 18.6164 8.77905C18.7622 8.77854 18.905 8.82044 19.0273 8.89965C19.188 9.00401 19.4366 9.28255 19.5874 9.42803C19.971 9.79798 20.3519 10.2149 20.7388 10.5784L21.7221 9.59587L20.601 8.47525C20.4938 8.3681 20.381 8.25004 20.272 8.14771C20.0484 7.93748 19.9154 7.78463 19.9069 7.46039C19.8918 6.88961 20.61 6.49859 21.0916 6.78728C21.288 6.91144 21.5339 7.19378 21.7112 7.37139L22.8286 8.48858L24.0295 7.28773L20.7036 3.98162C20.1771 3.4587 19.6393 2.90772 19.1071 2.39432L2.39399 19.1076L5.75241 22.4419L6.79824 23.4834C6.92964 23.6142 7.18634 23.8859 7.31875 23.9976C7.93828 23.3834 8.58917 22.7455 9.19575 22.1211Z" fill="url(#paint0_linear_65_347)"/>
</g>
<defs>
<linearGradient id="paint0_linear_65_347" x1="13.1962" y1="25.9344" x2="13.1962" y2="0.479132" gradientUnits="userSpaceOnUse">
<stop stop-color="#4A750C"/>
<stop offset="1" stop-color="#8BDB16"/>
</linearGradient>
<clipPath id="clip0_65_347">
<rect width="26" height="26" fill="white" transform="matrix(-1 0 0 -1 26 26)"/>
</clipPath>
</defs>
</svg>
