<svg width="36" height="36" viewBox="0 0 36 36" fill="none" xmlns="http://www.w3.org/2000/svg">
<path d="M15.3284 2.2582C17.5644 2.18579 19.7831 2.67314 21.7827 3.67596C25.0008 5.29197 27.4443 8.12092 28.5753 11.5397C29.6377 14.7653 29.4377 18.2739 28.0158 21.3579C27.789 21.8494 27.5327 22.3268 27.2483 22.7874C27.1029 23.0221 26.8627 23.3372 26.7489 23.5744C26.7716 23.5956 26.7943 23.6171 26.8164 23.6387C28.2937 25.0729 29.7775 26.5973 31.2377 28.0563L32.5458 29.3625C32.7636 29.5803 33.183 29.9797 33.3474 30.217C33.6054 30.5896 33.745 31.0315 33.748 31.4849C33.7513 32.0862 33.5133 32.664 33.0874 33.0887C32.6713 33.512 32.1025 33.7505 31.5089 33.7503C30.5324 33.7484 30.1041 33.29 29.466 32.6515L28.6249 31.809L25.638 28.822C24.9628 28.1473 24.2527 27.409 23.5648 26.7569C23.3811 26.8515 23.1317 27.0311 22.951 27.1476C22.6796 27.3224 22.4011 27.4862 22.1167 27.6388C17.1141 30.3534 10.8433 29.5875 6.65755 25.7215C4.0136 23.3161 2.43375 19.9587 2.26571 16.3883C2.09543 12.8053 3.35977 9.30216 5.77903 6.6538C8.31784 3.92003 11.5933 2.39648 15.3284 2.2582ZM15.8993 26.9933C22.1053 26.9098 27.0701 21.8139 26.9917 15.6079C26.9133 9.40189 21.8216 4.43293 15.6155 4.50609C9.40209 4.57933 4.42599 9.6784 4.50442 15.8918C4.58284 22.105 9.68607 27.077 15.8993 26.9933Z" fill="url(#paint0_linear_37_185)"/>
<path d="M6.75695 11.9586C7.07501 12.0685 7.71109 12.3669 8.03815 12.5086L10.6449 13.6383L13.2224 14.7549C13.6245 14.9287 14.255 15.1775 14.6218 15.3717C14.6562 17.1428 14.6251 19.0104 14.6259 20.7895L14.6278 22.3926C14.628 22.5858 14.6389 23.0704 14.611 23.2381C14.4595 23.1579 14.1558 23.0396 13.9904 22.9691L12.8476 22.4805L9.2178 20.9243L8.01037 20.4096C6.78013 19.8851 6.75069 19.7931 6.75021 18.469L6.75023 16.9094L6.75069 13.8168C6.75055 13.2043 6.74179 12.5682 6.75695 11.9586Z" fill="url(#paint1_linear_37_185)"/>
<path d="M24.7258 12.0048C24.768 12.0559 24.7514 12.9623 24.7514 13.1233L24.7506 15.19L24.7516 17.7247C24.7518 18.1635 24.7514 18.6263 24.7486 19.0563C24.743 19.9373 24.1487 20.1408 23.4514 20.4275C23.2179 20.5237 22.9646 20.6351 22.7287 20.7357L18.5717 22.5186L17.4865 22.9797C17.3136 23.0526 17.0504 23.1462 16.9022 23.2439C16.857 23.1402 16.8753 21.6747 16.8753 21.4499L16.8753 18.3693L16.8753 16.4387C16.8751 16.1199 16.8611 15.6495 16.8854 15.3476C17.0583 15.2981 17.4783 15.1053 17.6571 15.0285L19.1444 14.3903L22.6046 12.9057C23.3046 12.6053 24.0214 12.2882 24.7258 12.0048Z" fill="url(#paint2_linear_37_185)"/>
<path d="M15.6536 6.75626C16.0889 6.74064 16.4485 6.94811 16.8412 7.11646L18.1677 7.6859L21.7791 9.23306C22.3682 9.48548 23.0411 9.79491 23.6308 10.0249C23.4603 10.0782 23.027 10.2833 22.8445 10.362L21.221 11.058L15.8965 13.3424C15.8521 13.3617 15.7755 13.4002 15.7326 13.3856C15.58 13.3335 15.4138 13.2559 15.2664 13.1916L14.2387 12.7425L9.84767 10.8435L8.69595 10.342C8.46928 10.2425 8.12247 10.075 7.89453 10.0221C8.42924 9.80918 9.06847 9.51195 9.60915 9.28031L13.4414 7.6389L14.5757 7.15079C14.906 7.00856 15.3092 6.80445 15.6536 6.75626Z" fill="url(#paint3_linear_37_185)"/>
<defs>
<linearGradient id="paint0_linear_37_185" x1="17.9993" y1="2.25116" x2="17.9993" y2="33.7503" gradientUnits="userSpaceOnUse">
<stop stop-color="#8EB457"/>
<stop offset="1" stop-color="#3E6E24"/>
</linearGradient>
<linearGradient id="paint1_linear_37_185" x1="10.693" y1="11.9586" x2="10.693" y2="23.2381" gradientUnits="userSpaceOnUse">
<stop stop-color="#8EB457"/>
<stop offset="1" stop-color="#3E6E24"/>
</linearGradient>
<linearGradient id="paint2_linear_37_185" x1="20.8129" y1="12.0048" x2="20.8129" y2="23.2439" gradientUnits="userSpaceOnUse">
<stop stop-color="#8EB457"/>
<stop offset="1" stop-color="#3E6E24"/>
</linearGradient>
<linearGradient id="paint3_linear_37_185" x1="15.7627" y1="6.75543" x2="15.7627" y2="13.3888" gradientUnits="userSpaceOnUse">
<stop stop-color="#8EB457"/>
<stop offset="1" stop-color="#3E6E24"/>
</linearGradient>
</defs>
</svg>
