<svg width="26" height="26" viewBox="0 0 26 26" fill="none" xmlns="http://www.w3.org/2000/svg">
<path d="M11.4612 0.0511653C11.9657 0.0263975 12.6213 0.0765465 13.0936 0.0352522C15.4934 -0.174507 15.1748 0.535168 15.4904 2.6122C16.7354 2.97267 17.4675 3.3007 18.5958 3.90127C19.0023 3.57179 20.5052 2.3547 20.9387 2.70689C21.6822 3.31109 22.9444 4.41482 23.3921 5.25315C23.5392 5.52854 22.3114 7.08689 22.089 7.47336C22.7754 8.50133 23.0392 9.36111 23.3886 10.514C23.8385 10.5885 25.3556 10.7934 25.6926 11.0078C26.1833 11.32 25.9243 13.3782 25.9831 13.9402C26.0192 14.2857 25.9498 14.7053 25.7473 15.0169C25.1409 15.2885 24.0785 15.4173 23.3991 15.5025C22.8822 16.8335 22.8947 17.1663 22.0818 18.573C22.3891 18.9613 23.2164 20.1278 23.3654 20.4896C23.5943 21.0455 21.2072 23.1817 20.738 23.3937C20.4674 23.5161 18.8606 22.3106 18.539 22.1236C17.3226 22.7662 16.8246 22.9579 15.5237 23.3953C15.3223 24.1165 15.3391 25.1631 14.9542 25.7613C14.8511 25.9215 14.6377 25.9623 14.4581 25.983C13.4883 26.002 12.501 26.0019 11.5335 25.9978C11.3609 25.9971 11.0691 25.8229 11.0009 25.6738C10.7228 25.0665 10.6326 24.0294 10.5363 23.3859C9.27112 23.029 8.58786 22.735 7.45593 22.0951C6.90946 22.4205 6.01401 23.1467 5.50108 23.3755C4.99814 23.5999 2.74734 21.1558 2.6105 20.7256C2.62882 20.2232 3.58003 19.0934 3.90983 18.5569C3.27272 17.4921 2.97562 16.6795 2.64929 15.5044C2.12698 15.4053 0.565048 15.2258 0.288114 15.0192C-0.118521 14.7158 -0.0490464 11.6406 0.214607 11.0754C0.26966 10.9573 0.629175 10.8528 0.732532 10.8322C1.34343 10.7105 1.96155 10.6187 2.57626 10.5206C2.62636 10.4126 2.6776 10.2703 2.71306 10.1553C3.01209 9.18628 3.41925 8.34576 3.90215 7.45797C3.51822 6.79889 2.75137 5.99308 2.57267 5.29375C2.78981 4.68354 4.57889 2.93125 5.20587 2.61773C5.54548 2.44786 7.035 3.65719 7.48354 3.90315C8.50427 3.25323 9.3576 2.97539 10.4838 2.62053C10.6807 1.9006 10.6653 0.991904 10.991 0.334176C11.0836 0.147255 11.2739 0.0952213 11.4612 0.0511653ZM13.3781 19.2705C16.8319 19.0621 19.466 16.0983 19.2679 12.6436C19.0699 9.18887 16.1142 6.54564 12.6592 6.73344C9.18968 6.92207 6.53312 9.8932 6.73203 13.3625C6.93099 16.8318 9.90972 19.4798 13.3781 19.2705Z" fill="url(#paint0_linear_65_362)"/>
<defs>
<linearGradient id="paint0_linear_65_362" x1="13" y1="0" x2="13" y2="26" gradientUnits="userSpaceOnUse">
<stop stop-color="#4A750C"/>
<stop offset="1" stop-color="#8BDB16"/>
</linearGradient>
</defs>
</svg>
