<svg width="67" height="73" viewBox="0 0 67 73" fill="none" xmlns="http://www.w3.org/2000/svg">
<path d="M31.8486 7.30798C32.1407 7.27563 32.522 7.22657 32.7871 7.35486L32.7715 7.41345C32.5313 7.48929 32.2374 7.46245 31.9814 7.45545C31.7364 7.49413 31.456 7.54611 31.2119 7.56775C30.8983 7.62273 30.6037 7.66583 30.2861 7.69666C28.4673 7.87318 26.6611 8.37846 24.9306 8.93298C17.5491 11.743 11.6369 16.8628 8.37303 24.1293C5.34729 30.8242 5.11125 38.4484 7.71678 45.3177C10.4054 52.3864 15.225 57.7983 22.1797 60.9174C28.8609 63.9244 36.465 64.1469 43.3105 61.5355C50.35 58.8444 55.629 53.6269 58.6865 46.764C61.6547 40.0337 61.8408 32.4025 59.2041 25.5355C56.4246 18.3149 50.9294 12.8331 43.9062 9.6615C43.6361 9.53962 42.3969 9.10237 42.2549 9.01404C40.6014 8.49897 39.1336 8.035 37.4023 7.78259C36.9317 7.71399 34.7893 7.50881 34.459 7.32459C35.0389 7.30147 35.6645 7.38752 36.2471 7.43591C38.2923 7.60575 40.5522 7.98534 42.5058 8.63806C49.7699 10.8065 55.8757 15.7708 59.4805 22.4398C63.1271 29.1897 63.9487 37.1106 61.7646 44.4652C59.4786 52.0427 54.2773 58.4025 47.3047 62.1478C40.5053 65.8264 32.517 66.634 25.1191 64.39C17.5484 62.1051 11.2001 56.8983 7.47752 49.9213C3.82712 43.1792 3.03692 35.2531 5.28514 27.9232C7.45075 20.6 12.4525 14.4457 19.1777 10.8275C21.0258 9.84321 22.1794 9.46066 24.0703 8.75525L24.8828 8.50525C26.7861 7.95182 28.7428 7.59677 30.7207 7.44568L31.8486 7.30798ZM50.4385 22.4701C51.3921 22.4711 51.9577 23.7678 52.4267 24.5033C57.9207 33.1187 56.5207 44.6895 49.0674 51.8138C44.8015 55.8861 39.0932 58.0986 33.1972 57.9642C29.3415 57.901 25.5765 56.782 22.3115 54.7299C21.7007 54.3498 21.0137 53.9323 20.4912 53.4437C19.9013 52.8918 20.3123 52.4037 20.7549 51.9574C21.3231 51.3844 21.9051 50.8367 22.4883 50.2836C23.717 49.1172 24.9529 47.9578 26.1953 46.806C28.6629 44.5489 31.2344 42.3224 33.6767 40.0463C33.9709 39.7291 34.4978 39.2745 34.8301 38.9701C35.0072 38.7564 35.2649 38.5801 35.4892 38.4115C35.5004 38.5169 34.9898 39.0738 34.8828 39.1732C34.676 39.3976 34.3173 39.8124 34.1074 40.0072C33.6959 40.4467 33.2558 40.8984 32.8623 41.351C29.4344 45.2935 25.9205 49.1184 22.3164 52.9008C24.3798 54.1167 26.0857 54.9256 28.4433 55.5082C33.6702 56.7734 39.1855 55.9272 43.793 53.1537C48.481 50.3126 51.6697 45.8687 52.9512 40.558C54.3211 34.8802 53.367 29.6945 50.3789 24.764C49.3377 25.6672 48.2811 26.685 47.2598 27.6244C44.8192 29.9059 42.3619 32.1694 39.8877 34.4144C38.9287 35.2863 37.902 36.2697 36.918 37.0941C36.8668 37.1825 36.672 37.3949 36.5947 37.4838L36.5029 37.35C36.6384 37.0747 36.8795 36.8728 37.1211 36.6781C38.9767 34.3812 41.6441 31.6622 43.6767 29.4711L47.6045 25.2484C48.0855 24.7333 49.8887 22.6795 50.4385 22.4701ZM32.7471 13.6566C36.9301 13.6037 41.0426 14.7366 44.6084 16.9242C47.3978 18.6491 47.4345 18.5715 45.1601 20.7269L42.7187 23.0326C39.6519 25.8959 36.4085 28.7702 33.3955 31.6605C33.0168 32.0305 32.4183 32.6176 31.9785 32.8744C32.3683 32.3922 32.9478 31.7376 33.4092 31.3256L44.7764 19.1459C40.0904 16.1256 34.6829 15.313 29.2607 16.4828C24.059 17.6053 19.5196 20.7567 16.6494 25.2377C13.7624 29.7783 12.7703 35.2696 13.8847 40.5336C14.351 42.6461 15.4017 45.4225 16.6572 47.1957C17.953 45.7484 20.3442 43.5819 21.8115 42.2094C24.7194 39.4742 27.6647 36.7788 30.6465 34.1244C30.8478 33.8855 31.1576 33.6234 31.3945 33.4095C31.1818 33.7431 31.05 33.9835 30.7519 34.2484C30.214 34.7573 29.3055 35.8222 28.7676 36.4105L24.331 41.2601L19.6279 46.2748C18.7929 47.1663 17.9468 48.0887 17.0918 48.9613C16.9563 49.0995 16.7338 49.2945 16.54 49.3021C16.2929 49.3196 15.911 49.0881 15.7607 48.8998C12.8593 45.258 11.3908 40.5475 11.3359 35.9926C11.2638 29.9978 13.599 24.148 17.7685 19.9047C21.5756 16.0303 27.3667 13.673 32.7471 13.6566ZM36.5029 37.35C36.4842 37.3879 36.4675 37.4273 36.4531 37.4681C36.4631 37.4478 36.4887 37.3688 36.498 37.3422L36.5029 37.35Z" fill="#323F08"/>
</svg>
