<svg width="25" height="18" viewBox="0 0 25 18" fill="none" xmlns="http://www.w3.org/2000/svg">
<path fill-rule="evenodd" clip-rule="evenodd" d="M13.2536 0.00345588C13.5923 -0.00253418 13.933 0.00637606 14.2722 0.00345588C14.5229 0.0013175 14.7678 0.00522801 15.0173 0.0405653C15.9216 0.168679 16.6955 0.815692 16.9616 1.69193C17.0945 2.12944 17.0813 2.53083 17.0817 2.97904C17.0854 3.32599 17.0809 3.67324 17.07 4.02006C17.9087 4.05613 18.7759 3.99027 19.6071 4.0601C20.0892 4.10063 20.6741 4.4228 21.0075 4.75932C21.2255 4.9794 21.4514 5.34476 21.6286 5.6099L22.403 6.77006L23.1862 7.94682C23.4034 8.27314 23.6366 8.60222 23.8034 8.95658C23.9736 9.31218 24.086 9.69258 24.1364 10.0835C24.2048 10.5773 24.1704 11.338 24.1735 11.856C24.1698 12.6444 24.1708 13.4769 24.1784 14.2613C24.1886 15.3207 23.5669 15.3414 22.7145 15.3247C22.368 15.3179 21.9834 15.3337 21.6306 15.3238C21.5853 15.4393 21.5397 15.5494 21.488 15.6636C20.8436 17.0851 19.1569 17.7456 17.738 17.0591C16.9859 16.6952 16.5252 16.1119 16.2526 15.3355C15.9067 15.2935 15.2026 15.3302 14.8142 15.3208C13.622 15.292 12.3395 15.3613 11.1569 15.3238C11.0078 15.7616 10.7636 16.1611 10.4411 16.4927C9.2706 17.6763 7.56745 17.5763 6.41474 16.4263C6.09782 16.1046 5.92743 15.7534 5.779 15.3345C4.7269 15.2462 3.98863 15.4693 3.12568 14.6353C2.55439 14.083 2.40073 13.4543 2.38935 12.6822C2.37981 12.0348 2.38652 11.3862 2.38642 10.7388C2.38634 10.3254 2.33897 9.85135 2.42744 9.44779C2.45751 9.31068 2.53313 9.1933 2.63154 9.09428C2.78066 8.94432 2.9735 8.87017 3.18427 8.87455C3.49458 8.88112 3.78284 9.0336 3.91083 9.32279C4.07986 9.70594 3.99771 11.7032 3.9958 12.231C3.99482 12.4941 3.97005 12.7857 4.02705 13.0435C4.06306 13.2059 4.13527 13.3558 4.25361 13.4742C4.58593 13.8062 5.32096 13.7039 5.76337 13.6997C6.00097 12.888 6.67575 12.1636 7.4665 11.8667C8.16418 11.6076 8.93647 11.6341 9.61494 11.94C10.3991 12.2976 10.8578 12.8889 11.1511 13.6792C11.4505 13.72 12.2862 13.7009 12.611 13.7007L15.4597 13.7027C15.4423 12.795 15.4627 11.8188 15.4626 10.9038V5.18314L15.4655 3.37162C15.4661 3.03006 15.4976 2.51055 15.4265 2.18998C15.2905 1.57851 14.5654 1.62636 14.1101 1.6226C13.4279 1.60608 12.702 1.67346 12.0261 1.61185C11.0603 1.52382 11.0075 0.183428 12.0056 0.0141981C12.4155 -0.0104484 12.8416 0.0107567 13.2536 0.00345588ZM9.6413 14.2876C9.51945 13.634 8.89024 13.2033 8.23701 13.3267C7.58608 13.4498 7.1576 14.0768 7.279 14.7281C7.4005 15.3792 8.02594 15.8097 8.67744 15.69C9.33128 15.5697 9.76306 14.9412 9.6413 14.2876ZM20.114 14.2876C19.9921 13.634 19.363 13.2033 18.7097 13.3267C18.0586 13.4498 17.6302 14.0767 17.7517 14.7281C17.8732 15.3793 18.4985 15.8097 19.1501 15.69C19.804 15.5698 20.2357 14.9413 20.114 14.2876ZM22.3757 9.69096C21.138 9.65616 19.8659 9.70154 18.6267 9.68412C18.248 9.6788 17.4732 9.71578 17.1403 9.68412L17.0915 9.72123C17.0635 9.97188 17.0737 10.5459 17.0778 10.8218C17.0853 11.3284 17.0653 11.8812 17.0808 12.3824C17.7515 11.8613 18.4312 11.6048 19.2936 11.7134C20.0259 11.8096 20.6914 12.1901 21.1462 12.772C21.355 13.0432 21.482 13.3477 21.6276 13.6548C21.6449 13.6895 21.7926 13.695 21.8298 13.6968C22.0666 13.6988 22.322 13.7052 22.5573 13.6988L22.5632 11.939C22.565 11.1973 22.6304 10.3831 22.3757 9.69096ZM5.37177 6.44779C6.00296 6.46428 7.03693 6.25995 7.22919 7.06596C7.27911 7.27899 7.24169 7.50351 7.12568 7.689C6.99164 7.90209 6.79493 8.0056 6.55634 8.05717C5.96593 8.08851 5.35222 8.06331 4.75947 8.07572C4.35411 8.08421 3.88271 8.11789 3.53291 7.89115C3.16462 7.66115 3.15731 7.11906 3.3708 6.78373C3.50139 6.57892 3.72338 6.49899 3.94892 6.45951C4.39347 6.43348 4.92444 6.43611 5.37177 6.44779ZM19.2663 5.6558C18.5858 5.61087 17.7993 5.71193 17.1286 5.6558C17.1173 5.66774 17.1034 5.68203 17.0876 5.69877C17.0482 6.36274 17.111 7.42448 17.071 8.05033C18.3627 8.08482 19.9735 8.08518 21.2722 8.06107C21.2819 7.92763 20.0761 6.21333 19.9118 5.97025C19.7794 5.77444 19.5031 5.67143 19.2663 5.6558ZM3.78974 3.22611C5.20384 3.23112 6.62154 3.214 8.03486 3.23783C9.04846 3.2549 9.17589 4.61675 8.16669 4.83451C7.77336 4.85824 7.3134 4.84881 6.91669 4.84916L4.8913 4.85014L3.35322 4.85307C2.97932 4.85359 2.21829 4.91192 1.93037 4.67533C1.36538 4.21087 1.57343 3.36998 2.33857 3.23685C2.81259 3.21453 3.31245 3.22443 3.78974 3.22611ZM2.43134 0.00345588H5.33271L8.07587 0.00443244C8.56455 0.00448278 9.05202 0.0048089 9.54072 0.00931525C9.96387 0.0132709 10.3369 0.154975 10.4489 0.613807C10.5001 0.828662 10.4643 1.05577 10.3483 1.24369C10.2148 1.45668 10.0162 1.56134 9.77802 1.61283C9.2972 1.6446 8.65092 1.62733 8.16181 1.62748H5.33857L2.52119 1.62846C2.09913 1.62929 0.71048 1.70286 0.374702 1.49271C-0.217385 1.12198 -0.113295 0.161077 0.726264 0.0141981C1.27283 -0.00939104 1.87817 0.00355658 2.43134 0.00345588Z" fill="url(#paint0_linear_65_390)"/>
<defs>
<linearGradient id="paint0_linear_65_390" x1="12.0897" y1="0" x2="12.0897" y2="17.3357" gradientUnits="userSpaceOnUse">
<stop stop-color="#4A750C"/>
<stop offset="1" stop-color="#8BDB16"/>
</linearGradient>
</defs>
</svg>
