<svg width="25" height="18" viewBox="0 0 25 18" fill="none" xmlns="http://www.w3.org/2000/svg">
<path fill-rule="evenodd" clip-rule="evenodd" d="M9.66406 2.5361C12.0726 -1.11759 17.5637 -0.764268 19.4453 3.21383C20.1506 4.70511 20.0092 5.90353 20.0205 7.49215C22.445 7.57596 24.2644 9.01826 24.8682 11.3486C24.9106 11.5125 24.9437 11.8834 25 11.999V12.9384L24.9932 12.958C24.9497 13.0945 24.939 13.2349 24.9102 13.3759C24.864 13.5996 24.8058 13.8206 24.7363 14.0381C24.334 15.2847 23.455 16.3218 22.291 16.9228C21.001 17.6033 19.515 17.4989 18.1064 17.499L13.752 17.5C13.7368 15.9221 13.7193 14.1715 13.752 12.5996C14.7868 12.6017 15.8554 12.6159 16.8877 12.5986C16.6058 12.3504 16.0314 11.6381 15.752 11.3115L13.7842 9.00387C13.4139 8.56398 12.8947 7.90753 12.502 7.50192C12.014 8.03208 11.5195 8.64494 11.0547 9.20016L9.22559 11.3554C8.89442 11.7425 8.48806 12.2516 8.14258 12.6054L10.167 12.6123C10.5009 12.6122 10.9294 12.6243 11.251 12.6035C11.2532 14.2069 11.2834 15.909 11.249 17.5019L7.31055 17.5029C6.14714 17.503 4.89487 17.5827 3.78027 17.3222C2.03765 16.9148 0.592813 15.4746 0.171875 13.7392C0.127235 13.5552 0.0558435 13.0913 0 12.958V11.8965C0.0507479 11.8068 0.102072 11.4966 0.133789 11.372C0.192711 11.1338 0.263599 10.8979 0.34668 10.667C0.911403 9.11893 2.40782 7.90863 4.01074 7.58004C3.66485 6.64166 3.66287 5.81998 4.01465 4.87789C4.7589 2.88564 7.15546 1.95513 9.06543 2.84567C9.17683 2.89775 9.28422 2.95884 9.38574 3.02829C9.44526 2.85819 9.56403 2.68791 9.66406 2.5361Z" fill="url(#paint0_linear_65_357)"/>
<defs>
<linearGradient id="paint0_linear_65_357" x1="12.5" y1="0" x2="12.5" y2="17.5145" gradientUnits="userSpaceOnUse">
<stop stop-color="#4A750C"/>
<stop offset="1" stop-color="#8BDB16"/>
</linearGradient>
</defs>
</svg>
