<svg width="19" height="26" viewBox="0 0 19 26" fill="none" xmlns="http://www.w3.org/2000/svg">
<path d="M9.27148 0C10.181 1.17384 11.0737 2.36111 11.9492 3.56055C14.246 6.71805 17.4135 11.4302 18.2051 15.2969C18.4105 16.2821 18.4474 17.2954 18.3145 18.293C18.0957 20.0673 17.428 21.6669 16.2617 23.0166C15.9283 23.4025 15.5686 23.7222 15.168 24.0342C14.3048 24.7007 13.3276 25.2061 12.2852 25.5264C11.6959 25.7094 11.0912 25.8389 10.4785 25.9121C10.3765 25.9246 9.89516 25.9624 9.8457 26H8.34473C8.29539 25.9645 8.03492 25.9502 7.95703 25.9424C7.72163 25.9204 7.48665 25.892 7.25293 25.8564C6.94767 25.8091 6.6449 25.7468 6.3457 25.6699C4.24319 25.1381 2.53213 23.9104 1.35645 22.0908C0.819226 21.2594 0.468691 20.5531 0.236328 19.5947C0.211109 19.4907 0.0246496 18.7721 0 18.7354V15.4277C0.0444172 15.3588 0.237795 14.6167 0.283203 14.4697C0.39125 14.1255 0.506446 13.7834 0.629883 13.4443C1.00702 12.4218 1.44417 11.4224 1.93848 10.4512C3.27154 7.82967 4.9641 5.30551 6.71484 2.94238C7.16563 2.33279 7.62267 1.72687 8.08496 1.12598C8.37095 0.754561 8.67751 0.375335 8.95508 0H9.27148ZM9.10742 2.39551C8.17138 3.61457 7.29204 4.96564 6.46582 6.25977C5.21835 8.2137 4.05331 10.2471 3.0498 12.3369C2.53327 13.4299 1.99985 14.6869 1.74316 15.8633C1.18171 18.4369 2.59533 21.1653 4.62988 22.6982C5.93647 23.6874 7.48969 24.3033 9.12402 24.3037C11.0877 24.3197 12.9638 23.4347 14.3525 22.0703C15.6885 20.7574 16.5969 18.9996 16.6113 17.0996C16.6365 13.7766 12.6821 7.62378 10.8428 4.86523C10.4445 4.26895 10.0372 3.67869 9.62109 3.09473C9.51728 2.94874 9.22755 2.5087 9.10742 2.39551ZM4.19531 16.3564C5.07405 16.3052 5.11637 16.7788 5.50684 17.4189C5.58762 17.5516 5.68368 17.6748 5.79297 17.7852C6.28367 18.2843 6.86019 18.4673 7.40625 18.8564C7.75603 19.1432 7.98001 19.5685 8.17773 19.9551C8.53212 20.6481 8.38871 21.3873 7.63965 21.7217C7.55337 21.7576 7.46374 21.7847 7.37207 21.8027C6.88139 21.8974 6.30015 21.6884 5.88965 21.4014C4.74276 20.5993 3.87314 18.9566 3.57129 17.6152C3.51285 17.3555 3.51033 16.8096 3.67969 16.5879C3.8117 16.4156 3.99853 16.385 4.19531 16.3564Z" fill="url(#paint0_linear_64_279)"/>
<defs>
<linearGradient id="paint0_linear_64_279" x1="9.19627" y1="0" x2="9.19627" y2="26" gradientUnits="userSpaceOnUse">
<stop stop-color="#4A750C"/>
<stop offset="1" stop-color="#8BDB16"/>
</linearGradient>
</defs>
</svg>
